SplineFontDB: 3.0
FontName: Amatic
FullName: Amatic
FamilyName: Amatic
Weight: Normal
Copyright: Copyright (c) 2011 by vernon adams. All rights reserved. with\nReserved Font Names "Amatic" and "Amatic Regular". This\nFont Software is licensed under the SIL Open Font License, Version\n1.1. This license is available with a FAQ at:\nhttp://scripts.sil.org/OFL
Version: 001.001
ItalicAngle: 0
UnderlinePosition: -102
UnderlineWidth: 102
Ascent: 1536
Descent: 512
sfntRevision: 0x00010000
LayerCount: 2
Layer: 0 0 "Back"  1
Layer: 1 0 "Fore"  0
XUID: [1021 14 500265001 1859714]
FSType: 0
OS2Version: 0
OS2_WeightWidthSlopeOnly: 0
OS2_UseTypoMetrics: 1
CreationTime: 1313668917
ModificationTime: 1369574619
PfmFamily: 81
TTFWeight: 400
TTFWidth: 3
LineGap: 18
VLineGap: 0
Panose: 0 0 0 0 0 0 0 0 0 0
OS2TypoAscent: 1536
OS2TypoAOffset: 0
OS2TypoDescent: -512
OS2TypoDOffset: 0
OS2TypoLinegap: 0
OS2WinAscent: 2064
OS2WinAOffset: 0
OS2WinDescent: 20
OS2WinDOffset: 0
HheadAscent: 1397
HheadAOffset: 0
HheadDescent: -532
HheadDOffset: 0
OS2SubXSize: 1331
OS2SubYSize: 1229
OS2SubXOff: 0
OS2SubYOff: 154
OS2SupXSize: 1331
OS2SupYSize: 1229
OS2SupXOff: 0
OS2SupYOff: 717
OS2StrikeYSize: 102
OS2StrikeYPos: 614
OS2Vendor: 'newt'
OS2CodePages: 00000001.00000000
OS2UnicodeRanges: 00000001.00000000.00000000.00000000
Lookup: 4 0 1 "'liga' Standard Ligatures in Latin lookup 0"  {"'liga' Standard Ligatures in Latin lookup 0-1"  } ['liga' ('DFLT' <'dflt' > 'latn' <'dflt' > ) ]
Lookup: 258 0 0 "'kern' Horizontal Kerning lookup 0"  {"'kern' Horizontal Kerning lookup 0 per glyph data 0"  "'kern' Horizontal Kerning lookup 0 kerning class 1"  } ['kern' ('DFLT' <'dflt' > 'latn' <'dflt' > ) ]
MarkAttachClasses: 1
DEI: 91125
KernClass2: 32 23 "'kern' Horizontal Kerning lookup 0 kerning class 1" 
 73 A Aacute Abreve Acircumflex Adieresis Agrave Amacron Aogonek Aring Atilde
 1 B
 8 D Dcaron
 1 F
 13 J Jcircumflex
 14 K Kcommaaccent
 28 L Lacute Lcaron Lcommaaccent
 35 N Nacute Ncaron Ncommaaccent Ntilde

StartChar: ordfeminine
Encoding: 256 170 0
Width: 692
Flags: W
HStem: 375 53<164.078 555.922> 817 45<301.638 455.778> 1356 20G<375 388>
VStem: 490 77<495.242 772.094>
LayerCount: 2
Fore
SplineSet
551 494 m 1
 502 494 490 503 490 545 c 0
 490 637 469 726 457 807 c 1
 431 814 400 817 365 817 c 1
 311 815 l 1
 302 819 280 823 247 827 c 1
 195 652 l 1
 171 563 154 513 145 504 c 0
 136 495 104 525 104 539 c 1
 131 584 193 808 289 1211 c 1
 299 1302 307 1354 314 1366 c 1
 342 1364 l 1
 359 1364 371 1368 379 1376 c 1
 397 1376 416 1363 416 1345 c 1
 550 666 l 2
 561 606 567 564 567 540 c 0
 567 516 562 500 551 494 c 1
263 892 m 1
 337 876 l 1
 393 871 426 866 436 862 c 1
 457 862 l 1
 359 1282 l 1
 322 1115 290 985 263 892 c 1
512 428 m 0
 531 428 558 412 558 393 c 0
 558 379 233 375 206 375 c 0
 186 375 162 389 162 410 c 0
 162 423 487 428 512 428 c 0
EndSplineSet
EndChar

StartChar: exclam
Encoding: 33 33 2
Width: 329
Flags: W
HStem: -27 21G<156 176.5> 1528 20G<185.5 207>
VStem: 88 123<-11.5247 97.8205> 135 90<1176.2 1544.01> 145 39<333.372 910.418>
LayerCount: 2
Fore
SplineSet
88 39 m 1xe0
 88 66 123 102 150 102 c 0
 193 102 211 66 211 27 c 0
 211 -6 193 -25 160 -27 c 1
 152 -2 125 -35 88 39 c 1xe0
145 330 m 2xc8
 145 821 l 2xc8
 145 938 150 1054 150 1171 c 0
 150 1282 135 1387 135 1493 c 0
 135 1522 172 1548 199 1548 c 0
 215 1548 225 1538 225 1522 c 0xd0
 225 1194 182 871 182 543 c 0
 182 518 184 486 184 453 c 0
 184 408 180 361 168 332 c 1
 174 322 l 1
 147 322 l 1
 147 324 145 328 145 330 c 2xc8
EndSplineSet
EndChar

StartChar: numbersign
Encoding: 35 35 3
Width: 790
Flags: W
HStem: 592 63<77.4473 223.641> 608 54<138.451 225 283.561 503.138> 610 66<578 673.483> 967 55<133 265.573> 983 61<325.359 542.187 608 684>
VStem: 317 43<1247.95 1513> 444 60<-31 279.206> 543 24<865 882.304> 623 55<1338.9 1541.89>
LayerCount: 2
Fore
SplineSet
444 -37 m 0x2f80
 444 49 471 133 471 219 c 0
 471 348 510 473 510 602 c 1
 455 608 399 608 344 608 c 0x4780
 319 608 295 608 272 600 c 1
 243 391 221 -57 184 -57 c 0
 174 -57 150 -51 150 -37 c 0
 150 57 162 152 172 244 c 0
 186 363 200 483 225 600 c 1
 196 600 168 592 137 592 c 0
 108 592 76 598 76 635 c 0
 76 653 108 655 145 655 c 2
 188 655 l 2
 204 655 219 655 229 657 c 1
 237 675 266 936 266 971 c 1
 243 971 222 967 197 967 c 0
 172 967 119 969 117 1004 c 1
 133 1022 l 1
 143 1022 158 1022 176 1022 c 0x9780
 211 1022 253 1023 270 1028 c 1
 286 1169 317 1313 317 1456 c 0
 317 1470 315 1483 315 1497 c 0
 315 1517 319 1542 346 1542 c 1
 360 1513 l 1
 360 1353 324 1198 324 1038 c 1
 353 1030 381 1030 412 1030 c 0
 421 1030 429 1030 438 1030 c 0
 474 1030 513 1031 547 1044 c 1
 580 1204 611 1364 623 1526 c 1
 631 1536 641 1542 653 1542 c 0
 663 1542 674 1532 678 1522 c 1
 676 1362 604 1215 604 1055 c 1
 608 1044 l 1
 684 1044 l 1
 711 1016 l 1
 707 1006 698 983 684 983 c 0
 655 983 627 987 598 987 c 1
 573 889 567 778 567 678 c 1
 578 674 l 1
 588 674 602 676 616 676 c 0
 645 676 674 670 674 637 c 0
 674 623 651 614 641 610 c 1
 561 610 l 1
 545 397 504 184 504 -31 c 1
 481 -57 l 1
 469 -57 444 -53 444 -37 c 0x2f80
283 666 m 1
 295 664 305 662 317 662 c 0
 380 662 445 662 506 670 c 1
 522 766 543 865 543 963 c 0
 543 983 434 983 385 983 c 0x4f80
 360 983 335 981 317 971 c 1
 301 934 281 723 281 674 c 0
 281 672 283 668 283 666 c 1
EndSplineSet
EndChar

StartChar: dollar
Encoding: 36 36 4
Width: 538
Flags: W
HStem: -18 21G<286 309.5> 170 35<175.548 276>
VStem: 88 47<1159.64 1436.34> 178 43<1257.75 1470 1527.02 1650.57> 219 19<981 1309> 283 45<-13.7787 23 29 164 240 416.256> 414 45<310.66 500.1>
LayerCount: 2
Fore
SplineSet
274 23 m 1xee
 283 29 l 1
 283 164 l 1
 276 170 l 1
 241 170 207 170 174 166 c 1
 141 189 102 225 102 268 c 0
 102 280 109 289 121 289 c 2
 125 289 l 1
 176 258 133 205 221 205 c 0
 239 205 261 207 279 213 c 1
 279 336 235 789 225 881 c 0
 221 918 88 1130 88 1300 c 0
 88 1355 110 1522 186 1522 c 1
 186 1551 178 1579 178 1610 c 0
 178 1628 180 1663 207 1663 c 1
 223 1645 l 1
 221 1631 221 1613 221 1599 c 0xf6
 221 1560 227 1524 254 1524 c 0
 283 1524 307 1508 332 1479 c 0
 340 1471 383 1425 383 1417 c 0
 383 1403 370 1379 358 1391 c 0
 317 1432 318 1479 238 1487 c 1
 231 1470 l 1
 231 1417 238 1362 238 1309 c 0
 238 1243 265 917 285 870 c 1
 320 776 445 571 459 403 c 1
 459 284 409 247 319 184 c 1
 319 145 328 107 328 68 c 0
 328 45 326 -18 293 -18 c 0
 279 -18 274 13 274 23 c 1xee
315 240 m 1
 317 236 l 1
 370 261 414 328 414 387 c 0
 414 457 334 700 281 776 c 1
 281 596 315 420 315 240 c 1
135 1288 m 0
 135 1190 172 1079 213 989 c 1
 213 985 215 983 219 981 c 1xee
 215 1145 190 1309 182 1473 c 1
 151 1467 135 1317 135 1288 c 0
EndSplineSet
EndChar

StartChar: percent
Encoding: 37 37 5
Width: 1120
Flags: W
HStem: -6 21G<387 414.5> 27 67<791.245 916.391> 723 53<211.234 319.737> 758 57<802 915.606> 1497 55<203.535 315.987>
VStem: 90 55<891.913 1370.09> 393 47<891.138 1153 1159 1369.47> 686 51<209.758 639.462> 983 53<191.038 379 385 657.341>
LayerCount: 2
Fore
SplineSet
262 723 m 0xef80
 92 723 90 1065 90 1180 c 2
 90 1188 l 2
 90 1251 127 1552 236 1552 c 2
 240 1552 l 2
 262 1552 341 1549 377 1477 c 1
 426 1393 440 1253 440 1159 c 1
 436 1153 l 1
 436 1120 440 1092 440 1059 c 0
 440 967 430 723 262 723 c 0xef80
145 1065 m 0
 145 1022 158 776 258 776 c 0
 385 776 393 999 393 1071 c 0
 393 1161 377 1237 377 1327 c 1
 373 1346 l 1
 373 1426 318 1497 242 1497 c 0
 166 1497 158 1272 150 1231 c 1
 150 1215 141 1196 141 1178 c 0
 141 1141 145 1104 145 1065 c 0
858 815 m 0xdf80
 1026 815 1036 571 1036 479 c 0
 1036 446 1032 418 1032 385 c 1
 1036 379 l 1
 1036 254 1009 27 831 27 c 0
 720 27 686 295 686 350 c 2
 686 358 l 2
 686 475 688 815 858 815 c 0xdf80
741 475 m 0
 741 438 737 402 737 367 c 0
 737 349 745 329 745 313 c 1
 753 280 762 94 836 94 c 0
 973 94 983 273 983 403 c 0
 983 427 983 450 983 469 c 0
 983 539 975 758 852 758 c 0
 754 758 741 520 741 475 c 0
766 1505 m 0
 766 1489 729 1337 725 1317 c 0
 651 977 572 641 494 299 c 2
 453 121 l 2
 443 78 436 -2 393 -6 c 1
 381 2 373 17 373 31 c 0
 373 129 417 268 444 387 c 0
 524 741 608 1096 700 1448 c 0
 704 1460 719 1532 735 1532 c 0
 751 1532 766 1523 766 1505 c 0
EndSplineSet
EndChar

StartChar: ampersand
Encoding: 38 38 6
Width: 942
Flags: W
HStem: 219 39<277.613 458.311 706.034 840> 815 37<694 794.436> 1653 51<300.5 412.492>
VStem: 92 45<426.137 748.532> 260 49<1049.75 1124.85 1190 1314.44 1325 1494.67> 436 45<1452.38 1626.91> 647 47<542.023 812.441>
LayerCount: 2
Fore
SplineSet
352 219 m 0
 200 219 92 395 92 532 c 0
 92 790 161 899 274 1118 c 1
 274 1214 260 1309 260 1405 c 2
 260 1575 l 2
 260 1614 275 1704 326 1704 c 0
 379 1704 481 1662 481 1599 c 0
 481 1558 475 1518 475 1477 c 0
 475 1469 475 1460 477 1452 c 1
 446 1366 420 1274 377 1194 c 0
 359 1159 322 1126 322 1085 c 0
 322 972 467 414 569 383 c 1
 632 510 647 639 647 780 c 0
 647 835 616 796 598 825 c 1
 600 829 l 1
 596 842 l 1
 602 852 l 1
 641 852 792 865 823 877 c 1
 839 875 858 864 858 846 c 0
 858 823 791 813 756 813 c 0
 740 813 723 815 707 815 c 2
 694 815 l 1
 694 620 680 493 606 348 c 1
 645 303 703 266 764 266 c 0
 789 266 815 272 840 272 c 1
 862 254 l 1
 862 221 793 221 770 221 c 0
 698 221 639 262 584 303 c 1
 504 248 452 219 352 219 c 0
137 569 m 0
 137 426 199 258 367 258 c 0
 408 258 539 291 543 340 c 1
 531 360 518 371 502 387 c 0
 406 485 336 717 309 850 c 0
 297 909 299 969 281 1026 c 1
 185 901 137 727 137 569 c 0
764 629 m 1
 766 629 766 629 766 627 c 1
 764 629 l 1
313 1315 m 1
 309 1303 309 1292 309 1280 c 0
 309 1249 315 1221 315 1190 c 1
 364 1235 436 1460 436 1530 c 0
 436 1581 428 1653 360 1653 c 0
 340 1653 307 1597 307 1579 c 2
 309 1325 l 1
 313 1315 l 1
EndSplineSet
EndChar

StartChar: parenleft
Encoding: 40 40 7
Width: 460
Flags: W
VStem: 94 56<495.27 1117.59>
LayerCount: 2
Fore
SplineSet
94 879 m 0
 94 988 182 1622 293 1626 c 1
 313 1610 l 1
 311 1540 265 1484 242 1423 c 1
 181 1253 150 1059 150 879 c 0
 150 564 182 154 305 -139 c 0
 330 -198 373 -252 389 -315 c 1
 383 -325 370 -340 358 -340 c 0
 319 -340 305 -287 293 -258 c 0
 162 35 94 517 94 879 c 0
EndSplineSet
EndChar

StartChar: parenright
Encoding: 41 41 8
Width: 477
Flags: W
VStem: 332 55<502.356 1091.95>
LayerCount: 2
Fore
SplineSet
387 817 m 0
 387 649 363 483 324 319 c 0
 304 231 186 -279 102 -279 c 0
 88 -279 72 -270 72 -254 c 0
 72 -236 131 -141 156 -78 c 1
 254 182 332 536 332 817 c 0
 332 1012 306 1239 240 1423 c 0
 217 1486 168 1540 168 1610 c 1
 188 1626 l 1
 309 1622 387 934 387 817 c 0
EndSplineSet
EndChar

StartChar: asterisk
Encoding: 42 42 9
Width: 905
Flags: W
HStem: 1120 58<84.1152 383 480.922 815>
VStem: 231 56<745 780.264> 545 86<728.365 860.332>
LayerCount: 2
Fore
SplineSet
537 1120 m 0
 530 1120 521 1120 512 1120 c 0
 497 1120 481 1119 473 1114 c 1
 475 1063 631 801 631 754 c 0
 631 738 616 725 602 725 c 0
 555 725 555 802 545 831 c 1
 512 909 475 989 434 1065 c 1
 424 1051 416 1028 410 1012 c 2
 330 823 l 2
 316 788 305 750 287 719 c 1
 260 715 l 1
 231 745 l 1
 231 794 377 1028 393 1118 c 1
 387 1120 377 1122 371 1122 c 2
 139 1122 l 2
 129 1122 118 1120 106 1120 c 0
 88 1120 84 1137 84 1153 c 0
 84 1167 94 1178 106 1178 c 0
 200 1178 291 1176 383 1176 c 1
 387 1180 l 1
 367 1217 238 1483 238 1503 c 0
 238 1519 256 1526 270 1526 c 0
 303 1526 381 1243 428 1212 c 1
 455 1261 528 1544 575 1544 c 0
 589 1544 608 1527 608 1513 c 0
 608 1495 592 1474 582 1458 c 1
 537 1370 518 1270 477 1178 c 1
 479 1176 l 1
 520 1170 561 1167 602 1167 c 0
 659 1167 721 1178 778 1178 c 0
 798 1178 817 1157 817 1139 c 0
 817 1112 793 1110 770 1110 c 0
 690 1110 617 1120 537 1120 c 0
471 1120 m 1
 469 1120 469 1120 469 1118 c 1
 471 1118 l 1
 471 1120 l 1
EndSplineSet
EndChar

StartChar: plus
Encoding: 43 43 10
Width: 727
Flags: W
HStem: 623 55<100.217 314.668 388.768 626.748>
VStem: 315 86<356.009 549.743> 319 64<391.657 618.06 681.467 889 909 943.742>
LayerCount: 2
Fore
SplineSet
315 385 m 2xc0
 315 449 l 2xc0
 315 484 319 518 319 555 c 0xa0
 319 606 320 623 250 623 c 0
 219 623 191 612 160 612 c 0
 129 612 100 620 100 655 c 0
 100 673 103 684 123 684 c 0
 160 684 194 678 231 678 c 0
 243 678 315 678 315 694 c 0xc0
 315 762 305 831 305 899 c 0
 305 930 313 944 346 944 c 0
 369 944 383 932 383 909 c 1
 375 889 l 1
 375 836 383 780 383 727 c 0
 383 686 403 678 440 678 c 0
 481 678 522 684 563 684 c 0
 588 684 627 680 627 647 c 0
 627 624 612 614 592 614 c 0
 551 614 510 621 467 621 c 2
 457 621 l 2
 403 621 383 619 383 553 c 0xa0
 383 483 401 446 401 389 c 0
 401 366 378 356 358 356 c 0
 344 356 315 369 315 385 c 2xc0
EndSplineSet
EndChar

StartChar: comma
Encoding: 44 44 11
Width: 407
Flags: W
HStem: -178 338<194 207>
VStem: 211 86<-56.094 45.3467>
LayerCount: 2
Fore
SplineSet
100 -162 m 1
 104 -143 l 1
 145 -104 211 -57 211 6 c 1
 180 24 152 59 152 96 c 0
 152 135 194 160 229 160 c 0
 268 160 285 133 297 100 c 1
 293 94 l 1
 297 86 297 78 297 70 c 0
 297 4 207 -176 133 -178 c 1
 100 -162 l 1
EndSplineSet
EndChar

StartChar: hyphen
Encoding: 45 45 12
AltUni2: 002015.ffffffff.0
Width: 620
Flags: W
HStem: 680 94<130.773 490.537>
VStem: 113 395<716.703 737.297>
LayerCount: 2
Fore
SplineSet
508 739 m 0
 508 708 248 680 156 680 c 0
 138 680 113 692 113 715 c 0
 113 746 379 774 463 774 c 0
 481 774 508 759 508 739 c 0
EndSplineSet
EndChar

StartChar: period
Encoding: 46 46 13
Width: 327
Flags: W
HStem: -8 104<114.17 213.904>
VStem: 113 102<-7.10484 94.9718>
LayerCount: 2
Fore
SplineSet
113 41 m 0
 113 68 139 96 166 96 c 0
 191 96 215 66 215 43 c 0
 215 6 191 -8 158 -8 c 0
 133 -8 113 18 113 41 c 0
EndSplineSet
EndChar

StartChar: slash
Encoding: 47 47 14
Width: 559
Flags: W
HStem: -6 21G<100 127.5>
VStem: 86 393
LayerCount: 2
Fore
SplineSet
479 1505 m 0
 479 1489 442 1337 438 1317 c 0
 364 977 285 641 207 299 c 2
 166 121 l 2
 156 78 149 -2 106 -6 c 1
 94 2 86 17 86 31 c 0
 86 129 131 268 158 387 c 0
 238 741 322 1096 414 1448 c 0
 418 1460 433 1532 449 1532 c 0
 465 1532 479 1523 479 1505 c 0
EndSplineSet
EndChar

StartChar: zero
Encoding: 48 48 15
Width: 606
Flags: W
HStem: -14 47<290.294 384.23>
VStem: 100 56<788.463 1447.28> 115 61<782 1034.25 1041.11 1167.5> 469 49<218.232 871.333>
LayerCount: 2
Fore
SplineSet
322 -14 m 0xd0
 312 -14 266 6 256 12 c 0
 154 75 116 641 106 774 c 1
 115 782 l 1xb0
 113 928 l 1
 101 944 100 999 100 1036 c 0
 100 1145 102 1255 102 1364 c 1
 145 1442 103 1542 248 1542 c 0
 268 1542 297 1526 315 1516 c 0
 436 1442 437 1309 453 1184 c 0
 484 955 518 723 518 492 c 0
 518 363 508 -14 322 -14 c 0xd0
176 766 m 0
 176 760 176 754 176 746 c 0xb0
 176 588 180 33 340 33 c 0
 461 33 469 436 469 524 c 0
 469 655 453 954 406 1071 c 1
 406 1159 l 1
 351 1296 436 1472 217 1497 c 1
 149 1442 147 1413 147 1329 c 0
 147 1202 156 1073 156 946 c 0xd0
 156 885 176 827 176 766 c 0
EndSplineSet
EndChar

StartChar: one
Encoding: 49 49 16
Width: 606
Flags: W
HStem: 6 49<207 308.137 371 461.548> 1483 47<82.6685 227.777>
VStem: 254 37<1229.02 1449.47> 313 52<72 599.695>
LayerCount: 2
Fore
SplineSet
197 37 m 1
 207 57 l 1
 225 57 244 55 262 55 c 0
 301 55 313 72 313 111 c 0
 313 502 279 893 254 1284 c 1
 254 1307 256 1329 256 1354 c 0
 256 1420 244 1483 162 1483 c 0
 146 1483 131 1479 115 1479 c 0
 101 1479 80 1481 80 1501 c 0
 80 1530 233 1530 260 1530 c 0
 278 1530 293 1515 293 1497 c 1
 297 1497 l 1
 293 1477 291 1454 291 1434 c 0
 291 1305 322 1176 322 1047 c 0
 322 818 356 589 356 360 c 0
 356 352 354 342 352 334 c 1
 360 303 365 143 365 102 c 0
 365 92 362 82 362 72 c 1
 371 66 l 1
 402 66 432 72 463 72 c 0
 481 72 526 72 526 43 c 0
 526 18 499 14 481 14 c 0
 397 14 313 6 229 6 c 0
 211 6 197 19 197 37 c 1
EndSplineSet
EndChar

StartChar: two
Encoding: 50 50 17
Width: 571
Flags: W
HStem: -16 21G<116.5 179> 2 59<157.1 416> 1544 41<269.18 352.48>
VStem: 422 51<932.426 1362 1366 1456.61>
LayerCount: 2
Fore
SplineSet
78 25 m 1xb0
 137 99 149 190 188 274 c 0
 335 596 422 893 422 1249 c 0
 422 1335 420 1544 295 1544 c 1
 208 1505 243 1366 195 1366 c 0
 168 1366 168 1387 168 1407 c 0
 168 1466 202 1585 276 1585 c 0
 397 1585 467 1477 471 1366 c 1
 467 1362 l 1
 467 1313 473 1261 473 1212 c 0
 473 997 405 617 317 420 c 0
 286 350 156 96 154 41 c 1
 170 39 l 1
 244 53 334 57 416 61 c 1
 446 29 l 1
 428 2 l 1x70
 328 2 229 -16 129 -16 c 0
 104 -16 78 -2 78 25 c 1xb0
EndSplineSet
EndChar

StartChar: three
Encoding: 51 51 18
Width: 589
Flags: W
HStem: -2 39<270.845 368.687> 1374 21G<103 135.5> 1491 49<184.508 299.823>
VStem: 377 55<1015.03 1358.35> 455 55<132.757 566.016>
LayerCount: 2
Fore
SplineSet
195 74 m 1
 211 84 l 1
 244 82 270 53 299 37 c 1
 438 37 455 191 455 297 c 0
 455 485 450 697 315 844 c 1
 309 844 303 842 295 842 c 0
 283 842 268 844 256 850 c 1
 256 858 l 1
 246 868 l 1
 248 893 377 983 377 1130 c 0
 377 1214 367 1491 246 1491 c 0
 146 1491 160 1374 111 1374 c 0
 95 1374 78 1387 76 1403 c 1
 113 1479 160 1540 252 1540 c 0
 287 1540 324 1518 344 1491 c 1
 350 1489 l 1
 420 1387 432 1223 432 1102 c 0
 432 1061 415 1022 395 987 c 1
 379 975 348 912 328 889 c 1
 469 834 465 631 494 508 c 0
 510 438 510 441 510 367 c 0
 510 236 504 -2 322 -2 c 0
 279 -2 195 21 195 74 c 1
EndSplineSet
EndChar

StartChar: four
Encoding: 52 52 19
Width: 526
Flags: W
HStem: -25 21G<301 358.4> 518 45<158.812 280.124> 1539 20G<139 155>
VStem: 100 58<563.018 611.061 653 716.062> 111 47<657.938 1104> 131 51<846 1289.16 1297.08 1557.87> 250 57<905.501 1190> 266 53<630.268 1185.42> 293 47<117.656 528.79> 301 64<0 29 68.4768 495.632>
LayerCount: 2
Fore
SplineSet
301 61 m 1xe040
 299 66 l 1
 305 91 307 114 307 139 c 0xe2
 307 209 293 278 293 348 c 0
 293 379 297 409 297 440 c 0
 297 460 296 520 276 530 c 1
 235 530 197 518 156 518 c 0
 123 518 125 523 100 541 c 1
 100 547 l 2xf080
 100 570 107 592 111 612 c 1
 92 653 l 1
 92 688 111 719 111 754 c 0xe8
 111 887 131 1022 131 1155 c 2
 131 1481 l 2
 131 1497 123 1516 123 1532 c 0
 123 1548 131 1559 147 1559 c 0
 163 1559 184 1550 184 1530 c 0
 184 1475 176 1421 176 1366 c 0
 176 1343 178 1319 182 1296 c 1
 178 1290 l 1
 180 1272 182 1253 182 1233 c 0xe4
 182 1061 158 889 158 717 c 0xe8
 158 697 172 677 172 657 c 0
 172 637 158 622 158 602 c 0
 158 588 158 563 178 563 c 0
 201 563 263 572 281 582 c 1
 281 729 272 877 266 1024 c 0xf1
 264 1079 250 1133 250 1188 c 0
 250 1206 275 1212 289 1212 c 1
 307 1190 l 1xe2
 307 1094 319 997 319 901 c 0xe1
 319 860 326 596 340 582 c 1
 365 582 389 590 416 590 c 0
 430 590 455 587 455 567 c 0
 455 514 340 576 340 498 c 0xe080
 340 451 348 177 358 152 c 1
 356 144 356 131 356 117 c 0
 356 99 359 78 365 68 c 1
 358 43 l 1
 365 29 l 1
 365 0 l 1
 332 -25 l 1
 301 -12 l 1
 301 61 l 1xe040
EndSplineSet
EndChar

StartChar: five
Encoding: 53 53 20
Width: 569
Flags: W
HStem: -20 38<252.843 343.498> 1540 47<262 305>
VStem: 88 64<1313.52 1544> 434 51<166.981 689.567>
LayerCount: 2
Fore
SplineSet
213 12 m 0
 213 32 238 35 252 35 c 0
 270 35 287 18 305 18 c 0
 395 18 434 260 434 328 c 0
 434 430 422 952 285 952 c 2
 238 952 l 1
 229 946 l 1
 227 946 225 948 223 948 c 0
 209 948 190 930 178 930 c 0
 119 930 133 987 127 1026 c 1
 133 1061 137 1095 137 1130 c 0
 137 1275 92 1420 88 1565 c 1
 109 1585 l 1
 266 1587 l 1
 270 1587 l 2
 291 1587 328 1586 328 1559 c 1
 305 1540 l 1
 262 1540 l 1
 256 1536 l 1
 174 1546 l 1
 160 1542 l 1
 152 1544 l 1
 152 1478 162 1413 166 1350 c 0
 174 1235 183 1121 193 1006 c 1
 191 1006 190 1004 190 1004 c 1
 190 1000 330 994 367 967 c 0
 455 901 485 547 485 438 c 0
 485 286 484 62 330 -20 c 1
 319 -20 l 2
 318 -20 316 -20 314 -20 c 0
 286 -20 213 -19 213 12 c 0
152 1337 m 1
 150 1337 150 1337 150 1335 c 1
 152 1337 l 1
EndSplineSet
EndChar

StartChar: six
Encoding: 54 54 21
Width: 516
Flags: W
HStem: -29 41<246.789 351.235> 868 45<188.172 258.118> 1549 20G<199.5 301>
VStem: 100 54<416.614 837.35 897 1201.91> 383 49<42.8039 553.013>
LayerCount: 2
Fore
SplineSet
291 -29 m 0
 123 -29 147 258 131 369 c 0
 111 514 100 660 100 807 c 2
 100 816 l 2
 100 969 102 1569 297 1569 c 0
 305 1569 322 1560 322 1550 c 0
 322 1521 270 1513 252 1497 c 1
 178 1438 156 1003 154 897 c 1
 166 905 185 913 199 913 c 0
 430 913 432 334 432 170 c 0
 432 70 416 -29 291 -29 c 0
154 758 m 0
 154 748 154 738 154 728 c 0
 154 539 172 353 205 166 c 1
 215 100 211 12 307 12 c 0
 381 12 383 123 383 174 c 0
 383 291 375 868 215 868 c 1
 174 841 154 807 154 758 c 0
EndSplineSet
EndChar

StartChar: seven
Encoding: 55 55 22
Width: 450
Flags: W
HStem: -27 21G<89.2609 128.5> 1528 39<115 319>
VStem: 86 74<-4 85.7188> 307 43<1315.67 1523.93>
LayerCount: 2
Fore
SplineSet
86 -4 m 1
 86 47 111 94 123 143 c 0
 205 493 227 856 272 1212 c 0
 284 1312 307 1414 307 1516 c 0
 307 1528 246 1528 236 1528 c 0
 195 1528 156 1522 115 1522 c 1
 84 1542 l 1
 102 1561 l 1
 174 1561 247 1567 319 1567 c 0
 339 1567 359 1548 365 1530 c 1
 349 1487 354 1440 350 1395 c 0
 338 1252 189 131 158 86 c 1
 160 80 160 74 160 70 c 0
 160 41 146 -25 111 -27 c 1
 86 -4 l 1
EndSplineSet
EndChar

StartChar: eight
Encoding: 56 56 23
Width: 524
Flags: W
HStem: -78 39<234.232 338.658> 1563 47<186.285 268.51>
VStem: 88 51<1268.5 1545.17> 133 47<70.416 531.26> 229 54<785.625 993.753> 307 47<1116.75 1508.05> 395 49<45.1861 359.515>
LayerCount: 2
Fore
SplineSet
133 186 m 0xde
 133 374 152 572 199 756 c 0
 209 793 229 829 229 868 c 0
 229 891 190 1003 182 1030 c 0
 145 1143 88 1325 88 1442 c 0xee
 88 1518 115 1610 207 1610 c 2
 244 1610 l 1
 271 1596 301 1590 315 1559 c 0
 342 1498 354 1399 354 1331 c 0
 354 1222 333 1114 313 1008 c 0
 307 981 283 888 283 868 c 0
 283 852 303 813 309 795 c 0
 375 596 444 333 444 104 c 0
 444 88 438 71 438 55 c 0
 438 51 438 49 440 45 c 1
 401 -31 364 -78 272 -78 c 0
 163 -78 133 104 133 186 c 0xde
205 53 m 1
 207 18 229 -39 272 -39 c 0
 366 -39 395 39 395 119 c 0
 395 273 358 448 317 598 c 0
 299 661 289 741 262 788 c 1
 199 700 180 291 180 168 c 0xde
 180 131 193 94 207 59 c 1
 205 53 l 1
139 1438 m 0xee
 139 1372 203 996 246 969 c 1
 283 1088 307 1210 307 1335 c 0
 307 1382 299 1565 233 1565 c 0
 227 1565 219 1563 211 1563 c 0
 203 1563 192 1565 186 1569 c 1
 145 1536 139 1487 139 1438 c 0xee
EndSplineSet
EndChar

StartChar: nine
Encoding: 57 57 24
Width: 509
Flags: W
HStem: -47 21G<319 351.5> 948 53<244.724 344> 1563 39<178.045 321.899>
VStem: 36 54<1221.7 1459.94> 348 41<59.3899 947.461> 356 50<597.217 948 1001 1534.38>
LayerCount: 2
Fore
SplineSet
319 -27 m 1xf8
 337 24 338 101 338 156 c 0
 338 346 348 537 348 727 c 0xf8
 348 801 344 874 344 948 c 1
 330 944 l 1
 130 970 36 1151 36 1316 c 0
 36 1465 113 1602 258 1602 c 0
 295 1602 371 1581 391 1550 c 0
 405 1527 406 1262 406 1223 c 0xf4
 406 1143 403 1061 403 981 c 0
 403 952 389 928 389 899 c 0
 389 670 383 438 383 209 c 0
 383 158 369 108 369 57 c 0
 369 41 371 26 371 10 c 0
 371 -13 367 -47 336 -47 c 1
 319 -27 l 1xf8
317 997 m 1
 346 1001 l 1
 354 1146 356 1295 356 1440 c 0xf4
 356 1508 338 1563 260 1563 c 0
 138 1563 90 1474 90 1366 c 0
 90 1208 193 1011 317 997 c 1
EndSplineSet
EndChar

StartChar: colon
Encoding: 58 58 25
Width: 344
Flags: W
HStem: 201 104<114.17 213.904> 975 104<134.17 234.861>
VStem: 113 102<201.895 303.972> 133 103<975.895 1077.97>
LayerCount: 2
Fore
SplineSet
113 250 m 0xe0
 113 277 139 305 166 305 c 0
 191 305 215 275 215 252 c 0
 215 215 191 201 158 201 c 0
 133 201 113 227 113 250 c 0xe0
133 1024 m 0xd0
 133 1051 159 1079 186 1079 c 0
 211 1079 236 1049 236 1026 c 0
 236 989 211 975 178 975 c 0
 153 975 133 1001 133 1024 c 0xd0
EndSplineSet
EndChar

StartChar: semicolon
Encoding: 59 59 26
Width: 391
Flags: W
HStem: -2 21G<94 168> 975 104<181.17 281.861>
VStem: 180 103<975.895 1077.97> 205 86<117.63 221.347>
LayerCount: 2
Fore
SplineSet
180 1024 m 0xe0
 180 1051 206 1079 233 1079 c 0
 258 1079 283 1049 283 1026 c 0
 283 989 258 975 225 975 c 0
 200 975 180 1001 180 1024 c 0xe0
94 14 m 1
 98 33 l 1
 139 72 205 119 205 182 c 1
 174 200 145 235 145 272 c 0
 145 311 188 336 223 336 c 0
 264 336 291 297 291 258 c 0xd0
 291 186 209 0 127 -2 c 1
 94 14 l 1
EndSplineSet
EndChar

StartChar: question
Encoding: 63 63 27
Width: 464
Flags: W
HStem: -8 104<169.17 268.904> 1533 45<171.13 273.352>
VStem: 94 51<1281.01 1512.45> 168 102<-7.10484 94.9718> 190 46<242 646.407> 313 54<1085.38 1488.68>
LayerCount: 2
Fore
SplineSet
109 1283 m 0xec
 100 1329 94 1373 94 1410 c 0
 94 1486 121 1578 213 1578 c 0
 265 1578 307 1565 324 1533 c 1
 353 1472 367 1373 367 1305 c 0
 367 982 236 854 236 357 c 0
 236 321 237 282 238 242 c 1
 238 246 225 236 213 236 c 0
 204 236 194 241 190 260 c 1
 190 445 201 638 229 819 c 1
 257 977 313 1136 313 1303 c 0
 313 1350 306 1533 240 1533 c 0
 234 1533 225 1533 217 1533 c 0
 154 1533 145 1464 145 1406 c 0
 145 1387 151 1340 160 1283 c 1
 160 1283 113 1264 109 1283 c 0xec
168 41 m 0xf4
 168 68 194 96 221 96 c 0
 246 96 270 66 270 43 c 0
 270 6 246 -8 213 -8 c 0
 188 -8 168 18 168 41 c 0xf4
EndSplineSet
EndChar

StartChar: at
Encoding: 64 64 28
Width: 1036
Flags: W
HStem: 39 47<373.248 583.113> 467 59<430.564 560.089> 565 60<764.507 836.024> 1409 55<430.293 558.75> 1774 59<333.047 609.576>
VStem: 92 72<618.239 1039.62 1040.94 1436.74> 284 82<617.071 1334.99> 874 70<662.594 1191.98>
LayerCount: 2
Fore
SplineSet
187 279 m 1
 185 310 170 331 160 360 c 0
 127 452 92 909 92 1024 c 0
 92 1176 96 1329 127 1479 c 0
 174 1712 230 1833 480 1833 c 0
 826 1833 870 1453 913 1174 c 0
 927 1084 944 993 944 903 c 0
 944 799 939 565 792 565 c 0
 741 565 727 606 689 616 c 1
 655 534 572 467 487 467 c 0
 297 467 284 778 284 954 c 0
 284 971 284 988 284 1006 c 0
 284 1196 293 1464 491 1464 c 0
 540 1464 591 1444 625 1405 c 0
 663 1362 717 788 729 686 c 1
 752 676 l 1
 758 664 779 625 795 625 c 0
 875 625 874 860 874 915 c 0
 874 1128 836 1349 760 1550 c 0
 701 1704 627 1774 470 1774 c 0
 227 1774 201 1585 189 1380 c 0
 185 1319 183 1243 160 1186 c 1
 162 1159 164 1133 164 1106 c 0
 164 1086 164 1060 156 1040 c 1
 160 1032 160 1022 160 1014 c 0
 160 897 175 785 187 668 c 1
 210 471 184 354 307 180 c 0
 340 133 383 86 439 86 c 0
 588 86 692 131 803 248 c 0
 813 258 834 283 848 287 c 1
 866 268 l 1
 825 125 569 39 446 39 c 0
 318 39 238 168 187 279 c 1
491 1409 m 0
 372 1409 366 1211 366 1094 c 2
 366 831 l 2
 366 702 374 526 502 526 c 0
 576 526 648 675 648 745 c 2
 648 899 l 2
 648 1012 624 1124 603 1233 c 0
 586 1319 587 1409 491 1409 c 0
EndSplineSet
EndChar

StartChar: A
Encoding: 65 65 29
Width: 696
Flags: W
HStem: 0 21G<535 566.5>
VStem: 77 64<6.39798 158.255> 506 84<0.0698547 324.656> 506 61<399.75 774.08>
LayerCount: 2
Fore
SplineSet
506 35 m 0xe0
 506 124 506 214 506 303 c 0xe0
 506 344 269 369 230 369 c 0
 214 369 150 54 141 20 c 0
 138 9 129 5 119 5 c 0
 100 5 77 20 77 39 c 0
 77 41 78 43 78 45 c 0
 88 84 154 383 174 471 c 0
 235 737 267 1008 326 1274 c 0
 334 1313 385 1536 422 1536 c 0
 442 1536 457 1532 469 1516 c 1
 489 1485 533 1010 539 940 c 2
 567 600 l 1xd0
 567 422 590 244 590 66 c 0
 590 63 590 60 590 57 c 0
 590 24 588 0 545 0 c 0
 525 0 506 15 506 35 c 0xe0
231 426 m 1
 290 406 375 397 438 397 c 0
 445 397 455 396 464 396 c 0
 484 396 504 399 504 416 c 0
 504 723 448 1272 435 1389 c 0
 433 1405 427 1420 427 1436 c 1
 408 1382 392 1298 383 1253 c 1
 370 1178 324 859 279 664 c 1
 263 590 231 514 231 438 c 2
 231 426 l 1
EndSplineSet
EndChar

StartChar: B
Encoding: 66 66 30
Width: 616
Flags: W
HStem: -12 80<190 311.302> 1466 70<135.5 307.404>
VStem: 109 63<384.187 792.999 887 1460.22> 113 77<70 776.751> 395 54<1103.98 1363.41> 457 57<236.349 621.929>
LayerCount: 2
Fore
SplineSet
113 16 m 0xdc
 113 188 123 363 123 535 c 0
 123 820 109 1104 109 1389 c 0xec
 109 1424 109 1536 162 1536 c 0
 357 1536 449 1394 449 1214 c 0
 449 1087 391 974 317 874 c 1
 462 731 514 617 514 433 c 0
 514 187 484 100 274 8 c 1
 245 6 222 -12 193 -12 c 0
 192 -12 191 -12 189 -12 c 0
 166 -12 113 -11 113 16 c 0xdc
190 70 m 1xdc
 194 70 199 68 203 68 c 0
 344 68 457 211 457 371 c 0
 457 518 441 745 281 811 c 1
 246 809 215 794 180 788 c 1
 188 548 190 310 190 70 c 1xdc
180 887 m 1
 182 887 186 885 186 885 c 1
 317 885 395 1133 395 1268 c 0
 395 1356 319 1466 225 1466 c 0
 178 1466 172 1413 172 1378 c 0xec
 172 1214 180 1051 180 887 c 1
EndSplineSet
EndChar

StartChar: C
Encoding: 67 67 31
Width: 696
Flags: W
HStem: -33 80<276.228 532.435> 1495 70<265.607 495.8>
VStem: 94 54<513.066 1319.83>
LayerCount: 2
Fore
SplineSet
96 877 m 0
 96 950 94 1022 94 1090 c 0
 94 1355 123 1565 406 1565 c 0
 445 1565 524 1536 524 1489 c 0
 524 1471 506 1466 492 1466 c 0
 466 1466 426 1495 389 1495 c 0
 177 1495 148 1289 148 1081 c 0
 148 1004 152 927 152 860 c 0
 152 747 191 197 236 127 c 0
 273 70 347 47 410 47 c 0
 463 47 518 65 553 106 c 1
 563 121 578 132 591 132 c 0
 602 132 610 124 610 102 c 0
 610 -2 465 -33 383 -33 c 0
 301 -33 205 43 172 115 c 0
 133 199 96 756 96 877 c 0
EndSplineSet
EndChar

StartChar: D
Encoding: 68 68 32
Width: 702
Flags: W
HStem: -4 104<211 257.498> 1473 73<164.505 342.028>
VStem: 82 80<1108.27 1521.5> 111 51<1060.9 1469.75> 127 53<718.5 1247.16> 147 64<100.582 699.691> 535 62<581.478 1174.94>
LayerCount: 2
Fore
SplineSet
115 37 m 0xe2
 115 66 148 90 147 119 c 2xc6
 141 299 l 1
 127 858 l 1xca
 122 896 124 1305 111 1391 c 0xd2
 106 1426 82 1460 82 1497 c 0
 82 1546 199 1546 236 1546 c 2
 246 1546 l 2
 587 1546 597 988 597 837 c 0
 597 592 488 218 332 90 c 0
 293 59 213 -4 190 -4 c 0
 165 -4 115 8 115 37 c 0xe2
211 100 m 1
 221 100 l 1
 491 243 535 681 535 874 c 0
 535 1132 492 1473 205 1473 c 0
 189 1473 162 1473 162 1450 c 0xe2
 162 1335 180 1223 180 1110 c 0xca
 180 848 211 588 211 330 c 2
 211 100 l 1
EndSplineSet
EndChar

StartChar: E
Encoding: 69 69 33
Width: 497
Flags: W
HStem: -12 74<188.121 417.544> 776 60<183.116 335.904> 1464 78<188.381 345.967>
VStem: 119 227<776 835.525 1468.02 1541.5> 123 60<61 776 835.999 1468>
LayerCount: 2
Fore
SplineSet
124 33 m 0xe8
 124 60 123 82 123 109 c 2
 123 113 l 1
 125 412 l 1
 123 1257 l 2xe8
 123 1329 121 1413 119 1485 c 0
 119 1514 131 1542 156 1542 c 2
 283 1542 l 2
 312 1542 346 1542 346 1503 c 0xf0
 346 1464 301 1464 272 1464 c 0
 254 1464 224 1468 206 1468 c 0
 190 1468 182 1467 182 1444 c 0
 182 1327 183 1213 183 1096 c 2
 183 840 l 2
 183 834 185 836 191 836 c 0
 230 838 263 840 302 840 c 0
 328 840 336 826 336 810 c 0
 336 785 328 776 305 776 c 2
 188 776 l 2
 183 776 180 775 180 766 c 0
 180 571 188 358 188 137 c 0
 188 112 188 86 188 61 c 1
 229 61 321 62 362 62 c 0
 367 62 373 62 380 62 c 0
 398 62 418 59 418 35 c 0
 418 -9 403 -12 299 -12 c 0
 281 -12 260 -12 236 -12 c 0
 228 -12 220 -12 212 -12 c 0
 164 -12 124 -9 124 33 c 0xe8
EndSplineSet
EndChar

StartChar: F
Encoding: 70 70 34
Width: 438
Flags: W
HStem: -4 21G<164.5 194.5> 1483 66<156.113 317.203>
VStem: 92 64<1121.24 1483> 121 65<412.8 785.209 844 1211.17> 147 78<-3.65747 60.532 72 481.552>
LayerCount: 2
Fore
SplineSet
180 -4 m 0xc8
 149 -4 147 26 147 49 c 2
 147 201 l 2xc8
 147 240 121 612 121 819 c 0xd0
 121 915 92 1498 92 1512 c 2
 92 1525 l 2
 92 1546 118 1549 183 1549 c 0
 210 1549 244 1548 285 1548 c 0
 310 1548 319 1521 319 1501 c 0
 319 1481 293 1481 281 1481 c 0
 269 1481 199 1483 181 1483 c 0
 162 1483 156 1482 156 1443 c 0xe0
 156 1398 186 892 186 844 c 1
 233 844 277 868 324 868 c 0
 342 868 356 843 356 827 c 0
 356 768 186 811 186 762 c 0xd0
 186 531 225 303 225 72 c 1
 219 61 l 1
 223 51 225 42 225 34 c 0
 225 11 209 -4 180 -4 c 0xc8
EndSplineSet
EndChar

StartChar: G
Encoding: 71 71 35
Width: 774
Flags: W
HStem: -33 58<337.793 521.493> 391 72<422.612 573.272> 1522 49<314.979 478.893>
VStem: 94 69<472.406 1235.25> 600 76<-19.0953 35 80.8688 312.501>
LayerCount: 2
Fore
SplineSet
94 877 m 0
 94 1100 103 1571 420 1571 c 3
 443 1571 481 1567 481 1536 c 0
 481 1516 469 1511 451 1511 c 0
 431 1511 413 1522 393 1522 c 3
 151 1522 168 989 164 827 c 0
 163 794 163 756 163 715 c 0
 163 436 206 25 426 25 c 3
 506 25 557 61 600 127 c 1
 600 166 594 391 547 391 c 0
 520 391 494 383 465 383 c 0
 442 383 418 389 418 418 c 0
 418 447 546 463 571 463 c 0
 620 463 635 418 635 377 c 0
 635 254 676 135 676 12 c 0
 676 -4 669 -20 649 -20 c 0
 620 -20 600 -6 600 25 c 0
 600 27 602 33 602 35 c 1
 524 -10 455 -33 396 -33 c 3
 187 -33 94 255 94 877 c 0
EndSplineSet
EndChar

StartChar: H
Encoding: 72 72 36
Width: 602
Flags: W
HStem: -8 9G<177 196 441.5 465> 770 35<172.177 404.254> 771 50<176.746 408> 1533 20G<113.5 126.5 411 426.5>
VStem: 94 51<1152.61 1552.99> 154 53<-7.61603 404.571> 391 62<1139.91 1544.74> 426 57<-19.9825 432.647>
LayerCount: 2
Fore
SplineSet
455 -20 m 0xbd
 428 -20 426 -6 426 12 c 0
 426 28 428 43 428 59 c 0
 428 292 420 538 408 771 c 1
 395 771 l 2xbd
 370 771 342 770 317 770 c 0
 268 770 197 769 172 763 c 1
 172 525 207 261 207 23 c 0
 207 7 206 -8 186 -8 c 0
 168 -8 154 1 154 20 c 0
 154 66 139 494 131 598 c 0
 108 909 94 1221 94 1532 c 0
 94 1546 107 1553 120 1553 c 0
 133 1553 147 1545 145 1526 c 1
 145 1374 l 2
 145 1235 162 1097 162 958 c 2
 162 858 l 2
 162 833 164 805 173 805 c 0xdd
 253 805 328 821 408 821 c 1
 410 825 l 1
 410 1056 391 1289 391 1520 c 0
 391 1537 404 1545 418 1545 c 0
 435 1545 453 1535 453 1518 c 0xbe
 453 885 483 293 483 49 c 2
 483 20 l 2
 483 4 475 -20 455 -20 c 0xbd
EndSplineSet
EndChar

StartChar: I
Encoding: 73 73 37
Width: 477
Flags: W
HStem: 10 60<88.3642 202 268 387.909> 1484 64<76.0975 172.18 219.012 341.917>
VStem: 172 47<1101.32 1483.83> 202 68<71 466.07>
LayerCount: 2
Fore
SplineSet
202 70 m 1xd0
 202 429 181 765 172 1114 c 1
 172 1159 174 1266 174 1354 c 0
 174 1407 174 1464 168 1484 c 1
 98 1484 l 2
 80 1484 76 1499 76 1513 c 0
 76 1543 90 1548 169 1548 c 0
 202 1548 246 1547 305 1547 c 0
 323 1547 342 1538 342 1518 c 0
 342 1504 335 1485 317 1485 c 0
 299 1485 282 1487 268 1487 c 0
 235 1487 219 1487 219 1474 c 0xe0
 219 1083 270 577 270 184 c 0
 270 149 268 106 268 71 c 1
 342 71 l 2
 376 71 388 57 388 42 c 0
 388 26 374 8 360 8 c 0
 274 8 224 10 124 10 c 0
 102 10 88 28 88 44 c 0
 88 58 98 70 122 70 c 2
 202 70 l 1xd0
EndSplineSet
EndChar

StartChar: J
Encoding: 74 74 38
Width: 468
Flags: W
HStem: 1489 65<72.2159 223 285 386.953>
VStem: 223 62<1106.03 1489> 266 64<4.4184 656.896>
LayerCount: 2
Fore
SplineSet
102 -160 m 1xa0
 104 -133 158 -110 176 -92 c 0
 258 -10 266 135 266 221 c 0xa0
 266 414 248 608 244 801 c 0
 239 1026 223 1261 223 1489 c 1
 186 1489 137 1485 100 1485 c 0
 84 1485 72 1500 72 1516 c 0
 72 1548 88 1554 167 1554 c 0
 209 1554 269 1552 354 1552 c 0
 372 1552 387 1538 387 1520 c 0
 387 1492 371 1489 331 1489 c 0
 318 1489 303 1489 285 1489 c 1xc0
 285 1077 330 451 330 305 c 0
 330 75 318 -79 145 -199 c 1
 118 -199 102 -187 102 -160 c 1xa0
EndSplineSet
EndChar

StartChar: K
Encoding: 75 75 39
Width: 690
Flags: W
HStem: -26 21G<123.5 154 563.5 577.5>
VStem: 105 67<-25.9839 817.573 864 1539.71>
LayerCount: 2
Fore
SplineSet
279 884 m 1
 265 919 l 1
 256 902 189 792 172 763 c 1
 172 73 l 2
 172 59 172 46 172 34 c 0
 172 -4 169 -26 139 -26 c 0
 108 -26 105 -5 105 38 c 2
 105 657 l 2
 105 901 114 1199 114 1443 c 0
 114 1496 116 1540 141 1540 c 0
 182 1540 185 1526 185 1453 c 0
 185 1281 178 911 178 864 c 1
 180 864 l 1
 250 1011 304 1163 367 1313 c 1
 383 1354 479 1597 512 1597 c 0
 530 1597 547 1587 547 1567 c 1
 541 1518 512 1489 494 1448 c 0
 455 1364 341 1082 303 993 c 0
 299 983 299 978 305 969 c 1
 432 647 551 190 602 12 c 0
 604 7 605 2 605 -2 c 0
 605 -22 586 -32 569 -32 c 0
 558 -32 548 -28 545 -19 c 0
 508 100 330 737 279 884 c 1
EndSplineSet
EndChar

StartChar: L
Encoding: 76 76 40
Width: 475
Flags: W
HStem: -11 79<204.083 392.917> 1554 20G<121 139.5>
VStem: 98 66<1148.77 1573.95> 119 63<293.999 1095.23> 139 66<68 474.017>
LayerCount: 2
Fore
SplineSet
138 31 m 0xc8
 138 49 139 72 139 113 c 0xc8
 139 306 119 499 119 694 c 0xd0
 119 979 98 1265 98 1550 c 0
 98 1566 114 1574 128 1574 c 0
 151 1574 164 1568 164 1545 c 0xe0
 164 1359 164 1163 172 977 c 1
 182 610 l 1xd0
 182 454 201 231 205 75 c 0
 205 68 210 68 239 68 c 2
 365 68 l 2
 388 68 393 49 393 31 c 0
 393 15 386 -9 368 -9 c 0
 360 -9 349 -11 337 -11 c 0
 273 -12 187 -12 172 -12 c 0
 152 -12 138 8 138 31 c 0xc8
EndSplineSet
EndChar

StartChar: M
Encoding: 77 77 41
Width: 856
Flags: W
HStem: -47 21G<691.5 721.5> 1541 20G<138 149.5 664.5 679>
VStem: 106 64<60.0916 1317 1411.5 1559.9> 637 63<1349.44 1565.66> 653 47<948.179 1282> 668 75<-46.6562 607.005>
LayerCount: 2
Fore
SplineSet
668 10 m 2xe4
 668 197 l 2xe4
 668 422 653 645 653 870 c 0xe8
 653 946 657 1024 657 1100 c 0
 657 1161 651 1221 649 1282 c 1
 645 1278 646 1274 645 1268 c 0
 605 1011 520 570 502 483 c 0
 495 450 472 338 465 296 c 0
 459 260 438 238 418 238 c 0
 399 238 380 258 375 302 c 0
 363 392 190 1292 172 1317 c 1
 166 1178 164 1040 164 903 c 0
 164 686 170 469 170 252 c 0
 170 186 180 123 180 57 c 0
 180 34 180 20 164 4 c 1
 113 4 106 62 106 111 c 2
 106 453 l 2
 106 590 109 729 109 868 c 0
 109 1030 115 1192 115 1354 c 0
 115 1410 115 1515 115 1533 c 0
 115 1548 131 1561 145 1561 c 0
 154 1561 162 1556 166 1544 c 0
 186 1479 314 971 369 717 c 0
 383 654 423 413 429 376 c 1
 441 438 482 692 492 739 c 0
 527 907 555 1073 586 1241 c 0
 604 1341 632 1490 637 1523 c 0
 642 1552 657 1566 672 1566 c 0
 686 1566 700 1553 700 1528 c 2xf0
 700 1325 l 2xe8
 700 1016 733 706 733 399 c 0
 733 273 743 198 743 24 c 0
 743 -42 730 -47 713 -47 c 0
 670 -47 668 -20 668 10 c 2xe4
EndSplineSet
EndChar

StartChar: N
Encoding: 78 78 42
Width: 772
Flags: W
HStem: 0 21G<123 190 551.5 594.5> 1532 20G<155.5 181>
VStem: 122 58<16 1426> 586 56<152.56 1592.98>
LayerCount: 2
Fore
SplineSet
182 1426 m 1
 180 1406 180 1361 180 1341 c 0
 180 1094 180 847 180 600 c 0
 180 403 190 213 190 16 c 1
 176 0 l 1
 129 0 l 1
 123 16 l 1
 127 32 127 80 127 98 c 0
 127 336 122 573 122 811 c 2
 122 1079 l 2
 122 1208 119 1337 119 1466 c 0
 119 1480 117 1495 117 1509 c 0
 117 1546 139 1552 172 1552 c 0
 190 1552 214 1532 219 1513 c 0
 246 1404 278 1232 311 1096 c 0
 341 972 410 723 459 539 c 1
 480 452 525 272 565 150 c 1
 577 177 578 219 578 248 c 0
 578 486 586 723 586 961 c 0
 586 1067 589 1172 589 1278 c 2
 587 1567 l 1
 593 1587 609 1595 629 1595 c 0
 642 1595 645 1566 645 1535 c 0
 645 1506 642 1475 642 1460 c 2
 642 1329 l 2
 642 1000 637 685 637 360 c 0
 637 255 627 142 627 37 c 0
 627 2 614 -23 575 -23 c 0
 528 -23 527 63 518 94 c 0
 473 256 307 846 266 1016 c 0
 238 1133 195 1361 182 1426 c 1
EndSplineSet
EndChar

StartChar: O
Encoding: 79 79 43
Width: 696
Flags: W
HStem: -43 57<325.094 427.779> 1518 53<251.461 367.996>
VStem: 91 61<557.912 1320.59> 526 60<264.014 1016.32>
LayerCount: 2
Fore
SplineSet
91 1025 m 0
 91 1272 114 1571 293 1571 c 0
 474 1571 515 1399 537 1239 c 0
 566 1032 586 827 586 618 c 0
 586 412 587 -43 375 -43 c 0
 104 -43 91 637 91 942 c 0
 91 974 91 1002 91 1025 c 0
303 1518 m 0
 156 1518 152 1059 152 931 c 0
 152 923 152 916 152 911 c 2
 152 831 l 2
 152 690 193 14 379 14 c 0
 522 14 526 540 526 653 c 2
 526 662 l 2
 526 834 524 1518 303 1518 c 0
EndSplineSet
EndChar

StartChar: P
Encoding: 80 80 44
Width: 540
Flags: W
HStem: -12 21G<143.5 176.5> 1505 60<156 260.728>
VStem: 113 43<1122.16 1505> 125 59<324.858 731.506 805 1155.48> 131 70<-11.004 461.667> 383 57<1010.88 1352.31>
LayerCount: 2
Fore
SplineSet
156 -12 m 0xe4
 131 -12 131 45 131 59 c 0xcc
 131 182 125 303 125 426 c 0xd4
 125 537 123 647 123 758 c 0
 123 928 119 1098 113 1266 c 0xe4
 109 1352 105 1500 105 1536 c 1
 117 1554 120 1565 143 1565 c 0
 346 1565 440 1364 440 1186 c 0
 440 1021 348 761 184 725 c 1xd4
 184 500 201 276 201 51 c 0xcc
 201 18 197 -12 156 -12 c 0xe4
156 1505 m 1xe4
 156 1272 180 1038 180 805 c 1
 184 801 l 1xd4
 215 803 230 828 250 848 c 0
 348 946 383 1053 383 1182 c 0
 383 1321 335 1505 156 1505 c 1xe4
EndSplineSet
EndChar

StartChar: Q
Encoding: 81 81 45
Width: 727
Flags: W
HStem: -283 66<515.417 644.421> 27 53<301.092 399.865> 1520 57<261.203 387.442>
VStem: 95 59<327.331 1101.8> 516 72<488.18 1006.68>
LayerCount: 2
Fore
SplineSet
567 -283 m 0
 553 -283 522 -262 506 -256 c 0
 420 -219 424 -63 397 27 c 1
 108 27 96 381 96 573 c 0
 96 631 95 697 95 765 c 0
 95 1127 111 1577 307 1577 c 0
 403 1577 516 1485 532 1391 c 0
 577 1137 588 852 588 594 c 0
 588 369 556 189 461 53 c 1
 463 28 475 9 481 -14 c 0
 497 -73 479 -217 573 -217 c 0
 575 -217 578 -217 581 -217 c 0
 603 -217 645 -219 645 -244 c 0
 645 -283 594 -283 567 -283 c 0
154 676 m 2
 154 590 l 2
 154 457 187 80 373 80 c 0
 474 80 516 329 516 887 c 0
 516 904 516 922 516 941 c 0
 516 1161 508 1520 303 1520 c 0
 169 1520 154 900 154 713 c 0
 154 698 154 685 154 676 c 2
EndSplineSet
EndChar

StartChar: R
Encoding: 82 82 46
Width: 591
Flags: W
HStem: -14 21G<131 155.5 462.5 485> 1492 64<173 242.659>
VStem: 106 72<-13.9883 453.737> 121 52<928.351 1491> 317 68<1047.44 1392.38>
LayerCount: 2
Fore
SplineSet
424 20 m 1xd8
 414 62 344 295 315 432 c 1
 284 571 259 733 222 870 c 1
 213 866 186 848 174 846 c 1
 178 57 l 1
 178 27 l 2
 178 2 170 -14 141 -14 c 0
 121 -14 106 0 106 20 c 2
 106 51 l 2xe8
 106 465 121 860 121 1274 c 2
 121 1538 l 2
 121 1554 144 1556 158 1556 c 0
 314 1556 385 1383 385 1231 c 0
 385 1161 369 1092 344 1026 c 1
 336 1001 304 926 282 902 c 1
 297 846 476 147 502 47 c 0
 504 40 505 32 505 24 c 0
 505 1 495 -20 475 -20 c 0
 450 -20 432 -8 424 20 c 1xd8
173 1491 m 1xd8
 173 913 l 1
 202 913 269 994 283 1018 c 1
 306 1061 317 1157 317 1206 c 0
 317 1287 287 1492 183 1492 c 0
 180 1492 176 1491 173 1491 c 1xd8
EndSplineSet
EndChar

StartChar: S
Encoding: 83 83 47
Width: 569
Flags: W
HStem: -45 45<143.791 277.062> 1520 53<253.612 380.209>
VStem: 104 70<1099.72 1441.35> 397 74<146.091 567.879>
LayerCount: 2
Fore
SplineSet
309 1573 m 0
 332 1573 404 1546 404 1515 c 0
 404 1505 397 1499 391 1499 c 0
 364 1499 352 1520 324 1520 c 0
 220 1520 174 1391 174 1305 c 0
 174 946 471 725 471 330 c 0
 471 183 393 -45 215 -45 c 0
 166 -45 107 -43 80 6 c 1
 80 20 84 31 102 31 c 0
 143 31 176 0 215 0 c 0
 350 0 397 238 397 340 c 0
 397 721 104 926 104 1288 c 0
 104 1407 168 1573 309 1573 c 0
EndSplineSet
EndChar

StartChar: T
Encoding: 84 84 48
Width: 542
Flags: W
HStem: -12 21G<297.5 327.5> 1474 72<70.02 260.706 332.994 464.984>
VStem: 272 69<-11.5194 1474>
LayerCount: 2
Fore
SplineSet
271 40 m 0
 272 96 272 160 272 223 c 0
 272 286 272 350 272 406 c 0
 272 623 262 842 262 1061 c 0
 262 1104 264 1112 264 1253 c 0
 264 1351 260 1474 259 1474 c 2
 113 1474 l 2
 95 1474 70 1482 70 1505 c 0
 70 1536 64 1546 422 1546 c 0
 460 1546 465 1531 465 1511 c 0
 465 1486 449 1481 426 1481 c 0
 403 1481 373 1480 350 1480 c 0
 324 1480 333 1477 333 1478 c 1
 333 1440 341 1290 341 1200 c 2
 341 952 l 2
 341 940 341 381 341 368 c 0
 341 314 343 78 343 48 c 2
 343 42 l 2
 343 13 342 -12 313 -12 c 0
 282 -12 271 15 271 40 c 0
EndSplineSet
EndChar

StartChar: U
Encoding: 85 85 49
Width: 743
Flags: W
HStem: -39 66<331.844 487.54> 1535 20G<550 570>
VStem: 97 74<1051.45 1531.74> 520 80<748.716 1554.99> 547 61<99.8124 908.709>
LayerCount: 2
Fore
SplineSet
139 473 m 0xe8
 133 536 98 1122 98 1448 c 0
 98 1456 97 1467 97 1479 c 0
 97 1505 101 1532 129 1532 c 0
 166 1532 171 1509 171 1483 c 0
 171 1473 170 1462 170 1452 c 0
 170 1097 196 586 213 422 c 0
 224 312 269 27 404 27 c 0
 533 27 547 173 547 281 c 2
 547 514 l 2xe8
 547 732 529 1102 529 1159 c 0
 529 1276 520 1390 520 1507 c 0
 520 1539 540 1555 560 1555 c 0
 580 1555 600 1539 600 1507 c 2
 600 1352 l 2xf0
 600 1229 601 1106 601 983 c 0
 601 740 608 523 608 295 c 0
 608 168 583 -39 411 -39 c 0
 139 -39 143 428 139 473 c 0xe8
EndSplineSet
EndChar

StartChar: V
Encoding: 86 86 50
Width: 669
Flags: W
HStem: -18 21G<371 385> 1528 20G<107 133.5 541.5 565>
VStem: 344 70<-17.489 150.981> 502 80<1280.03 1530>
LayerCount: 2
Fore
SplineSet
344 -10 m 1
 307 137 285 292 262 442 c 1
 223 684 189 932 150 1174 c 0
 140 1233 99 1479 74 1526 c 1
 80 1544 99 1548 115 1548 c 0
 152 1548 156 1487 160 1462 c 0
 236 1056 268 645 362 242 c 1
 374 305 379 373 387 436 c 0
 420 723 454 1011 485 1298 c 0
 493 1370 502 1444 502 1516 c 2
 502 1524 l 1
 516 1538 530 1554 553 1554 c 1
 565 1546 l 1
 561 1546 l 1
 582 1530 l 1
 582 1444 553 1362 553 1276 c 1
 522 1221 416 160 414 27 c 1
 408 11 395 -18 375 -18 c 0
 367 -18 352 -12 344 -10 c 1
362 236 m 1
 358 231 l 1
 365 231 l 1
 362 236 l 1
EndSplineSet
EndChar

StartChar: W
Encoding: 87 87 51
Width: 950
Flags: W
HStem: -27 21G<284.5 334 627.5 671.5>
VStem: 266 92<-26.9477 332.746> 776 92<1520.38 1590.75> 778 70<1224.18 1530.62>
LayerCount: 2
Fore
SplineSet
313 -27 m 0xd0
 256 -27 270 27 266 64 c 0
 258 142 235 340 221 434 c 0
 198 581 105 1464 74 1513 c 1
 82 1527 101 1540 117 1540 c 0
 163 1540 170 1522 170 1493 c 0
 170 1481 169 1469 169 1454 c 0
 169 1447 169 1440 170 1432 c 0
 195 1166 272 575 303 309 c 1
 307 309 l 1
 320 412 339 673 353 838 c 1
 361 953 375 1069 387 1184 c 0
 392 1238 396 1308 399 1346 c 0
 401 1366 412 1378 428 1386 c 1
 477 1386 472 1354 479 1323 c 0
 496 1236 626 486 649 246 c 1
 655 242 l 1
 665 281 664 321 666 360 c 0
 678 567 719 774 731 981 c 0
 741 1155 778 1329 778 1503 c 0xd0
 778 1517 776 1530 776 1542 c 0
 776 1571 784 1591 829 1591 c 0
 845 1591 868 1577 868 1559 c 0xe0
 868 1545 856 1528 846 1520 c 1
 848 1516 848 1511 848 1507 c 0
 848 1491 842 1476 840 1462 c 0
 801 1138 762 648 743 496 c 1
 734 384 692 46 692 23 c 0
 692 -4 688 -27 655 -27 c 0
 600 -27 604 33 596 86 c 0
 561 322 487 881 458 1119 c 1
 452 1123 l 1
 452 1121 450 1121 450 1119 c 0
 434 940 377 272 358 78 c 1
 358 78 358 75 358 70 c 0
 358 45 355 -27 313 -27 c 0xd0
EndSplineSet
EndChar

StartChar: X
Encoding: 88 88 52
Width: 565
Flags: W
HStem: -12 21G<108 135.5> 1532 20G<414.5 445>
VStem: 393 70<27.0146 182.095>
LayerCount: 2
Fore
SplineSet
82 12 m 0
 82 39 110 135 120 170 c 0
 155 301 188 434 215 565 c 0
 231 645 254 739 254 821 c 0
 254 979 203 1134 172 1288 c 0
 158 1358 123 1423 121 1495 c 1
 127 1505 142 1522 154 1522 c 0
 205 1522 191 1467 197 1434 c 0
 222 1293 274 1067 297 922 c 1
 312 1032 354 1255 377 1380 c 0
 383 1415 391 1552 438 1552 c 0
 452 1552 475 1548 475 1530 c 0
 475 1501 457 1475 449 1448 c 0
 414 1327 390 1190 365 1061 c 0
 349 979 324 869 324 791 c 1
 432 238 l 1
 454 134 l 1
 454 126 463 96 463 70 c 0
 463 47 456 27 430 27 c 0
 412 27 393 28 393 53 c 0
 393 127 374 207 362 279 c 1
 339 396 318 514 289 629 c 1
 275 606 176 131 164 61 c 0
 158 24 158 -12 113 -12 c 0
 103 -12 82 0 82 12 c 0
EndSplineSet
EndChar

StartChar: Y
Encoding: 89 89 53
Width: 505
Flags: W
HStem: -25 21G<277.5 304.5> 1526 20G<106 139>
VStem: 231 84<422.579 462.576 472.844 731 762 952.488> 260 74<-24.1464 49 55 730.75 762 830.916>
LayerCount: 2
Fore
SplineSet
260 25 m 0xd0
 260 156 270 289 270 420 c 0
 270 475 256 531 256 586 c 0
 256 652 231 713 231 776 c 0
 231 813 207 901 199 938 c 0
 168 1088 143 1243 104 1380 c 0
 92 1419 74 1472 74 1513 c 0
 74 1536 97 1546 115 1546 c 1
 139 1530 l 1
 145 1438 229 985 268 930 c 5
 284 992 311 1540 389 1540 c 0
 407 1540 420 1541 420 1518 c 0
 420 1489 407 1463 403 1434 c 0
 370 1241 322 1030 322 829 c 0
 322 806 328 785 328 762 c 1
 315 731 l 1
 315 715 l 2xe0
 315 633 330 551 330 469 c 0
 330 332 330 192 326 55 c 1
 332 49 l 1
 332 45 334 39 334 35 c 0
 334 8 320 -25 289 -25 c 0
 266 -25 260 9 260 25 c 0xd0
EndSplineSet
EndChar

StartChar: Z
Encoding: 90 90 54
Width: 471
Flags: W
HStem: -18 57<152 352> 1489 53<98.3678 322.184> 1499 64<188.202 324>
VStem: 78 305
LayerCount: 2
Fore
SplineSet
78 8 m 1xb0
 176 182 164 408 203 588 c 1
 234 813 266 1043 297 1268 c 0
 307 1344 322 1423 324 1499 c 1xb0
 279 1499 233 1489 186 1489 c 0
 159 1489 94 1491 94 1530 c 1
 109 1546 l 1
 125 1542 142 1542 158 1542 c 0xd0
 224 1542 284 1563 350 1563 c 0
 373 1563 383 1546 383 1526 c 1
 352 1456 354 1321 342 1239 c 0
 293 891 256 541 199 195 c 0
 191 142 152 94 152 39 c 1
 197 39 240 49 285 49 c 0
 312 49 371 47 371 8 c 1
 352 -10 l 1
 270 -10 191 -18 109 -18 c 0
 91 -18 84 -8 78 8 c 1xb0
EndSplineSet
EndChar

StartChar: bracketleft
Encoding: 91 91 55
Width: 514
Flags: W
HStem: -88 74<147.371 346.533> 1501 51<234.237 429.15>
VStem: 88 64<2 296.781> 184 47<1102.02 1494.47>
LayerCount: 2
Fore
SplineSet
354 -68 m 0
 354 -84 331 -88 319 -88 c 0
 284 -88 88 -76 88 -35 c 0
 88 135 131 301 131 471 c 0
 131 809 184 1143 184 1481 c 0
 184 1499 168 1510 164 1528 c 1
 205 1552 l 1
 240 1550 440 1556 440 1511 c 0
 440 1497 420 1489 408 1489 c 0
 369 1489 332 1501 293 1501 c 0
 264 1501 231 1495 231 1458 c 0
 231 1100 201 731 178 371 c 0
 176 330 162 82 152 51 c 1
 152 2 l 1
 143 -14 l 1
 182 -22 354 -13 354 -68 c 0
EndSplineSet
EndChar

StartChar: backslash
Encoding: 92 92 56
Width: 559
Flags: W
HStem: -6 21G<433.5 461>
VStem: 82 393
LayerCount: 2
Fore
SplineSet
455 -6 m 1
 412 -2 405 78 395 121 c 2
 354 299 l 1
 274 641 189 977 123 1317 c 0
 119 1337 82 1489 82 1505 c 0
 82 1523 97 1532 113 1532 c 0
 129 1532 143 1460 147 1448 c 0
 239 1096 323 741 403 387 c 0
 430 266 475 129 475 31 c 0
 475 17 467 2 455 -6 c 1
EndSplineSet
EndChar

StartChar: bracketright
Encoding: 93 93 57
Width: 516
Flags: W
HStem: -88 74<171.467 370.629> 1491 61<82.9727 286.959>
VStem: 299 35<1116.82 1486.6> 367 63<2 335.357>
LayerCount: 2
Fore
SplineSet
164 -68 m 0
 164 -13 336 -22 375 -14 c 1
 367 2 l 1
 367 51 l 1
 342 106 303 1061 299 1204 c 0
 297 1288 287 1374 287 1458 c 0
 287 1485 281 1499 252 1499 c 0
 213 1499 176 1491 137 1491 c 0
 135 1491 131 1491 126 1491 c 0
 108 1491 78 1493 78 1511 c 0
 78 1556 278 1550 313 1552 c 1
 354 1528 l 1
 350 1510 334 1499 334 1481 c 0
 334 1157 389 834 389 510 c 0
 389 328 430 147 430 -35 c 0
 430 -76 234 -88 199 -88 c 0
 187 -88 164 -84 164 -68 c 0
EndSplineSet
EndChar

StartChar: asciicircum
Encoding: 94 94 58
Width: 319
Flags: W
HStem: 1538 94<117.831 206.857>
VStem: 117 90<1538.12 1631.63>
LayerCount: 2
Fore
SplineSet
117 1575 m 0
 117 1600 127 1632 156 1632 c 0
 185 1632 207 1612 207 1583 c 0
 207 1556 195 1538 166 1538 c 0
 141 1538 117 1546 117 1575 c 0
EndSplineSet
EndChar

StartChar: underscore
Encoding: 95 95 59
Width: 565
Flags: W
HStem: -50 41<3.75 557.926 558 609.407>
VStem: -0 620<-43.6679 -10.7729>
LayerCount: 2
Fore
SplineSet
620 -44 m 1
 558 -44 l 1
 558 -50 457 -50 344 -50 c 2
 42 -50 l 2
 22 -50 0 -38 -0 -15 c 0
 0 -9 139 -9 282 -9 c 2
 576 -9 l 2
 594 -9 620 -24 620 -44 c 1
EndSplineSet
EndChar

StartChar: grave
Encoding: 96 96 60
Width: 550
Flags: W
HStem: 1548 21G<411 418> 1618 86<104.033 206.531>
VStem: 104 334
LayerCount: 2
Fore
SplineSet
207 1622 m 1
 197 1620 186 1618 174 1618 c 0
 149 1618 104 1624 104 1659 c 0
 104 1671 105 1696 117 1704 c 1
 121 1704 126 1704 130 1704 c 0
 158 1704 192 1703 209 1681 c 1
 248 1667 438 1606 438 1565 c 0
 438 1555 422 1548 414 1548 c 0
 408 1548 219 1616 207 1622 c 1
EndSplineSet
EndChar

StartChar: a
Encoding: 97 97 61
Width: 667
Flags: W
HStem: -10 21G<115 145.5 534.5 559> 305 45<227.853 459> 1354 20G<386 399>
VStem: 502 67<-17.669 271.499>
LayerCount: 2
Fore
SplineSet
221 315 m 0
 205 315 209 307 205 299 c 1
 201 258 l 2
 197 219 168 -10 123 -10 c 0
 107 -10 82 7 82 25 c 0
 82 29 86 33 86 37 c 0
 145 270 180 507 219 743 c 0
 239 866 273 987 291 1112 c 0
 297 1157 312 1339 326 1364 c 1
 334 1364 344 1362 354 1362 c 0
 368 1362 381 1364 391 1374 c 1
 407 1374 428 1363 428 1343 c 0
 428 1212 443 1141 455 1010 c 0
 483 683 539 254 569 18 c 0
 569 16 569 14 569 12 c 0
 569 0 565 -11 553 -18 c 1
 516 -18 508 -18 502 27 c 0
 492 107 482 207 468 295 c 1
 437 303 398 305 367 305 c 0
 313 305 270 315 221 315 c 0
223 376 m 0
 223 359 403 350 438 350 c 2
 459 350 l 1
 440 625 396 1065 381 1221 c 1
 344 1039 305 856 270 674 c 0
 258 615 223 431 223 376 c 0
EndSplineSet
EndChar

StartChar: b
Encoding: 98 98 62
Width: 530
Flags: W
HStem: -23 80<174 268.016> 668 71<185.859 275.661> 1313 69<143.155 289.197>
VStem: 102 70<57.9028 247.141 249.362 489.154> 131 51<249.362 668 739.377 1294.08> 340 70<810.122 1139> 359 63<169.161 541.918>
LayerCount: 2
Fore
SplineSet
104 20 m 1xe2
 102 40 102 61 102 84 c 0xf2
 102 227 123 373 123 516 c 0
 123 577 119 639 119 698 c 0
 119 862 131 1024 131 1188 c 0
 131 1227 131 1266 129 1307 c 1
 121 1317 l 1
 121 1329 l 2
 121 1358 127 1382 164 1382 c 0
 191 1382 346 1344 348 1315 c 1
 348 1315 346 1311 346 1309 c 1
 399 1225 410 1149 410 1038 c 0xec
 410 954 404 869 377 795 c 1
 379 795 l 1
 365 762 337 729 319 698 c 1
 405 630 416 495 420 399 c 2
 422 346 l 1
 422 317 l 2
 422 145 336 -23 143 -23 c 0
 118 -23 104 -3 104 20 c 1xe2
184 248 m 1
 174 230 172 191 172 150 c 0
 172 113 174 77 174 57 c 1
 280 57 358 181 358 279 c 0
 358 281 359 299 359 325 c 0
 359 428 343 668 188 668 c 1
 182 576 178 483 178 389 c 0
 178 374 178 358 178 342 c 0
 178 310 179 277 184 248 c 1
182 766 m 1xec
 184 758 188 747 190 739 c 1
 205 739 l 2
 324 739 340 903 340 1012 c 0
 340 1061 336 1096 334 1139 c 1
 330 1143 l 1
 326 1202 307 1313 227 1313 c 0
 188 1313 182 1144 182 1044 c 0
 182 970 184 967 184 934 c 0
 184 887 182 840 182 791 c 2
 182 766 l 1xec
EndSplineSet
EndChar

StartChar: c
Encoding: 99 99 63
Width: 550
Flags: W
HStem: -33 68<269.159 433.34> 1303 61<275.307 426>
VStem: 96 70<166.75 827 838 1085.33>
LayerCount: 2
Fore
SplineSet
319 -33 m 1
 284 -15 250 -15 217 10 c 0
 104 92 96 294 96 446 c 2
 96 680 l 2
 96 832 96 1211 225 1313 c 0
 258 1338 297 1344 332 1364 c 1
 414 1364 l 1
 432 1360 453 1358 453 1333 c 1
 426 1303 l 1
 340 1303 l 2
 193 1303 178 940 178 838 c 1
 174 827 l 1
 174 690 166 551 166 414 c 0
 166 260 180 35 383 35 c 0
 401 35 420 41 434 53 c 1
 448 53 465 47 465 31 c 0
 465 6 407 -25 387 -33 c 1
 319 -33 l 1
EndSplineSet
EndChar

StartChar: d
Encoding: 100 100 64
Width: 653
Flags: W
HStem: -10 59<213 295.511> 1336 20G<133 154.5>
VStem: 115 63<487.817 1261.88> 123 78<80 527.895> 475 61<618.801 990.734>
LayerCount: 2
Fore
SplineSet
123 45 m 0xd8
 117 164 115 282 115 401 c 0xe8
 115 563 119 723 119 885 c 0
 119 1012 117 1141 111 1270 c 1
 99 1280 94 1295 94 1311 c 0
 94 1331 123 1356 143 1356 c 0
 166 1356 177 1331 195 1321 c 0
 222 1307 262 1310 291 1296 c 0
 346 1269 391 1208 442 1171 c 1
 440 1167 l 1
 444 1142 492 1094 506 1057 c 0
 535 979 539 883 539 813 c 0
 539 780 537 750 537 717 c 0
 537 706 536 693 536 680 c 0
 536 658 538 635 547 618 c 1
 498 356 555 140 283 -10 c 1
 141 -10 l 2
 125 -10 123 35 123 45 c 0xd8
207 76 m 1
 213 49 l 1
 276 49 l 1
 294 72 309 80 332 100 c 0
 449 206 477 420 477 592 c 0
 477 619 475 643 475 666 c 1
 465 872 l 2
 459 1009 369 1262 201 1262 c 0xd8
 185 1262 178 1094 178 883 c 0xe8
 178 602 191 260 201 119 c 1xd8
 199 80 l 1
 207 76 l 1
EndSplineSet
EndChar

StartChar: e
Encoding: 101 101 65
Width: 491
Flags: W
HStem: -27 60<194.746 406.911> 717 90<264.387 351.378> 743 60<188 264> 1239 98<192.311 387.209> 1278 72<190 206.621>
VStem: 109 69<43.4077 68 77.2649 733 803.02 1266>
LayerCount: 2
Fore
SplineSet
111 68 m 1xa4
 104 76 l 1
 114 103 119 129 119 160 c 0
 119 250 109 340 109 430 c 0
 109 635 123 840 123 1047 c 0
 123 1129 115 1210 115 1292 c 0
 115 1329 129 1350 174 1350 c 0xac
 186 1350 199 1347 207 1337 c 1x94
 242 1327 391 1325 395 1278 c 1x8c
 395 1264 366 1245 356 1239 c 1x94
 307 1255 239 1276 190 1278 c 1
 180 1266 l 1
 182 1237 182 1207 182 1178 c 0
 182 1072 174 966 174 860 c 0
 174 831 178 803 203 803 c 0xac
 226 803 247 807 272 807 c 0
 295 807 350 805 352 770 c 1
 352 745 340 717 311 717 c 0xc4
 297 717 272 723 264 733 c 1
 197 743 l 1
 188 743 l 1
 178 733 l 1
 178 727 l 1
 182 674 182 618 182 565 c 0
 182 469 178 370 178 274 c 0
 178 219 180 166 184 111 c 0
 188 45 211 33 272 33 c 0
 297 33 321 37 348 37 c 0
 366 37 408 37 408 10 c 0
 408 -27 346 -27 319 -27 c 2
 150 -27 l 2
 121 -27 111 -9 109 16 c 1
 109 32 111 52 111 68 c 1xa4
EndSplineSet
EndChar

StartChar: f
Encoding: 102 102 66
Width: 526
Flags: W
HStem: -29 21G<112.548 160.5> 1010 4<106.001 111> 1290 74<189.5 399.003>
VStem: 106 5<1010 1014> 117 59<103.156 667.29> 145 68<925.414 1289.75>
LayerCount: 2
Fore
SplineSet
98 2 m 1xf8
 114 168 117 334 117 500 c 0xf8
 117 774 145 1051 145 1325 c 0
 145 1352 178 1364 201 1364 c 0
 238 1364 446 1350 446 1305 c 0
 446 1274 396 1270 373 1270 c 1
 340 1288 297 1290 260 1290 c 0
 213 1290 231 1284 213 1247 c 1
 213 1100 193 958 193 815 c 2
 193 743 l 2
 193 725 330 754 330 705 c 0
 330 680 301 666 281 666 c 0
 258 666 236 678 213 678 c 0xf4
 176 678 176 603 176 578 c 2
 176 346 l 2
 176 248 188 151 188 53 c 0
 188 20 182 -29 139 -29 c 1
 98 2 l 1xf8
111 1014 m 1
 111 1012 l 2
 111 1010 111 1010 109 1010 c 0
 107 1010 106 1010 106 1012 c 0
 106 1014 107 1014 109 1014 c 2
 111 1014 l 1
EndSplineSet
EndChar

StartChar: g
Encoding: 103 103 67
Width: 688
Flags: W
HStem: -14 59<282.392 446.777> 543 57<348.662 506.453> 1300 56<292.605 433.928>
VStem: 92 76<369.08 1038.57> 508 78<408.391 540.272> 508 55<141.475 537.315>
LayerCount: 2
Fore
SplineSet
92 623 m 0xf4
 92 719 107 815 113 911 c 0
 125 1087 131 1356 371 1356 c 0
 398 1356 434 1352 434 1327 c 0
 434 1307 409 1296 393 1296 c 0
 381 1296 366 1300 354 1300 c 0
 168 1300 168 758 168 629 c 0
 168 580 168 528 174 479 c 1
 237 383 133 45 385 45 c 0
 503 45 508 269 508 409 c 0
 508 422 508 435 508 446 c 2
 508 522 l 1
 490 540 461 543 436 543 c 0
 428 543 413 541 397 541 c 0
 372 541 348 545 348 565 c 0
 348 594 374 600 397 600 c 0
 426 600 586 598 586 559 c 0xf8
 586 508 563 457 563 406 c 0
 563 302 571 196 571 92 c 1
 516 37 444 -14 362 -14 c 0
 301 -14 217 -2 178 49 c 0
 121 123 92 517 92 623 c 0xf4
EndSplineSet
EndChar

StartChar: h
Encoding: 104 104 68
Width: 606
Flags: W
HStem: -23 21G<480 492.304> 651 60<201.106 370.435> 1354 20G<410 421>
VStem: 119 53<60.3885 397 406 664 719.828 1225.09> 383 72<958.649 1373.89> 410 71<134.969 547 555 647.827 715.865 809.351>
LayerCount: 2
Fore
SplineSet
418 -2 m 1xf4
 414 180 408 365 408 547 c 1
 403 555 l 1
 403 557 410 573 410 573 c 1
 410 598 407 624 403 649 c 1
 371 657 l 1
 359 653 344 651 330 651 c 0
 285 651 244 672 199 672 c 1
 178 664 l 1
 178 578 172 492 172 406 c 1
 178 397 l 1
 178 282 190 170 190 55 c 0
 190 35 183 2 156 2 c 0
 111 2 111 94 111 125 c 0
 111 250 115 375 115 500 c 0
 115 525 115 686 109 700 c 1
 119 720 119 811 119 836 c 0
 119 996 104 1155 104 1315 c 0
 104 1333 119 1354 139 1354 c 0
 178 1354 180 1272 180 1235 c 0
 180 1069 172 895 172 735 c 0
 172 712 291 711 329 711 c 2
 336 711 l 2
 385 711 410 725 410 778 c 0xf4
 410 966 383 1155 383 1343 c 0
 383 1361 402 1374 418 1374 c 0
 424 1374 447 1364 455 1362 c 1xf8
 455 1043 481 725 481 406 c 0
 481 271 484 135 494 0 c 1
 481 -23 l 1
 479 -5 432 -2 418 -2 c 1xf4
352 739 m 1
 356 735 l 1
 352 735 l 1
 352 739 l 1
EndSplineSet
EndChar

StartChar: i
Encoding: 105 105 69
Width: 550
Flags: W
HStem: 0 21G<274 296.5> 16 70<140.216 223 303.023 468.485> 1294 56<74.1065 222.062>
VStem: 223 64<174.152 1043.59> 238 61<85.2986 104 109.294 523.848 712.354 1275.08>
LayerCount: 2
Fore
SplineSet
227 20 m 1xa8
 215 20 203 18 193 18 c 0
 173 18 147 21 137 39 c 1
 137 57 152 60 164 74 c 1
 223 74 l 1xb0
 231 82 l 1
 233 96 238 111 238 125 c 0xa8
 238 275 223 423 223 573 c 0
 223 733 233 893 233 1051 c 0
 233 1131 231 1210 223 1288 c 1
 203 1294 182 1294 162 1294 c 0
 146 1294 129 1290 113 1290 c 0
 88 1290 74 1300 74 1325 c 0
 74 1339 111 1350 123 1350 c 0
 162 1350 408 1349 408 1288 c 0
 408 1282 405 1276 403 1272 c 1
 356 1268 l 1
 340 1280 317 1280 297 1280 c 1
 287 1274 l 1
 293 1256 293 1206 293 1165 c 0
 293 1003 287 840 287 678 c 0xb0
 287 528 301 379 301 229 c 0
 301 217 299 191 299 166 c 0
 299 139 301 115 305 109 c 1
 303 104 l 1
 303 84 334 84 348 84 c 0
 368 84 388 86 408 86 c 0
 428 86 469 86 469 57 c 0
 469 32 449 16 424 16 c 0x68
 401 16 379 23 356 23 c 0
 325 23 310 0 283 0 c 0
 265 0 235 0 227 20 c 1xa8
EndSplineSet
EndChar

StartChar: j
Encoding: 106 106 70
Width: 573
Flags: W
HStem: 1247 113<353.824 413.946> 1268 92<130.203 416.637>
VStem: 272 62<869.13 1260> 291 63<-18.8773 562.87>
LayerCount: 2
Fore
SplineSet
70 -197 m 0x50
 70 -181 205 -107 225 -84 c 0
 274 -29 291 100 291 172 c 0x50
 291 534 272 898 272 1260 c 1
 260 1282 l 1
 231 1294 111 1296 111 1335 c 0
 111 1347 144 1360 154 1360 c 0x60
 203 1360 496 1317 496 1274 c 0
 496 1256 479 1247 463 1247 c 0xa0
 424 1247 391 1268 352 1268 c 0
 334 1268 334 1237 334 1227 c 0x60
 334 942 354 660 354 377 c 2
 354 152 l 1
 342 125 342 95 342 66 c 0
 342 -34 278 -252 133 -252 c 2
 119 -252 l 1
 72 -205 l 1
 72 -203 70 -199 70 -197 c 0x50
EndSplineSet
EndChar

StartChar: k
Encoding: 107 107 71
Width: 677
Flags: W
HStem: -33 21G<130.5 154 504 566> 1336 20G<172 190>
VStem: 102 64<-32.3416 636.012> 121 55<262.656 653.309> 141 78<900.65 1355.99> 141 60<792.706 1315.46> 279 59<627.794 795>
LayerCount: 2
Fore
SplineSet
279 795 m 1xc6
 274 803 l 1
 229 707 176 629 176 518 c 0xd2
 176 469 166 420 166 371 c 2
 166 109 l 2
 166 70 180 31 180 -8 c 0
 180 -24 161 -33 147 -33 c 0
 114 -33 102 -25 102 10 c 2
 102 395 l 2xe2
 102 481 121 567 121 653 c 0xd2
 121 784 141 918 141 1049 c 2
 141 1333 l 1
 149 1349 164 1356 180 1356 c 0
 200 1356 219 1337 219 1317 c 1xca
 201 1284 201 1254 201 1219 c 0
 201 1076 193 929 193 786 c 1
 232 802 477 1343 506 1343 c 0
 529 1343 559 1336 561 1309 c 1
 469 1174 412 1077 342 930 c 1
 342 887 338 842 338 799 c 0
 338 670 465 236 528 117 c 0
 548 78 592 41 592 -6 c 0
 592 -26 575 -37 557 -37 c 0
 451 -37 285 670 279 795 c 1xc6
EndSplineSet
EndChar

StartChar: l
Encoding: 108 108 72
Width: 497
Flags: W
HStem: -20 61<176.536 417.5>
VStem: 125 57<47.4566 352 367 1321> 135 49<1181.23 1321>
LayerCount: 2
Fore
SplineSet
215 -18 m 1xc0
 219 -20 l 1
 192 -20 170 -27 143 -27 c 0
 120 -27 111 2 109 20 c 1
 113 40 113 65 113 88 c 0
 113 457 125 844 125 1180 c 0xc0
 125 1205 135 1305 135 1315 c 0
 135 1325 142 1329 150 1329 c 0
 164 1329 184 1319 184 1321 c 1xa0
 184 1266 182 1214 182 1159 c 0xc0
 182 1009 184 863 184 713 c 1xa0
 182 643 178 582 178 541 c 0
 178 484 182 424 182 367 c 1
 176 350 l 1
 178 352 l 1
 178 346 176 342 176 336 c 0
 176 326 178 315 182 307 c 1
 176 111 l 2
 176 107 176 102 176 98 c 0
 176 55 178 47 188 47 c 0
 241 47 352 41 381 41 c 0
 383 41 385 41 387 41 c 0
 401 41 418 22 418 6 c 0
 418 -6 410 -18 385 -20 c 1
 332 -18 272 -18 215 -18 c 1xc0
EndSplineSet
EndChar

StartChar: m
Encoding: 109 109 73
Width: 1054
Flags: W
HStem: -39 21G<129 142>
VStem: 98 76<-38.8776 394.072> 162 57<898.098 1149> 864 86<-105.729 189.905> 864 62<-38.4382 783.422>
LayerCount: 2
Fore
SplineSet
905 -106 m 0x90
 866 -106 864 -12 864 25 c 0
 864 70 864 115 864 159 c 0
 864 314 863 468 852 621 c 0
 848 676 836 731 836 786 c 0
 836 870 844 956 844 1040 c 0
 844 1067 844 1112 836 1137 c 1
 795 1104 617 383 590 274 c 1
 582 237 579 115 528 115 c 0
 481 115 467 139 467 182 c 0
 467 286 270 1100 219 1149 c 1xb0
 203 789 174 430 174 70 c 0
 174 43 174 15 176 -12 c 1
 170 -30 151 -39 133 -39 c 0
 125 -39 98 -20 98 -10 c 0xc0
 98 422 162 850 162 1282 c 0
 162 1296 150 1307 150 1321 c 0
 150 1348 187 1352 205 1352 c 0
 260 1352 250 1270 256 1235 c 0
 276 1124 344 1027 373 918 c 0
 396 832 424 748 440 662 c 1
 467 608 l 1
 487 502 524 396 526 287 c 1
 561 340 758 1085 778 1196 c 0
 786 1237 793 1348 852 1348 c 0
 868 1348 903 1329 903 1311 c 0
 903 1194 903 453 930 408 c 1
 930 336 926 265 926 193 c 0xa8
 926 127 928 59 942 -4 c 0
 944 -16 950 -27 950 -39 c 0
 950 -62 934 -106 905 -106 c 0x90
836 1149 m 1
 834 1149 l 1
 831 1147 l 1
 836 1145 l 1
 836 1149 l 1
EndSplineSet
EndChar

StartChar: n
Encoding: 110 110 74
Width: 862
Flags: W
HStem: -4 21G<131.5 163.5 600.5 619.5 640 641>
VStem: 104 66<235.25 1185.79> 117 96<1146.99 1342.71> 117 65<-3.76108 638.251> 682 70<845.247 1128 1145 1339.29>
LayerCount: 2
Fore
SplineSet
469 418 m 1xa8
 461 428 420 553 414 571 c 0
 385 661 229 1143 182 1188 c 1x98
 170 1141 166 1091 166 1044 c 0
 166 989 170 936 170 883 c 0xc8
 170 850 166 817 166 784 c 0
 166 737 172 688 174 641 c 1
 168 641 l 1
 168 586 170 295 182 264 c 1
 182 80 l 1
 190 66 190 53 190 37 c 0
 190 17 175 -4 152 -4 c 0
 111 -4 109 79 109 106 c 0
 109 151 117 195 117 240 c 0x98
 117 437 104 632 104 829 c 0xc8
 104 950 117 1071 117 1192 c 0
 117 1200 117 1209 117 1218 c 0
 117 1264 120 1321 154 1350 c 1
 160 1343 l 1
 180 1348 l 1
 205 1338 207 1317 213 1294 c 0
 276 1030 422 782 506 520 c 0
 547 391 561 244 631 125 c 1
 635 131 l 1
 674 502 682 874 682 1247 c 0
 682 1263 678 1280 678 1298 c 0
 678 1316 682 1341 707 1341 c 0
 736 1341 752 1307 752 1282 c 2
 752 1145 l 1
 741 1128 l 1
 741 999 709 72 676 6 c 1
 669 5 654 1 641 -3 c 0
 641 -4 l 2
 640 -3 l 1
 630 -6 621 -8 618 -8 c 0
 583 -8 585 47 573 70 c 1
 575 76 l 1
 557 193 504 305 469 418 c 1xa8
EndSplineSet
EndChar

StartChar: o
Encoding: 111 111 75
Width: 673
Flags: W
HStem: -39 59<272.78 391.299> 1294 82<202.6 269.168>
VStem: 94 64<314.429 1118.12> 500 63<221.606 791 801 963.626>
LayerCount: 2
Fore
SplineSet
334 -39 m 0
 98 -39 94 527 94 715 c 0
 94 793 98 1376 225 1376 c 0
 250 1376 252 1358 270 1352 c 0
 393 1307 418 1354 477 1243 c 1
 545 1128 563 932 563 801 c 1
 559 791 l 1
 559 709 563 629 563 547 c 0
 563 381 551 -39 334 -39 c 0
162 555 m 0
 162 475 181 20 326 20 c 0
 492 20 500 436 500 563 c 0
 500 725 477 885 477 1047 c 1
 469 1063 l 1
 473 1073 l 1
 473 1190 399 1294 301 1294 c 2
 215 1294 l 2
 190 1294 180 966 168 909 c 1
 168 846 158 780 158 717 c 0
 158 664 162 608 162 555 c 0
EndSplineSet
EndChar

StartChar: p
Encoding: 112 112 76
Width: 522
Flags: W
HStem: -41 21G<129 171.5> 1272 63<179.776 308.068>
VStem: 106 74<2.14353 648.795 729 885.025> 123 65<-25 265.404 720.635 1240.91> 350 66<815.193 1230.14>
LayerCount: 2
Fore
SplineSet
129 -25 m 1xe8
 111 71 106 172 106 270 c 0xe8
 106 397 115 524 115 651 c 1
 109 665 102 682 102 698 c 1
 122 731 123 846 123 887 c 0xd8
 123 948 121 1257 111 1284 c 1
 115 1294 129 1335 141 1335 c 2
 231 1335 l 2
 268 1335 336 1293 365 1268 c 1
 414 1223 416 1089 416 1026 c 0
 416 809 409 707 180 639 c 1
 180 395 l 2
 180 262 197 127 197 -4 c 0
 197 -29 185 -41 158 -41 c 1
 129 -25 l 1xe8
188 922 m 0xd8
 188 859 180 792 180 729 c 1xe8
 193 709 l 1
 349 709 350 970 350 1079 c 0
 350 1171 340 1272 223 1272 c 0
 184 1272 178 1252 178 1217 c 0
 178 1119 188 1020 188 922 c 0xd8
EndSplineSet
EndChar

StartChar: q
Encoding: 113 113 77
Width: 688
Flags: W
HStem: -434 69<438.802 545.668>
VStem: 94 60<309.5 1097.97> 516 62<331.33 1121.2>
LayerCount: 2
Fore
SplineSet
385 -401 m 1
 385 -288 358 -179 338 -68 c 1
 201 -41 137 8 117 227 c 1
 101 387 94 547 94 707 c 2
 94 716 l 2
 94 870 96 1356 297 1368 c 1
 326 1356 356 1353 385 1341 c 1
 569 1255 578 991 578 817 c 2
 578 721 l 2
 578 586 543 29 434 -39 c 0
 422 -47 395 -52 395 -70 c 0
 395 -168 424 -269 444 -365 c 1
 471 -392 547 -359 547 -408 c 0
 547 -424 536 -434 520 -434 c 0
 487 -434 408 -426 385 -401 c 1
154 664 m 2
 154 575 l 2
 154 374 163 -14 313 -14 c 0
 333 -14 353 -2 373 -2 c 0
 463 -2 516 436 516 514 c 2
 516 872 l 2
 516 1024 500 1315 291 1315 c 0
 158 1315 147 802 147 702 c 0
 147 690 154 676 154 664 c 2
EndSplineSet
EndChar

StartChar: r
Encoding: 114 114 78
Width: 550
Flags: W
HStem: -18 21G<135 188.824 440 450> 709 51<172 227.061> 1313 53<125.5 265.664>
VStem: 102 58<838.406 1312.71> 322 55<919.359 1251.14>
LayerCount: 2
Fore
SplineSet
412 -25 m 1
 334 61 276 709 213 709 c 2
 205 709 l 2
 185 709 160 707 160 680 c 0
 160 530 170 381 178 231 c 0
 180 184 183 57 195 16 c 1
 180 -18 l 1
 150 -18 l 1
 135 -2 l 1
 119 428 102 858 102 1288 c 0
 102 1321 104 1366 147 1366 c 0
 272 1366 377 1304 377 1167 c 2
 377 1018 l 2
 377 922 270 751 270 741 c 0
 270 733 422 103 432 78 c 0
 442 51 465 23 465 -6 c 0
 465 -20 458 -35 442 -35 c 0
 438 -35 418 -27 412 -25 c 1
168 764 m 1
 172 760 l 1
 283 760 322 1016 322 1098 c 0
 322 1196 311 1313 184 1313 c 0
 166 1313 160 1272 160 1260 c 0
 160 1094 168 930 168 764 c 1
EndSplineSet
EndChar

StartChar: s
Encoding: 115 115 79
Width: 489
Flags: W
HStem: -20 47<166 238.338> 1317 61<202.327 317.347>
VStem: 90 53<942.616 1232.73> 319 11<1311 1313> 336 53<174.402 517.511>
LayerCount: 2
Fore
SplineSet
90 25 m 1
 100 41 l 1
 125 39 149 27 174 27 c 0
 307 27 336 258 336 356 c 0
 336 651 90 795 90 1098 c 0
 90 1188 135 1378 252 1378 c 0
 279 1378 330 1352 330 1321 c 0
 330 1309 311 1305 303 1305 c 0
 287 1305 276 1317 260 1317 c 0
 170 1317 143 1158 143 1090 c 0
 143 1022 164 962 182 899 c 1
 197 862 l 1
 308 661 389 578 389 332 c 0
 389 193 340 -20 166 -20 c 1
 156 -25 l 1
 131 -21 94 -4 90 25 c 1
317 1313 m 1
 317 1311 l 1
 319 1311 l 1
 319 1313 319 1313 317 1313 c 1
EndSplineSet
EndChar

StartChar: t
Encoding: 116 116 80
Width: 544
Flags: W
HStem: 1298 43<307 462.826>
VStem: 295 2<299 1253> 299 66<29 445.482>
LayerCount: 2
Fore
SplineSet
303 29 m 1
 303 78 299 129 299 178 c 0
 299 203 303 225 303 250 c 0
 303 266 301 283 295 299 c 1
 295 633 248 964 244 1298 c 1
 189 1298 82 1300 72 1337 c 1
 78 1353 95 1360 111 1360 c 0
 205 1360 295 1341 389 1341 c 0
 401 1341 414 1343 426 1343 c 0
 444 1343 463 1340 463 1317 c 0
 463 1297 436 1284 418 1284 c 0
 381 1284 344 1298 307 1298 c 1
 297 1286 l 1
 301 1278 l 1
 297 1270 297 1261 297 1253 c 0
 297 852 365 452 365 51 c 0
 365 31 346 12 326 12 c 1
 303 29 l 1
EndSplineSet
EndChar

StartChar: u
Encoding: 117 117 81
Width: 651
Flags: W
HStem: -31 56<250.246 383.73>
VStem: 96 66<922.391 1319> 475 47<502.875 1095.81>
LayerCount: 2
Fore
SplineSet
313 -31 m 1
 266 -30 209 6 180 41 c 0
 92 152 123 1098 96 1319 c 1
 109 1348 l 1
 156 1342 156 1270 156 1235 c 2
 162 692 l 1
 162 547 184 403 184 258 c 0
 184 158 203 25 338 25 c 0
 442 25 451 340 461 496 c 1
 469 772 475 1053 475 1329 c 0
 475 1341 471 1354 471 1366 c 0
 471 1386 490 1389 506 1389 c 0
 539 1389 541 1379 541 1305 c 0
 541 1239 538 1135 528 1096 c 1
 530 1092 530 1087 530 1083 c 0
 530 1030 520 973 520 920 c 0
 520 906 522 893 522 879 c 1
 499 592 561 -31 313 -31 c 1
EndSplineSet
EndChar

StartChar: v
Encoding: 118 118 82
Width: 714
Flags: W
HStem: -25 21G<313 379> 1102 4<299 301>
VStem: 299 2<1102 1106>
LayerCount: 2
Fore
SplineSet
313 -6 m 1
 313 148 289 305 264 457 c 0
 227 682 182 907 131 1130 c 0
 123 1167 76 1321 76 1341 c 0
 76 1351 92 1366 102 1366 c 0
 151 1366 170 1194 180 1157 c 0
 266 817 311 485 360 147 c 1
 397 270 416 420 430 553 c 1
 477 963 530 1110 575 1384 c 1
 602 1395 l 1
 610 1393 625 1384 625 1374 c 0
 625 1321 604 1251 594 1198 c 0
 569 1075 534 952 516 829 c 1
 496 702 489 571 473 444 c 0
 463 368 436 295 422 219 c 0
 412 162 422 -25 336 -25 c 1
 313 -6 l 1
358 141 m 1
 356 137 l 1
 358 133 l 1
 358 141 l 1
301 1106 m 1
 301 1102 l 1
 299 1102 l 1
 299 1104 299 1106 301 1106 c 1
EndSplineSet
EndChar

StartChar: w
Encoding: 119 119 83
Width: 847
Flags: W
HStem: -43 21G<229 286.5> 1360 20G<705 725>
VStem: 352 45<572.285 1049.06> 379 72<1159.19 1188> 655 56<609.112 913 922.563 984.625 1040.28 1252.05> 682 61<1269.36 1379.95>
LayerCount: 2
Fore
SplineSet
418 1053 m 1xc8
 412 969 397 887 397 803 c 0
 397 615 359 428 334 242 c 0
 328 201 309 -43 264 -43 c 0
 194 -43 196 342 176 520 c 1
 162 633 139 745 131 858 c 0
 121 999 127 1178 78 1311 c 1
 86 1325 97 1327 111 1327 c 0
 158 1327 150 1202 152 1171 c 0
 181 858 240 546 246 231 c 1
 258 198 254 148 268 121 c 1
 270 121 l 1
 305 367 344 614 352 864 c 0xe8
 354 930 355 995 365 1061 c 0
 371 1104 379 1145 379 1188 c 1
 416 1204 l 1
 432 1204 451 1194 451 1176 c 0
 451 1170 448 1163 446 1159 c 1
 509 944 539 721 555 498 c 0
 563 394 559 284 596 186 c 1
 637 301 655 845 655 995 c 0xd8
 655 1101 682 1207 682 1313 c 0
 682 1325 680 1338 674 1348 c 1
 674 1373 695 1380 715 1380 c 0
 735 1380 743 1379 743 1356 c 0xc4
 743 1327 741 1297 733 1268 c 1
 737 1255 l 1
 723 1192 719 1129 719 1063 c 0
 719 1055 719 1046 723 1040 c 1
 711 999 l 1
 717 985 l 1
 713 977 711 969 711 961 c 0
 711 947 715 934 717 922 c 1
 711 913 l 1
 711 796 700 678 692 561 c 0
 686 467 682 373 670 279 c 0
 664 238 647 197 647 156 c 0
 647 117 645 -68 592 -68 c 0
 555 -68 559 -2 557 23 c 0
 549 121 524 219 512 317 c 0
 498 426 463 1008 418 1053 c 1xc8
596 178 m 1
 596 176 l 1
 598 176 l 1
 598 178 598 178 596 178 c 1
EndSplineSet
EndChar

StartChar: x
Encoding: 120 120 84
Width: 518
Flags: W
HStem: -6 21G<139 159.5> 1336 20G<366 385.4>
VStem: 109 69<-5.97168 69.6243> 223 58<510.74 817.976>
LayerCount: 2
Fore
SplineSet
109 18 m 0
 109 219 223 454 223 659 c 0
 223 725 123 1214 94 1247 c 1
 94 1251 96 1258 96 1262 c 0
 96 1287 78 1297 78 1315 c 0
 78 1327 105 1335 115 1335 c 0
 152 1335 159 1241 160 1212 c 1
 207 1085 215 946 254 817 c 1
 274 858 307 1121 311 1180 c 0
 313 1203 324 1346 338 1350 c 0
 348 1352 361 1354 371 1356 c 1
 389 1331 l 1
 360 1288 356 1202 356 1151 c 0
 356 1143 358 1134 358 1126 c 1
 356 1124 l 1
 340 964 281 807 281 645 c 0
 281 598 383 143 403 92 c 0
 411 74 428 53 428 33 c 0
 428 15 413 4 397 4 c 0
 389 4 379 6 371 10 c 1
 332 176 287 340 256 508 c 1
 213 445 209 168 174 70 c 1
 178 62 178 53 178 45 c 0
 178 27 172 -6 147 -6 c 0
 131 -6 109 -5 109 18 c 0
EndSplineSet
EndChar

StartChar: y
Encoding: 121 121 85
Width: 561
Flags: W
HStem: -31 21G<304 329.5>
VStem: 283 51<354.878 666> 299 53<-5.74197 626.048>
LayerCount: 2
Fore
SplineSet
279 -8 m 1xa0
 297 37 299 287 299 350 c 0xa0
 299 454 287 562 283 666 c 1
 270 692 l 1
 276 717 l 1
 239 817 78 1233 76 1307 c 1
 104 1329 l 1
 151 1321 258 821 297 811 c 1
 305 848 l 1
 301 858 l 1
 340 905 387 1360 446 1360 c 0
 458 1360 473 1353 473 1339 c 0
 473 1304 446 1221 436 1186 c 0
 393 1034 336 873 336 723 c 1
 340 713 346 700 346 688 c 0
 346 668 334 652 334 629 c 0xc0
 334 566 350 505 350 442 c 0
 350 333 352 226 352 117 c 0
 352 115 352 111 352 108 c 0
 352 69 350 -31 309 -31 c 0
 299 -31 283 -16 279 -8 c 1xa0
EndSplineSet
EndChar

StartChar: z
Encoding: 122 122 86
Width: 538
Flags: W
HStem: -4 21G<105 125> 18 41<152.937 355.97> 1290 66<166.111 387>
VStem: 84 68<59.335 178.899> 387 57<1175.21 1303>
LayerCount: 2
Fore
SplineSet
84 27 m 0
 84 68 140 264 154 317 c 0
 183 426 200 536 227 645 c 0
 276 844 387 1104 387 1303 c 1
 324 1303 258 1290 195 1290 c 0
 179 1290 166 1307 166 1323 c 0
 166 1350 319 1356 393 1356 c 0
 418 1356 444 1354 444 1323 c 0
 444 1196 344 987 344 915 c 1
 307 735 154 331 152 63 c 1
 172 59 191 59 211 59 c 0
 240 59 268 66 297 66 c 0
 315 66 356 66 356 39 c 0
 356 14 327 12 309 12 c 0
 268 12 229 18 188 18 c 0
 147 18 135 -4 115 -4 c 0
 95 -4 84 7 84 27 c 0
EndSplineSet
EndChar

StartChar: cent
Encoding: 257 162 87
Width: 651
Flags: W
HStem: 326 43<367.025 458.861>
VStem: 94 51<537.93 1020.98> 248 37<1241.11 1434.25> 315 45<401 754.686> 330 35<13.836 326>
LayerCount: 2
Fore
SplineSet
338 25 m 1xe8
 334 23 l 1
 332 80 330 144 330 203 c 0
 330 245 330 288 330 330 c 1xe8
 240 365 139 406 121 512 c 1
 96 623 94 729 94 842 c 0
 94 975 115 1165 258 1243 c 1
 258 1286 248 1327 248 1370 c 0
 248 1384 247 1436 274 1436 c 1
 287 1427 l 1
 285 1409 285 1392 285 1374 c 0
 285 1329 289 1284 295 1239 c 1
 332 1223 477 1198 477 1135 c 0
 477 1127 469 1108 459 1108 c 0
 428 1108 424 1143 406 1159 c 1
 388 1179 356 1174 340 1194 c 1
 303 1194 l 1
 301 1198 l 1
 301 936 362 692 362 430 c 0
 362 422 360 407 360 401 c 0xf0
 360 391 365 379 377 369 c 1
 465 369 506 421 551 489 c 1
 571 489 573 467 573 453 c 0
 573 394 438 326 385 326 c 0
 379 326 373 326 367 326 c 1
 367 291 365 256 365 221 c 0
 365 155 371 93 371 27 c 0
 371 15 365 11 358 11 c 0
 349 11 338 18 338 25 c 1xe8
162 977 m 1
 154 911 145 854 145 788 c 2
 145 781 l 2
 145 684 147 397 307 397 c 1
 315 401 l 1xf0
 315 559 299 710 283 870 c 1
 277 968 273 1073 250 1161 c 1
 189 1151 160 985 162 977 c 1
EndSplineSet
EndChar

StartChar: sterling
Encoding: 163 163 88
Width: 757
Flags: W
HStem: 49 49<492 651.461> 90 53<266 428.352> 887 57<121.011 147> 918 59<210.376 450.939> 1378 21G<417.5 452.095> 1562 44<247.528 337.077>
VStem: 123 51<964.993 1442.69> 272 50<238.952 568.052> 387 66<1399 1510.35>
LayerCount: 2
Fore
SplineSet
82 49 m 0x8f80
 82 90 172 115 201 135 c 1
 256 176 272 313 272 379 c 0
 272 553 199 721 160 889 c 1
 156 889 154 887 150 887 c 0
 136 887 121 897 121 915 c 0
 121 931 129 944 147 944 c 1xaf80
 147 1042 123 1137 123 1235 c 0
 123 1375 125 1606 300 1606 c 0
 403 1606 453 1454 453 1399 c 1
 434 1378 l 1
 401 1378 401 1402 387 1425 c 1
 387 1487 345 1562 287 1562 c 0
 206 1562 174 1354 174 1268 c 0
 174 1189 188 950 207 950 c 0
 279 950 350 977 422 977 c 0
 436 977 451 966 451 950 c 0
 451 934 446 918 426 918 c 0
 352 918 279 913 207 899 c 1
 262 773 322 541 322 375 c 0
 322 283 291 227 266 143 c 1x5f80
 366 143 463 98 563 98 c 0
 598 98 620 101 653 115 c 1
 682 94 l 1
 682 49 617 49 586 49 c 0x8f80
 555 49 523 55 492 55 c 1
 485 51 l 1
 440 78 305 90 305 90 c 1x4f80
 223 90 183 68 113 27 c 1
 103 29 82 37 82 49 c 0x8f80
EndSplineSet
EndChar

StartChar: currency
Encoding: 258 164 89
Width: 868
Flags: W
HStem: 231 52<324.052 523.422> 1204 60<365.359 526.467>
VStem: 145 64<437.323 935.721> 573 95<1094.02 1177.7> 686 72<220.453 315.604 544.438 966.285>
LayerCount: 2
Fore
SplineSet
686 258 m 1
 672 283 659 309 643 334 c 1
 580 264 491 231 399 231 c 0
 331 231 262 277 219 326 c 1
 190 326 180 227 131 227 c 0
 96 227 90 248 90 279 c 0
 90 291 170 360 180 395 c 1
 145 452 145 526 145 592 c 0
 145 688 158 1009 219 1075 c 1
 219 1116 121 1185 121 1212 c 0
 121 1226 131 1235 145 1235 c 0
 196 1235 219 1170 252 1141 c 1
 275 1159 363 1264 383 1264 c 0
 471 1264 532 1239 604 1190 c 1
 637 1194 678 1329 733 1329 c 1
 762 1298 l 1
 758 1263 668 1186 668 1143 c 0
 668 1129 696 1050 702 1032 c 0
 727 954 758 856 758 774 c 0
 758 692 739 610 719 530 c 0
 709 489 690 438 690 397 c 0
 690 327 768 281 768 248 c 0
 768 232 759 219 741 219 c 0
 714 219 686 225 686 258 c 1
262 412 m 1
 262 316 354 283 436 283 c 0
 647 283 686 624 686 780 c 0
 686 839 661 1063 612 1094 c 1
 587 1094 573 1118 573 1141 c 1
 544 1182 477 1204 428 1204 c 0
 391 1204 299 1131 295 1094 c 1
 313 1075 l 1
 313 1009 280 1047 266 1024 c 1
 239 985 211 749 211 696 c 0
 211 684 213 671 215 659 c 1
 209 634 209 611 209 586 c 0
 209 525 213 457 262 412 c 1
EndSplineSet
EndChar

StartChar: yen
Encoding: 259 165 90
Width: 942
Flags: W
HStem: 801 63<180 466.999 809 817> 981 49<207 476.493 549.751 854.766>
VStem: 424 88<16.1186 142.156> 451 61<41.9866 541.375> 477 72<388.426 796.717 864 974.96 1035.44 1123.04>
LayerCount: 2
Fore
SplineSet
424 41 m 1xe0
 432 59 451 274 451 307 c 0xd0
 451 463 467 618 467 774 c 0
 467 782 465 791 463 797 c 1
 377 797 293 792 207 786 c 1
 193 794 180 811 172 825 c 1
 180 852 l 1
 278 852 375 854 473 860 c 1
 477 891 477 923 477 954 c 0
 477 968 471 981 455 981 c 0
 406 981 356 973 307 973 c 0
 284 973 193 973 193 1010 c 1
 207 1032 l 1
 262 1032 310 1030 367 1030 c 0
 404 1030 467 1032 477 1044 c 1
 477 1083 l 1
 418 1118 191 1620 74 1716 c 1
 74 1747 l 1
 80 1749 94 1755 100 1755 c 0
 147 1755 274 1542 305 1497 c 1
 307 1472 375 1381 391 1352 c 0
 407 1323 483 1173 508 1171 c 1
 531 1216 545 1264 559 1311 c 0
 584 1391 688 1753 721 1794 c 0
 731 1806 738 1810 754 1810 c 0
 772 1810 788 1798 788 1780 c 1
 714 1608 680 1421 614 1245 c 1
 614 1173 551 1110 549 1047 c 1
 565 1039 582 1034 600 1034 c 0
 674 1034 747 1044 821 1044 c 0
 835 1044 852 1011 858 1001 c 1
 856 976 747 975 713 975 c 2
 707 975 l 1
 549 975 l 1
 549 938 545 901 545 864 c 1
 772 864 l 2
 784 864 799 866 811 866 c 0
 834 866 854 860 854 821 c 0
 854 805 831 791 817 791 c 2
 809 791 l 1
 813 793 l 1
 803 795 788 801 776 801 c 2
 549 801 l 1xc8
 541 797 l 1
 541 578 510 362 510 143 c 0
 510 125 512 106 512 90 c 0
 512 57 506 16 465 16 c 0
 449 16 424 18 424 41 c 1xe0
EndSplineSet
EndChar

StartChar: dieresis
Encoding: 260 168 91
Width: 776
Flags: W
HStem: 971 102<111.65 198.89 572.123 665.01>
VStem: 111 90<971.365 1072.68> 571 95<979.509 1074.49>
LayerCount: 2
Fore
SplineSet
571 1024 m 0
 571 1049 596 1075 621 1075 c 0
 644 1075 666 1046 666 1026 c 0
 666 993 643 979 612 979 c 0
 589 979 571 1004 571 1024 c 0
111 1022 m 0
 111 1045 135 1073 160 1073 c 0
 193 1073 201 1031 201 1006 c 0
 201 981 170 971 150 971 c 0
 125 971 111 1002 111 1022 c 0
EndSplineSet
EndChar

StartChar: copyright
Encoding: 169 169 92
Width: 1157
Flags: W
HStem: 2 55<395.922 706.805> 250 59<509.927 686.77> 1411 66<503.05 652.55> 1737 51<433.265 615.759>
VStem: 98 72<536.078 1312.53> 311 74<465.317 907.732> 997 68<476.827 1077.58>
LayerCount: 2
Fore
SplineSet
98 924 m 0
 98 1190 149 1788 516 1788 c 0
 956 1788 1065 1086 1065 756 c 0
 1065 416 991 2 565 2 c 0
 133 2 129 324 111 662 c 0
 107 750 98 836 98 924 c 0
170 940 m 0
 170 825 182 709 188 594 c 0
 202 350 220 57 539 57 c 0
 811 57 920 221 977 465 c 1
 975 469 975 471 975 475 c 0
 975 514 997 551 997 588 c 2
 997 893 l 2
 997 971 970 1048 958 1124 c 0
 925 1329 850 1554 672 1677 c 0
 633 1704 590 1737 541 1737 c 0
 213 1737 170 1176 170 940 c 0
428 311 m 1
 315 452 311 621 311 793 c 2
 311 801 l 2
 311 986 313 1477 571 1477 c 0
 596 1477 624 1474 647 1466 c 0
 682 1454 788 1313 788 1276 c 0
 788 1260 778 1247 762 1247 c 0
 699 1247 691 1411 580 1411 c 0
 396 1411 405 1043 389 918 c 1
 393 909 l 1
 385 882 385 852 385 823 c 0
 385 811 385 799 385 786 c 0
 385 664 388 485 455 397 c 1
 455 391 l 1
 488 354 526 309 596 309 c 0
 713 309 745 418 778 418 c 0
 803 418 809 393 809 373 c 0
 809 305 663 250 606 250 c 0
 532 250 491 282 428 311 c 1
EndSplineSet
EndChar

StartChar: guillemotleft
Encoding: 261 171 93
Width: 741
Flags: W
HStem: -35 21G<448.5 468 629 640>
VStem: 256 72<623.502 801.703> 479 105<1254.4 1385.03>
LayerCount: 2
Fore
SplineSet
463 -35 m 0
 434 -35 372 100 358 127 c 0
 319 201 82 657 82 698 c 0
 82 725 311 1274 342 1358 c 1
 342 1360 l 1
 348 1376 383 1466 399 1466 c 0
 417 1466 438 1458 440 1438 c 1
 401 1377 377 1303 350 1235 c 0
 303 1114 258 991 213 868 c 0
 205 845 155 706 145 692 c 1
 151 586 504 25 504 -12 c 0
 504 -26 473 -35 463 -35 c 0
602 4 m 1
 559 67 524 160 485 242 c 2
 383 455 l 2
 369 486 350 518 338 549 c 0
 320 598 256 645 256 698 c 0
 256 755 446 1149 479 1247 c 0
 491 1282 518 1415 557 1421 c 1
 584 1401 l 1
 553 1202 328 870 328 700 c 0
 328 675 606 116 643 53 c 1
 662 39 l 1
 660 27 647 0 633 0 c 0
 625 0 616 4 606 4 c 2
 602 4 l 1
EndSplineSet
EndChar

StartChar: registered
Encoding: 174 174 94
Width: 1161
Flags: W
HStem: -166 68<434.071 514 532 724.077> 913 62<463.767 537.222> 1548 64<455.63 635.058> 1855 60<481.926 719.546>
VStem: 102 84<297.034 1408.55> 362 76<1018.26 1533.94> 387 72<385.393 913> 422 82<168.632 631.498> 692 76<1108.53 1492.46> 997 68<446.714 1110.43>
LayerCount: 2
Fore
SplineSet
102 715 m 0xf8c0
 102 805 104 895 104 985 c 0
 104 1323 147 1915 606 1915 c 0
 721 1915 838 1825 901 1735 c 1
 950 1719 936 1663 969 1632 c 1
 969 1585 989 1485 997 1438 c 0
 1022 1270 1065 1086 1065 920 c 2
 1065 854 l 2
 1065 637 1065 146 909 -12 c 0
 823 -100 741 -166 610 -166 c 0
 133 -166 102 357 102 715 c 0xf8c0
446 -84 m 1
 466 -92 498 -98 514 -98 c 1
 532 -106 l 1
 972 -106 997 377 997 707 c 0
 997 988 978 1350 874 1651 c 1
 889 1667 l 1
 879 1692 858 1721 831 1731 c 1
 774 1790 709 1855 621 1855 c 0
 234 1855 172 1333 172 1042 c 0
 172 901 186 757 186 616 c 0
 186 432 200 164 317 12 c 0
 364 -49 409 -47 446 -84 c 1
471 168 m 0
 446 168 422 182 422 209 c 0xf9c0
 422 297 422 385 414 473 c 0
 408 541 387 608 387 676 c 2
 387 1075 l 2xfac0
 387 1202 362 1321 362 1454 c 0xfcc0
 362 1593 424 1612 555 1612 c 0
 748 1612 768 1420 768 1270 c 0
 768 1022 627 1032 627 969 c 0
 627 930 811 291 815 291 c 1
 815 289 l 1
 819 275 846 207 846 199 c 0
 846 187 817 172 807 168 c 1
 735 168 684 484 666 545 c 1
 627 668 576 940 553 940 c 0
 520 940 502 913 465 913 c 1
 463 874 459 836 459 797 c 0xfac0
 459 600 504 408 504 211 c 0xf9c0
 504 186 500 168 471 168 c 0
438 1415 m 0xfcc0
 438 1335 442 975 473 975 c 0
 520 975 658 1092 674 1137 c 1
 688 1180 692 1227 692 1272 c 0
 692 1364 692 1548 561 1548 c 0
 450 1548 438 1519 438 1415 c 0xfcc0
EndSplineSet
EndChar

StartChar: acute
Encoding: 262 180 95
Width: 497
Flags: W
HStem: 1309 239
VStem: 98 299
LayerCount: 2
Fore
SplineSet
98 1339 m 0
 98 1357 321 1519 352 1548 c 1
 372 1548 397 1541 397 1516 c 0
 397 1506 393 1495 391 1485 c 1
 295 1442 215 1377 135 1309 c 1
 117 1309 98 1319 98 1339 c 0
EndSplineSet
EndChar

StartChar: paragraph
Encoding: 182 182 96
Width: 937
Flags: W
HStem: 1120 51<310.666 551.914> 1792 59<605.759 698.061>
VStem: 86 64<1301.09 1588.1> 514 78<14.0103 56.8125> 535 65<1295.37 1765.33> 557 70<575.656 1504.56> 715 67<1365.44 1764.83> 729 68<773.25 1550.29>
LayerCount: 2
Fore
SplineSet
711 102 m 0xe1
 711 460 729 818 729 1176 c 0xe1
 729 1326 715 1472 715 1622 c 0
 715 1645 717 1665 717 1688 c 0
 717 1745 705 1792 623 1792 c 0
 600 1792 600 1704 600 1688 c 0xea
 600 1452 627 1215 627 979 c 0xe4
 627 672 606 364 588 57 c 1
 590 53 592 49 592 45 c 0
 592 27 567 14 553 14 c 0
 526 14 514 28 514 55 c 0xf0
 514 358 557 660 557 963 c 0
 557 1016 553 1067 553 1120 c 1
 381 1120 l 1
 252 1173 141 1157 98 1325 c 0
 92 1348 98 1369 86 1389 c 1
 86 1514 123 1691 240 1757 c 0
 287 1784 342 1788 391 1808 c 1
 444 1831 512 1823 569 1831 c 1
 579 1849 600 1851 618 1851 c 0
 645 1851 669 1835 698 1835 c 0
 714 1835 729 1835 745 1839 c 1
 772 1806 862 1831 862 1790 c 0
 862 1767 839 1761 821 1761 c 0
 809 1761 794 1763 782 1765 c 1xe6
 782 1556 797 1350 797 1141 c 0
 797 848 784 557 784 264 c 0
 784 188 797 111 797 35 c 0
 797 15 780 2 762 2 c 0
 713 2 711 67 711 102 c 0xe1
150 1454 m 0
 150 1225 291 1171 494 1171 c 0
 547 1171 553 1183 553 1212 c 0
 553 1374 535 1534 535 1696 c 0xe8
 535 1714 537 1735 537 1753 c 1
 519 1771 457 1772 430 1772 c 0
 270 1772 150 1604 150 1454 c 0
EndSplineSet
EndChar

StartChar: cedilla
Encoding: 263 184 97
Width: 468
Flags: W
HStem: -479 55<130.423 246.062> -28 20G<156 212>
VStem: 156 51<-113.531 -16> 281 75<-402.445 -190.623>
LayerCount: 2
Fore
SplineSet
250 -190 m 1
 232 -190 213 -197 195 -197 c 0
 168 -197 151 -176 139 -156 c 1
 155 -119 156 -80 156 -39 c 2
 156 -16 l 1
 215 -8 l 1
 209 -43 207 -78 207 -111 c 1
 324 -119 356 -217 356 -317 c 0
 356 -372 291 -479 201 -479 c 0
 170 -479 113 -463 113 -424 c 0
 113 -410 119 -403 135 -403 c 0
 160 -403 176 -424 201 -424 c 0
 252 -424 281 -348 281 -281 c 0
 281 -242 271 -206 250 -190 c 1
EndSplineSet
EndChar

StartChar: guillemotright
Encoding: 264 187 98
Width: 741
Flags: W
HStem: 0 21G<102 113 274 293.5>
VStem: 158 104<1254.4 1384.55> 414 71<625.173 802.133>
LayerCount: 2
Fore
SplineSet
139 4 m 1
 127 4 117 0 109 0 c 0
 95 0 82 27 80 39 c 1
 98 53 l 1
 135 119 414 675 414 700 c 0
 414 870 189 1202 158 1401 c 1
 184 1421 l 1
 225 1413 250 1284 262 1247 c 0
 295 1149 485 757 485 698 c 0
 485 647 421 598 403 549 c 0
 391 516 372 486 358 455 c 2
 182 90 l 2
 168 61 155 29 139 4 c 1
659 698 m 0
 659 657 422 201 383 127 c 0
 369 100 308 -35 279 -35 c 0
 269 -35 238 -26 238 -12 c 0
 238 25 590 586 596 692 c 1
 586 706 536 845 528 868 c 0
 483 991 438 1114 391 1235 c 0
 364 1303 340 1377 301 1438 c 1
 303 1458 324 1466 342 1466 c 0
 358 1466 393 1376 399 1360 c 1
 399 1358 l 1
 430 1274 659 725 659 698 c 0
EndSplineSet
EndChar

StartChar: AE
Encoding: 198 198 105
Width: 923
Flags: W
HStem: -41 21G<498 528> -14 71<570.655 839.748> 641 49<553 712.424> 1497 57<535 737>
VStem: 502 47<36.6597 621 702 1389.34>
LayerCount: 2
Fore
SplineSet
489 -12 m 1
 501 68 506 147 506 229 c 0
 506 360 496 492 496 621 c 1
 485 635 l 1
 454 629 280 625 274 600 c 2
 172 209 l 2
 162 174 137 2 100 2 c 0
 90 2 84 19 84 27 c 0
 86 121 141 336 166 432 c 0
 248 756 336 1076 434 1393 c 0
 446 1434 473 1544 528 1544 c 0
 579 1544 633 1554 686 1554 c 0
 706 1554 750 1551 750 1522 c 1
 737 1497 l 1
 669 1497 603 1493 535 1485 c 1
 535 1385 549 1282 549 1180 c 0
 549 1020 543 862 543 702 c 1
 553 690 l 1
 608 690 660 711 715 711 c 1
 743 676 l 1
 743 644 664 641 597 641 c 0
 577 641 558 641 543 641 c 1
 543 479 551 318 551 154 c 0
 551 125 549 99 549 70 c 0
 549 60 549 35 567 35 c 0
 645 35 721 57 799 57 c 0
 813 57 844 51 844 31 c 0
 844 -18 600 2 565 -14 c 1
 547 -24 538 -39 518 -41 c 1
 489 -12 l 1
489 1393 m 1
 464 1362 295 727 289 664 c 1
 348 666 439 674 494 688 c 1
 496 844 502 997 502 1153 c 0
 502 1235 499 1315 489 1393 c 1
EndSplineSet
EndChar

StartChar: Eth
Encoding: 265 208 115
Width: 839
Flags: W
HStem: 741 72<72.0639 217> 770 74<303.203 465>
VStem: 182 70<1155.64 1534> 242 67<195.828 751.79> 260 70<6 359.984> 659 74<423.035 1025.4>
LayerCount: 2
Fore
SplineSet
262 -49 m 1xa4
 260 -49 l 1xac
 260 166 252 391 242 602 c 1x94
 238 651 237 707 225 754 c 1
 182 754 141 741 100 741 c 0
 75 741 72 756 72 776 c 0
 72 810 160 813 199 813 c 0
 217 813 l 1
 225 817 l 1
 225 819 227 825 227 827 c 0
 227 950 199 1073 199 1196 c 0
 199 1319 182 1440 182 1563 c 0
 182 1573 203 1606 215 1606 c 0
 395 1606 561 1384 637 1241 c 1
 637 1237 l 1
 709 1034 733 848 733 649 c 0
 733 387 572 23 322 -88 c 1
 293 -74 278 -82 262 -49 c 1xa4
311 451 m 1
 309 449 l 1x54
 309 302 330 153 330 6 c 1
 363 12 380 36 403 59 c 0
 534 188 659 430 659 616 c 0
 659 778 659 927 616 1087 c 1
 575 1286 459 1477 256 1538 c 1
 252 1534 l 1
 252 1438 270 864 301 821 c 1
 348 821 395 844 442 844 c 0
 467 844 483 815 485 795 c 1
 465 770 l 1x6c
 410 770 352 768 297 756 c 1
 297 719 307 469 311 451 c 1
EndSplineSet
EndChar

StartChar: Oslash
Encoding: 216 216 122
Width: 602
Flags: W
HStem: -20 43<236.604 356.771> 1513 56<207.247 307.402> 1530 20G<309 328>
VStem: 100 43<-240 -118.386 626.994 1233.94> 162 53<47.3644 232.968> 317 56<1435.05 1501.93> 381 37<1696.2 1798> 438 43<162.581 781.122>
LayerCount: 2
Fore
SplineSet
133 -264 m 1xbf
 102 -240 l 1
 104 -162 125 -135 162 111 c 1
 162 136 147 159 143 184 c 0
 103 434 100 698 100 952 c 0
 100 995 100 1038 100 1081 c 0
 100 1194 100 1569 250 1569 c 0xdf
 270 1569 293 1546 309 1546 c 1
 317 1550 l 1
 328 1540 l 1
 357 1624 363 1714 381 1798 c 1
 418 1798 l 1
 416 1739 l 1
 406 1673 373 1491 373 1491 c 1
 373 1468 389 1448 403 1432 c 1
 401 1427 l 1
 405 1404 422 1384 432 1366 c 1
 448 1327 455 1272 455 1229 c 1
 451 1227 l 1
 451 1104 481 973 481 850 c 2
 481 838 l 1
 485 831 l 1
 485 702 492 573 492 444 c 0
 492 303 490 -20 289 -20 c 0
 252 -20 211 -11 188 20 c 1
 186 20 l 1
 178 -31 151 -174 133 -264 c 1xbf
215 119 m 0
 215 51 239 23 305 23 c 0
 438 23 438 311 438 399 c 0
 438 596 435 1250 365 1389 c 1
 302 1002 303 598 229 215 c 0
 223 182 215 150 215 119 c 0
162 705 m 1
 162 562 186 417 186 274 c 1
 209 303 281 1112 293 1227 c 0
 301 1303 317 1378 317 1456 c 0
 317 1491 283 1513 252 1513 c 0
 248 1513 225 1503 219 1501 c 1
 207 1505 l 1
 146 1468 143 1002 143 852 c 0
 143 848 143 843 143 839 c 0
 143 796 144 746 162 705 c 1
EndSplineSet
EndChar

StartChar: oslash
Encoding: 248 248 149
Width: 565
Flags: W
HStem: -14 39<221.261 334.35> 1331 51<194.121 286.739>
VStem: 96 41<530.328 1162.09> 102 74<-209.309 4.71735> 152 49<44.7481 225.215> 295 51<1258.05 1321> 354 33<1512.91 1591> 406 38<152.18 744.599>
LayerCount: 2
Fore
SplineSet
102 -219 m 1xd7
 114 -98 140 -17 152 104 c 1
 152 127 141 149 137 172 c 0
 99 398 96 638 96 870 c 0
 96 911 96 952 96 993 c 0xef
 96 1083 96 1382 233 1382 c 0
 253 1382 273 1368 289 1360 c 1
 295 1364 l 1
 309 1350 l 1
 317 1383 336 1513 354 1591 c 1
 387 1591 l 1
 387 1573 l 2
 387 1553 346 1334 346 1311 c 0
 346 1291 363 1271 373 1255 c 1
 371 1251 l 1
 375 1231 391 1214 399 1196 c 0
 415 1161 422 1110 422 1071 c 1
 418 1069 l 1
 418 973 444 876 444 780 c 2
 444 770 l 1
 449 764 l 1
 449 645 455 529 455 410 c 0
 455 281 452 -14 268 -14 c 0
 235 -14 198 -6 178 23 c 1
 176 23 l 1
 176 31 148 -248 121 -248 c 0
 109 -248 102 -239 102 -219 c 1xd7
201 111 m 0
 201 50 224 25 285 25 c 0
 406 25 406 287 406 369 c 0
 406 537 401 1096 338 1217 c 1
 281 881 238 285 215 201 c 0
 207 170 201 142 201 111 c 0
152 647 m 1
 152 516 176 385 176 254 c 1xd7
 201 404 260 969 272 1069 c 0
 280 1139 295 1208 295 1280 c 0
 295 1311 263 1331 236 1331 c 0
 232 1331 211 1323 205 1321 c 1
 195 1323 l 1
 140 1294 137 907 137 782 c 0
 137 778 137 773 137 768 c 0
 137 731 138 683 152 647 c 1
EndSplineSet
EndChar

StartChar: ydieresis
Encoding: 255 255 155
Width: 561
Flags: W
HStem: -31 21G<304 329.5> 1479 102<-11.3496 75.7234 449.978 542.01>
VStem: -12 90<1479.35 1580.68> 283 51<354.878 666> 299 53<-5.74197 626.048> 449 94<1487.51 1582.67>
LayerCount: 2
Fore
SplineSet
449 1532 m 0xe4
 449 1557 473 1583 498 1583 c 0
 521 1583 543 1554 543 1534 c 0
 543 1501 520 1487 489 1487 c 0
 466 1487 449 1512 449 1532 c 0xe4
-12 1530 m 0
 -12 1553 12 1581 37 1581 c 0
 70 1581 78 1538 78 1513 c 0
 78 1488 47 1479 27 1479 c 0
 2 1479 -12 1510 -12 1530 c 0
279 -8 m 1
 297 37 299 287 299 350 c 0xec
 299 454 287 562 283 666 c 1
 270 692 l 1
 276 717 l 1
 239 817 78 1233 76 1307 c 1
 104 1329 l 1
 151 1321 258 821 297 811 c 1
 305 848 l 1
 301 858 l 1
 340 905 387 1360 446 1360 c 0
 458 1360 473 1353 473 1339 c 0
 473 1304 446 1221 436 1186 c 0
 393 1034 336 873 336 723 c 1
 340 713 346 700 346 688 c 0
 346 668 334 652 334 629 c 0xf4
 334 566 350 505 350 442 c 0
 350 333 352 226 352 117 c 0
 352 115 352 111 352 108 c 0xec
 352 69 350 -31 309 -31 c 0
 299 -31 283 -16 279 -8 c 1
EndSplineSet
EndChar

StartChar: quoteright
Encoding: 266 8217 156
Width: 397
Flags: W
HStem: 1217 337<190 203>
VStem: 207 86<1338.61 1440.35>
LayerCount: 2
Fore
SplineSet
96 1233 m 1
 100 1251 l 1
 141 1290 207 1338 207 1401 c 1
 176 1419 147 1454 147 1491 c 0
 147 1530 190 1554 225 1554 c 0
 264 1554 281 1528 293 1495 c 1
 289 1489 l 1
 293 1481 293 1472 293 1464 c 0
 293 1398 203 1219 129 1217 c 1
 96 1233 l 1
EndSplineSet
EndChar

StartChar: quoteleft
Encoding: 267 8216 157
Width: 395
Flags: W
HStem: 1217 337<190 203>
VStem: 100 86<1330.65 1432.39>
LayerCount: 2
Fore
SplineSet
297 1538 m 1
 293 1520 l 1
 252 1481 186 1433 186 1370 c 1
 217 1352 246 1317 246 1280 c 0
 246 1241 203 1217 168 1217 c 0
 129 1217 112 1243 100 1276 c 1
 104 1282 l 1
 100 1290 100 1299 100 1307 c 0
 100 1373 190 1552 264 1554 c 1
 297 1538 l 1
EndSplineSet
EndChar

StartChar: fraction
Encoding: 268 8260 158
Width: 559
Flags: W
HStem: -6 21G<100 127.5>
VStem: 86 393
LayerCount: 2
Fore
SplineSet
479 1505 m 0
 479 1489 442 1337 438 1317 c 0
 364 977 285 641 207 299 c 2
 166 121 l 2
 156 78 149 -2 106 -6 c 1
 94 2 86 17 86 31 c 0
 86 129 131 268 158 387 c 0
 238 741 322 1096 414 1448 c 0
 418 1460 433 1532 449 1532 c 0
 465 1532 479 1523 479 1505 c 0
EndSplineSet
EndChar

StartChar: quotedblleft
Encoding: 269 8220 159
Width: 608
Flags: W
HStem: 1217 337<190 203 403 416>
VStem: 100 86<1330.65 1432.39> 313 86<1330.65 1432.39>
LayerCount: 2
Fore
SplineSet
297 1538 m 1
 293 1520 l 1
 252 1481 186 1433 186 1370 c 1
 217 1352 246 1317 246 1280 c 0
 246 1241 203 1217 168 1217 c 0
 129 1217 112 1243 100 1276 c 1
 104 1282 l 1
 100 1290 100 1299 100 1307 c 0
 100 1373 190 1552 264 1554 c 1
 297 1538 l 1
510 1538 m 1
 506 1520 l 1
 465 1481 399 1433 399 1370 c 1
 430 1352 459 1317 459 1280 c 0
 459 1241 416 1217 381 1217 c 0
 342 1217 325 1243 313 1276 c 1
 317 1282 l 1
 313 1290 313 1299 313 1307 c 0
 313 1373 403 1552 477 1554 c 1
 510 1538 l 1
EndSplineSet
EndChar

StartChar: guilsinglleft
Encoding: 270 8249 160
Width: 569
Flags: W
HStem: 0 21G<457 468>
VStem: 84 72<623.502 801.703> 307 105<1254.4 1385.03>
LayerCount: 2
Fore
SplineSet
430 4 m 1
 387 67 352 160 313 242 c 2
 211 455 l 2
 197 486 178 518 166 549 c 0
 148 598 84 645 84 698 c 0
 84 755 274 1149 307 1247 c 0
 319 1282 346 1415 385 1421 c 1
 412 1401 l 1
 381 1202 156 870 156 700 c 0
 156 675 434 116 471 53 c 1
 489 39 l 1
 487 27 475 0 461 0 c 0
 453 0 444 4 434 4 c 2
 430 4 l 1
EndSplineSet
EndChar

StartChar: guilsinglright
Encoding: 271 8250 161
Width: 569
Flags: W
HStem: 0 21G<102 113>
VStem: 158 104<1254.4 1384.55> 414 71<625.173 802.133>
LayerCount: 2
Fore
SplineSet
139 4 m 1
 127 4 117 0 109 0 c 0
 95 0 82 27 80 39 c 1
 98 53 l 1
 135 119 414 675 414 700 c 0
 414 870 189 1202 158 1401 c 1
 184 1421 l 1
 225 1413 250 1284 262 1247 c 0
 295 1149 485 757 485 698 c 0
 485 647 421 598 403 549 c 0
 391 516 372 486 358 455 c 2
 182 90 l 2
 168 61 155 29 139 4 c 1
EndSplineSet
EndChar

StartChar: quotesinglbase
Encoding: 272 8218 162
Width: 407
Flags: W
HStem: -178 338<194 207>
VStem: 211 86<-56.094 45.3467>
LayerCount: 2
Fore
SplineSet
100 -162 m 1
 104 -143 l 1
 145 -104 211 -57 211 6 c 1
 180 24 152 59 152 96 c 0
 152 135 194 160 229 160 c 0
 268 160 285 133 297 100 c 1
 293 94 l 1
 297 86 297 78 297 70 c 0
 297 4 207 -176 133 -178 c 1
 100 -162 l 1
EndSplineSet
EndChar

StartChar: quotedblbase
Encoding: 273 8222 163
Width: 636
Flags: W
HStem: -174 334
VStem: 215 86<-54.3137 45.3467> 440 86<-58.3703 45.3467>
LayerCount: 2
Fore
SplineSet
125 -174 m 1
 100 -158 l 1
 127 -97 215 -72 215 6 c 1
 184 24 156 59 156 96 c 0
 156 135 198 160 233 160 c 0
 274 160 301 121 301 82 c 0
 301 4 215 -174 125 -174 c 1
330 -162 m 1
 334 -143 l 1
 375 -104 440 -57 440 6 c 1
 409 24 381 59 381 96 c 0
 381 135 424 160 459 160 c 0
 500 160 526 121 526 82 c 0
 526 10 444 -176 362 -178 c 1
 330 -162 l 1
EndSplineSet
EndChar

StartChar: quotedblright
Encoding: 274 8221 164
Width: 643
Flags: W
HStem: 1217 337<190 203 436 449>
VStem: 207 86<1338.61 1440.35> 453 86<1338.61 1440.35>
LayerCount: 2
Fore
SplineSet
96 1233 m 1
 100 1251 l 1
 141 1290 207 1338 207 1401 c 1
 176 1419 147 1454 147 1491 c 0
 147 1530 190 1554 225 1554 c 0
 264 1554 281 1528 293 1495 c 1
 289 1489 l 1
 293 1481 293 1472 293 1464 c 0
 293 1398 203 1219 129 1217 c 1
 96 1233 l 1
342 1233 m 1
 346 1251 l 1
 387 1290 453 1338 453 1401 c 1
 422 1419 393 1454 393 1491 c 0
 393 1530 436 1554 471 1554 c 0
 510 1554 527 1528 539 1495 c 1
 535 1489 l 1
 539 1481 539 1472 539 1464 c 0
 539 1398 449 1219 375 1217 c 1
 342 1233 l 1
EndSplineSet
EndChar

StartChar: circumflex
Encoding: 275 710 165
Width: 479
Flags: W
HStem: 950 383
VStem: 98 72<1008 1096.97> 315 64<967 996.805>
LayerCount: 2
Fore
SplineSet
342 950 m 1
 315 967 l 1
 307 1071 283 1174 256 1274 c 1
 238 1221 174 1053 170 1008 c 1
 135 961 l 1
 98 987 l 1
 100 1038 225 1333 270 1333 c 0
 297 1333 299 1310 299 1290 c 0
 299 1200 337 1135 360 1051 c 1
 358 1038 l 1
 373 1008 l 1
 371 997 l 1
 373 993 379 979 379 975 c 0
 379 959 354 952 342 950 c 1
EndSplineSet
EndChar

StartChar: tilde
Encoding: 276 732 166
Width: 653
Flags: W
HStem: 1022 54<365.331 477.812> 1149 48<175.813 238>
VStem: 111 51<1039.8 1132.88> 487 56<1082.13 1194.67>
LayerCount: 2
Fore
SplineSet
111 1055 m 0
 111 1147 170 1197 230 1197 c 0
 261 1197 293 1183 317 1155 c 1
 336 1116 392 1076 434 1076 c 0
 464 1076 487 1096 487 1149 c 0
 487 1163 477 1174 475 1188 c 1
 479 1196 488 1200 496 1200 c 0
 531 1200 543 1159 543 1130 c 0
 543 1073 491 1022 434 1022 c 0
 354 1022 299 1088 252 1143 c 1
 238 1149 l 1
 199 1149 162 1125 162 1094 c 0
 162 1080 168 1065 172 1051 c 1
 150 1020 l 1
 134 1020 111 1037 111 1055 c 0
EndSplineSet
EndChar

StartChar: breve
Encoding: 277 728 167
Width: 518
Flags: W
HStem: 891 47<225 312.277>
VStem: 344 68<1049.38 1109.88>
LayerCount: 2
Fore
SplineSet
109 1100 m 5
 131 1118 l 5
 166 1116 144 997 203 954 c 6
 225 938 l 5
 276 938 l 6
 315 938 346 1009 346 1042 c 4
 346 1052 344 1061 344 1071 c 4
 344 1091 350 1110 381 1110 c 4
 395 1110 412 1097 412 1081 c 4
 412 1073 403 1057 401 1049 c 5
 406 1034 l 5
 371 960 358 891 258 891 c 4
 143 891 109 1006 109 1100 c 5
EndSplineSet
EndChar

StartChar: ring
Encoding: 278 730 168
Width: 395
Flags: W
HStem: 1057 39<140.897 229.756> 1253 39<156.661 234.535>
VStem: 80 47<1104.67 1226.89> 258 53<1116.34 1238.09>
LayerCount: 2
Fore
SplineSet
80 1165 m 0
 80 1226 138 1292 199 1292 c 0
 252 1292 311 1225 311 1174 c 0
 311 1094 254 1057 180 1057 c 0
 125 1057 80 1112 80 1165 c 0
127 1176 m 0
 127 1151 133 1096 172 1096 c 0
 201 1096 258 1120 258 1153 c 0
 258 1192 244 1253 199 1253 c 0
 166 1253 127 1213 127 1176 c 0
EndSplineSet
EndChar

StartChar: hungarumlaut
Encoding: 279 733 169
Width: 1222
Flags: W
HStem: 39 293
LayerCount: 2
Fore
SplineSet
142 50 m 1
 149 81 476 332 500 332 c 0
 503 332 523 317 523 301 c 0
 523 294 519 287 509 281 c 1
 492 268 335 148 307 130 c 1
 252 104 212 53 152 39 c 1
 142 50 l 1
450 60 m 0
 450 85 673 238 703 257 c 0
 717 265 803 317 817 317 c 0
 832 317 855 288 859 267 c 1
 753 207 l 1
 728 197 678 171 642 152 c 0
 612 136 479 45 461 45 c 0
 451 45 450 52 450 60 c 0
EndSplineSet
EndChar

StartChar: caron
Encoding: 280 711 170
Width: 473
Flags: W
HStem: 950 383
VStem: 92 72<1186.04 1276> 309 64<1286.2 1317>
LayerCount: 2
Fore
SplineSet
309 1317 m 1
 336 1333 l 1
 348 1331 373 1325 373 1309 c 0
 373 1305 367 1290 365 1286 c 1
 367 1276 l 1
 352 1245 l 1
 354 1233 l 1
 331 1149 293 1083 293 993 c 0
 293 973 291 950 264 950 c 0
 219 950 94 1245 92 1296 c 1
 129 1323 l 1
 164 1276 l 1
 168 1231 232 1063 250 1010 c 1
 277 1110 301 1213 309 1317 c 1
EndSplineSet
EndChar

StartChar: OE
Encoding: 281 338 171
Width: 1163
Flags: W
HStem: -20 55<786 1073> 10 62<405.011 696.906> 778 58<772.233 955.434> 1470 56<739 1016.84> 1497 55<320.214 593.153>
VStem: 94 49<476.955 741 749.17 1205.45> 692 47<1156.85 1423.97> 705 63<762.609 781.954 835.266 1397.15> 733 39<114.305 528.801>
LayerCount: 2
Fore
SplineSet
713 10 m 1x6480
 725 43 l 1
 676 37 629 10 580 10 c 0
 265 10 104 250 104 545 c 0
 104 684 94 826 94 965 c 0
 94 1147 145 1552 391 1552 c 0x6c80
 483 1552 620 1545 686 1473 c 1
 680 1495 l 1
 711 1538 l 1
 738 1538 764 1526 791 1526 c 2
 942 1526 l 2
 956 1526 973 1530 987 1530 c 1
 997 1524 1018 1505 1018 1493 c 0
 1018 1473 995 1470 981 1470 c 0
 901 1470 819 1479 739 1479 c 1x36
 739 1327 768 1176 768 1024 c 0x35
 768 989 764 953 764 918 c 0
 764 889 766 861 774 834 c 1
 854 831 l 2
 872 831 889 836 907 836 c 0
 927 836 944 827 956 811 c 1
 956 786 949 778 924 778 c 0
 893 778 862 784 831 784 c 0
 821 784 772 784 772 766 c 0
 772 522 786 279 786 35 c 1
 839 37 891 43 944 43 c 0
 969 43 1085 43 1085 4 c 1
 1073 -14 l 1
 969 -14 866 -20 762 -20 c 0xb480
 744 -20 715 -13 713 10 c 1x6480
268 197 m 1
 338 121 426 72 530 72 c 0
 581 72 733 80 733 154 c 0x6c80
 733 488 705 819 705 1153 c 0x6d
 705 1235 692 1319 692 1401 c 1x6e
 635 1477 516 1497 426 1497 c 0
 174 1497 143 1153 143 967 c 0
 143 918 145 868 145 821 c 0
 145 796 145 773 143 748 c 1
 147 741 l 1
 147 653 172 211 268 197 c 1
EndSplineSet
EndChar

StartChar: trademark
Encoding: 282 8482 172
Width: 1075
Flags: W
HStem: 1493 51<102 265.559 334 398.312> 1501 64<106.688 265.559 334 459>
VStem: 266 70<656.654 708.714 711.486 1277.44 1364.11 1495> 268 54<877.688 1492.89> 502 76<642.119 1289.65> 885 71<647.011 1336.13>
LayerCount: 2
Fore
SplineSet
266 662 m 1x6c
 268 670 268 678 268 688 c 0x5c
 268 704 266 721 266 739 c 2
 266 750 l 1
 272 756 272 807 272 815 c 0
 272 829 272 867 266 879 c 1x6c
 268 906 270 934 270 961 c 0
 270 1037 262 1114 262 1190 c 0
 262 1262 268 1331 268 1403 c 0
 268 1417 268 1491 258 1501 c 1x5c
 221 1501 184 1493 145 1493 c 0
 133 1493 88 1493 88 1513 c 2
 88 1520 l 1
 102 1544 l 1x9c
 202 1552 303 1565 403 1565 c 0
 421 1565 441 1561 459 1561 c 1
 483 1536 l 1
 483 1505 449 1501 408 1501 c 0
 383 1501 354 1503 334 1503 c 1
 328 1495 l 1
 324 1450 322 1407 322 1362 c 0x5c
 322 1198 336 1034 336 870 c 0
 336 817 334 762 330 709 c 1
 332 703 338 690 338 684 c 0
 338 668 309 651 295 647 c 1
 266 662 l 1x6c
502 690 m 0
 502 762 514 835 514 907 c 0
 514 1120 514 1333 532 1546 c 1
 546 1560 559 1589 582 1589 c 0
 594 1589 608 1575 616 1567 c 1
 614 1561 614 1554 614 1546 c 0
 614 1442 689 1285 709 1174 c 0
 713 1154 719 1059 733 1053 c 1
 796 1203 835 1364 874 1522 c 0
 882 1555 885 1616 932 1616 c 0
 948 1616 965 1605 965 1587 c 0
 965 1442 942 1298 942 1153 c 0
 942 1030 956 909 956 786 c 0
 956 751 956 641 903 641 c 0
 885 641 872 643 872 666 c 0
 872 744 885 823 885 901 c 0
 885 997 874 1096 874 1192 c 0
 874 1233 881 1278 881 1319 c 0
 881 1327 881 1333 877 1339 c 1
 865 1294 842 1131 811 1108 c 1
 801 1088 799 1063 799 1040 c 1
 793 1034 l 1
 795 1030 l 1
 785 999 770 864 729 864 c 0
 659 864 684 1018 659 1063 c 1
 645 1182 602 1296 582 1415 c 1
 568 1229 567 1084 567 877 c 0
 567 814 570 747 578 733 c 1
 578 727 578 722 578 717 c 0
 578 670 576 641 526 641 c 0
 501 641 502 674 502 690 c 0
EndSplineSet
EndChar

StartChar: e_e
Encoding: 283 -1 173
Width: 905
Flags: W
HStem: -25 60<180.647 405.297 604.746 815.928> 641 59<598 761.66> 743 60<174.122 347.827> 1239 98<602.311 797.166> 1278 72<600 615.622> 1278 60<188 392.968>
VStem: 117 57<33.0089 743 803 1266> 518 70<45.4077 631 700.021 1266>
LayerCount: 2
Fore
SplineSet
113 430 m 1xe7
 109 430 l 1
 109 635 117 840 117 1047 c 0
 117 1129 109 1210 109 1292 c 0
 109 1325 121 1338 177 1338 c 0
 218 1338 353 1334 383 1325 c 1
 389 1322 393 1315 393 1307 c 0
 393 1294 382 1278 354 1278 c 2
 188 1278 l 1
 178 1266 l 1
 180 1237 180 1207 180 1178 c 0
 180 1072 172 966 172 860 c 0
 172 831 174 803 180 803 c 2
 311 803 l 2
 321 803 348 801 348 770 c 0
 348 758 336 745 307 745 c 0
 293 745 268 745 260 743 c 1
 182 743 l 2
 178 743 174 737 174 727 c 0
 178 674 178 618 178 565 c 0
 178 469 174 370 174 274 c 0
 174 219 176 166 180 111 c 1
 180 45 182 33 188 33 c 0
 239 33 291 37 346 37 c 0
 364 37 406 37 406 10 c 0
 406 -27 344 -27 317 -27 c 1
 156 -33 l 1
 127 -33 117 -15 115 10 c 1
 115 127 113 283 113 430 c 1xe7
520 211 m 0
 520 227 520 383 518 430 c 1
 518 635 532 840 532 1047 c 0
 532 1129 524 1210 524 1292 c 0
 524 1329 539 1350 584 1350 c 0xeb
 596 1350 608 1347 616 1337 c 1xf3
 651 1327 801 1325 805 1278 c 1xe7
 805 1264 776 1245 766 1239 c 1xf3
 717 1255 649 1276 600 1278 c 1xeb
 590 1266 l 1
 592 1237 592 1207 592 1178 c 0
 592 1037 584 899 584 758 c 0
 584 729 587 700 612 700 c 0
 635 700 657 705 682 705 c 0
 705 705 760 703 762 668 c 0
 762 652 750 633 721 633 c 0
 707 633 682 633 674 631 c 1
 606 641 l 1
 598 641 l 1
 588 631 l 1
 588 625 l 1
 592 592 592 557 592 524 c 0
 592 442 588 358 588 276 c 0
 588 221 590 168 594 113 c 0
 598 47 621 35 682 35 c 0
 707 35 731 39 758 39 c 0
 776 39 817 39 817 12 c 0
 817 -25 756 -25 729 -25 c 2
 559 -25 l 2
 534 -25 526 -7 524 18 c 0
 520 79 520 150 520 211 c 0
EndSplineSet
Ligature2: "'liga' Standard Ligatures in Latin lookup 0-1" e e
EndChar

StartChar: l_l
Encoding: 284 -1 174
Width: 913
Flags: W
HStem: -25 64<174 203 207 423.801 602 827.762>
VStem: 109 67<33.3035 1320.82> 125 55<1179.33 1338.99> 498 77<41 346 360 1330.31> 514 59<1175.33 1328.87>
LayerCount: 2
Fore
SplineSet
207 -29 m 1xc0
 203 -33 l 1
 180 -33 162 -33 139 -33 c 0
 116 -33 106 -4 104 14 c 1
 108 32 109 56 109 76 c 0xc0
 109 371 117 663 117 958 c 0
 117 1026 117 1131 121 1178 c 1
 121 1205 125 1319 125 1321 c 0
 124 1330 138 1339 153 1339 c 0
 165 1339 177 1333 180 1315 c 1xa0
 180 1055 176 779 176 539 c 0
 176 443 176 344 176 248 c 1
 174 180 174 101 174 33 c 1
 205 33 227 33 381 43 c 1
 393 45 424 41 424 10 c 0
 424 -15 399 -12 389 -16 c 1
 332 -22 268 -29 207 -29 c 1xc0
535 -25 m 0
 501 -25 498 22 498 62 c 0
 498 70 498 77 498 84 c 0x90
 498 375 506 663 506 954 c 0
 506 1022 506 1127 510 1174 c 1
 510 1201 514 1315 514 1319 c 0
 514 1328 520 1331 529 1331 c 0
 546 1331 573 1319 573 1319 c 1x88
 573 1264 574 1212 578 1157 c 1
 578 948 571 728 571 535 c 0
 571 478 575 417 575 360 c 1
 569 344 l 1
 571 346 l 1
 571 340 569 336 569 330 c 0
 569 320 571 309 575 301 c 1x90
 569 41 l 1
 776 41 622 39 776 39 c 0
 778 39 780 39 783 39 c 0
 801 39 829 32 829 -4 c 0
 829 -16 803 -23 791 -25 c 1
 732 -23 665 -23 602 -23 c 1
 598 -27 l 1
 575 -25 558 -25 535 -25 c 0
EndSplineSet
Ligature2: "'liga' Standard Ligatures in Latin lookup 0-1" l l
EndChar

StartChar: m_m
Encoding: 285 -1 175
Width: 1804
Flags: W
HStem: -37 33G<135 148 784 800.5 1024 1037 1633.5 1653>
VStem: 104 76<-36.8776 396.072> 139 62<900.098 1169> 731 49<866.697 1186.24> 748 77<-22.9637 518.442> 993 76<-22.8776 418.428> 1008 61<869.178 1186> 1597 52<833.779 1200.24> 1614 80<-22.9825 442.417>
LayerCount: 2
Fore
SplineSet
784 -25 m 1x88
 784 -23 l 1
 749 -23 748 27 748 45 c 2
 748 103 l 2x88
 748 278 747 452 731 623 c 1
 731 678 729 733 729 788 c 0
 729 872 729 958 725 1042 c 1
 725 1083 725 1151 717 1188 c 1
 699 1077 546 346 526 225 c 1
 518 200 516 117 471 117 c 0
 438 117 428 150 428 207 c 1
 401 377 232 1081 201 1169 c 1xb0
 193 802 180 439 180 72 c 0xc0
 180 45 180 17 182 -10 c 1
 176 -28 157 -37 139 -37 c 0xa0
 131 -37 104 -18 104 -8 c 0xc0
 104 424 139 852 139 1284 c 0
 139 1298 127 1309 127 1323 c 0
 127 1350 164 1354 182 1354 c 0
 243 1354 230 1280 240 1249 c 1
 254 1175 295 1033 313 920 c 1
 336 834 365 750 381 664 c 1
 414 522 l 1
 432 440 473 248 473 248 c 1
 487 330 625 1081 645 1194 c 1
 663 1268 661 1348 731 1348 c 0
 747 1348 780 1331 780 1247 c 0xb0
 780 1014 811 394 811 242 c 0
 811 181 813 116 821 57 c 0
 823 48 825 36 825 23 c 0
 825 -1 817 -25 784 -25 c 1x88
1653 -23 m 1
 1651 -27 l 1
 1616 -27 1614 23 1614 41 c 2
 1614 99 l 2x8080
 1614 274 1613 447 1597 618 c 1
 1597 673 1595 729 1595 784 c 0
 1595 874 1595 967 1591 1057 c 1
 1591 1098 1591 1165 1583 1202 c 1
 1565 1100 1413 416 1393 303 c 1
 1385 278 1382 195 1337 195 c 0
 1288 195 1292 250 1274 324 c 1
 1233 463 1092 1075 1069 1186 c 1x83
 1069 86 l 2
 1069 59 1069 31 1071 4 c 1
 1065 -14 1046 -23 1028 -23 c 0
 1020 -23 993 -4 993 6 c 0x84
 993 426 1008 842 1008 1262 c 0
 1008 1298 1026 1319 1046 1319 c 0
 1069 1319 1096 1292 1108 1227 c 1
 1124 1157 1172 1024 1192 920 c 1
 1206 854 1337 285 1337 285 c 1
 1351 367 1493 1103 1513 1214 c 1
 1531 1265 1529 1323 1599 1323 c 0
 1615 1323 1649 1307 1649 1223 c 0x83
 1649 996 1679 391 1679 244 c 0
 1679 183 1682 118 1690 59 c 0
 1692 50 1694 38 1694 25 c 0x8080
 1694 1 1686 -23 1653 -23 c 1
EndSplineSet
Ligature2: "'liga' Standard Ligatures in Latin lookup 0-1" m m
EndChar

StartChar: periodcentered
Encoding: 290 183 180
Width: 327
Flags: W
HStem: 696 105<114.473 213.904>
VStem: 113 102<696.909 799.972>
LayerCount: 2
Fore
SplineSet
113 745 m 0
 113 772 139 801 166 801 c 0
 191 801 215 771 215 748 c 0
 215 711 191 696 158 696 c 0
 133 696 113 722 113 745 c 0
EndSplineSet
EndChar

StartChar: dotaccentcmb
Encoding: 291 775 181
Width: 1705
Flags: W
HStem: 1153 104<114.17 213.904>
VStem: 113 102<1153.9 1255.97>
LayerCount: 2
Fore
SplineSet
113 1202 m 0
 113 1229 139 1257 166 1257 c 0
 191 1257 215 1227 215 1204 c 0
 215 1167 191 1153 158 1153 c 0
 133 1153 113 1179 113 1202 c 0
EndSplineSet
EndChar

StartChar: dotaccent
Encoding: 292 729 182
Width: 1705
Flags: W
HStem: 1153 104<114.17 213.904>
VStem: 113 102<1153.9 1255.97>
LayerCount: 2
Fore
SplineSet
113 1202 m 0
 113 1229 139 1257 166 1257 c 0
 191 1257 215 1227 215 1204 c 0
 215 1167 191 1153 158 1153 c 0
 133 1153 113 1179 113 1202 c 0
EndSplineSet
EndChar

StartChar: dotlessi
Encoding: 293 305 183
Width: 550
Flags: W
HStem: 0 21G<274 296.5> 16 70<140.216 223 303.023 468.485> 1294 56<74.1065 222.062>
VStem: 223 64<174.152 1043.59> 238 61<85.2986 104 109.294 523.848 712.354 1275.08>
LayerCount: 2
Fore
SplineSet
227 20 m 1xa8
 215 20 203 18 193 18 c 0
 173 18 147 21 137 39 c 1
 137 57 152 60 164 74 c 1
 223 74 l 1xb0
 231 82 l 1
 233 96 238 111 238 125 c 0xa8
 238 275 223 423 223 573 c 0
 223 733 233 893 233 1051 c 0
 233 1131 231 1210 223 1288 c 1
 203 1294 182 1294 162 1294 c 0
 146 1294 129 1290 113 1290 c 0
 88 1290 74 1300 74 1325 c 0
 74 1339 111 1350 123 1350 c 0
 162 1350 408 1349 408 1288 c 0
 408 1282 405 1276 403 1272 c 1
 356 1268 l 1
 340 1280 317 1280 297 1280 c 1
 287 1274 l 1
 293 1256 293 1206 293 1165 c 0
 293 1003 287 840 287 678 c 0xb0
 287 528 301 379 301 229 c 0
 301 217 299 191 299 166 c 0
 299 139 301 115 305 109 c 1
 303 104 l 1
 303 84 334 84 348 84 c 0
 368 84 388 86 408 86 c 0
 428 86 469 86 469 57 c 0
 469 32 449 16 424 16 c 0x68
 401 16 379 23 356 23 c 0
 325 23 310 0 283 0 c 0
 265 0 235 0 227 20 c 1xa8
EndSplineSet
EndChar

StartChar: dotlessj
Encoding: 294 567 184
Width: 573
Flags: W
HStem: 1247 113<353.824 413.946> 1268 92<130.203 416.637>
VStem: 272 62<869.13 1260> 291 63<-18.8773 562.87>
LayerCount: 2
Fore
SplineSet
70 -197 m 0x50
 70 -181 205 -107 225 -84 c 0
 274 -29 291 100 291 172 c 0x50
 291 534 272 898 272 1260 c 1
 260 1282 l 1
 231 1294 111 1296 111 1335 c 0
 111 1347 144 1360 154 1360 c 0x60
 203 1360 496 1317 496 1274 c 0
 496 1256 479 1247 463 1247 c 0xa0
 424 1247 391 1268 352 1268 c 0
 334 1268 334 1237 334 1227 c 0x60
 334 942 354 660 354 377 c 2
 354 152 l 1
 342 125 342 95 342 66 c 0
 342 -34 278 -252 133 -252 c 2
 119 -252 l 1
 72 -205 l 1
 72 -203 70 -199 70 -197 c 0x50
EndSplineSet
EndChar

StartChar: Eng
Encoding: 299 330 189
Width: 772
Flags: W
HStem: 0 21G<123 190> 1532 20G<155.5 181>
VStem: 104 58<421.101 1301.07 1303.56 1399.48> 119 100<1369.91 1551.78> 123 67<16 416.936> 563 53<-245.021 22.994> 586 76<1461.08 1594.72> 586 51<117.562 618 627.844 1381.8 1399 1527.06>
LayerCount: 2
Fore
SplineSet
616 -131 m 0xc4
 616 -284 533 -401 442 -467 c 1
 415 -467 399 -455 399 -428 c 1
 401 -401 455 -378 473 -360 c 0
 555 -278 563 -133 563 -47 c 2
 563 -29 l 1
 555 -17 547 3 541 23 c 0
 445 326 323 703 266 1016 c 0
 260 1045 267 1079 244 1102 c 1
 248 1112 l 1
 230 1208 215 1309 178 1401 c 1
 176 1381 172 1361 172 1341 c 0
 172 1329 172 1315 176 1303 c 1
 164 1262 162 1204 162 1161 c 2
 162 600 l 2xe4
 162 403 190 213 190 16 c 1
 176 0 l 1
 129 0 l 1
 123 16 l 1xc8
 127 32 127 80 127 98 c 0
 127 336 104 573 104 811 c 2
 104 1079 l 2xe0
 104 1208 119 1337 119 1466 c 0
 119 1480 117 1495 117 1509 c 0
 117 1546 139 1552 172 1552 c 0
 190 1552 219 1533 219 1513 c 0
 219 1423 254 1385 279 1303 c 0
 299 1235 297 1164 311 1096 c 0
 350 908 410 723 459 539 c 1
 473 482 492 368 510 313 c 0
 528 258 569 115 569 115 c 1
 569 115 578 219 578 248 c 0
 578 486 586 723 586 961 c 0
 586 1067 580 1172 580 1278 c 0
 580 1305 586 1331 586 1356 c 0
 586 1362 586 1378 580 1382 c 1
 586 1399 l 1
 586 1446 l 2xd1
 586 1487 586 1528 578 1567 c 1
 584 1587 609 1595 629 1595 c 0
 660 1595 662 1551 662 1528 c 1xc2
 652 1508 649 1483 649 1460 c 0
 649 1437 651 1414 651 1391 c 0
 651 1371 651 1347 643 1329 c 1
 643 1114 637 897 637 682 c 0
 637 664 639 645 641 627 c 1
 637 618 l 1
 637 360 l 2xc1
 637 256 627 143 627 37 c 0
 627 -14 616 -59 616 -131 c 0xc4
EndSplineSet
EndChar

StartChar: eng
Encoding: 300 331 190
Width: 862
Flags: W
HStem: -4 21G<131.5 163.5>
VStem: 104 66<235.25 1185.79> 117 96<1146.99 1343.15> 117 65<-3.76108 638.251> 610 66<-246.148 -7.8368> 682 70<845.247 1128 1145 1339.29>
LayerCount: 2
Fore
SplineSet
469 418 m 1xac
 459 428 414 569 414 571 c 0
 385 661 229 1143 182 1188 c 1x9c
 170 1141 166 1091 166 1044 c 0
 166 989 170 936 170 883 c 0
 170 850 166 817 166 784 c 0
 166 749 170 713 170 676 c 0xcc
 170 664 168 653 168 641 c 0
 168 586 170 295 182 264 c 1
 182 80 l 1
 190 66 190 53 190 37 c 0
 190 17 175 -4 152 -4 c 0
 111 -4 109 79 109 106 c 0
 109 151 117 195 117 240 c 0x9c
 117 437 104 632 104 829 c 0xcc
 104 950 117 1071 117 1192 c 2
 117 1204 l 2
 117 1253 117 1317 154 1350 c 1
 160 1343 l 1
 180 1348 l 1
 205 1338 207 1317 213 1294 c 0
 276 1030 422 782 506 520 c 0
 547 391 561 244 631 125 c 1
 635 131 l 1
 674 502 682 874 682 1247 c 0
 682 1263 678 1280 678 1298 c 0
 678 1316 682 1341 707 1341 c 0
 736 1341 752 1307 752 1282 c 2
 752 1145 l 1
 741 1128 l 1
 741 1001 682 121 676 12 c 1
 676 -53 l 2
 676 -174 629 -444 428 -444 c 1
 393 -410 l 1
 393 -408 391 -403 391 -401 c 0
 391 -385 463 -389 526 -336 c 1
 587 -283 606 -148 610 -66 c 1
 575 76 l 2
 546 191 504 305 469 418 c 1xac
EndSplineSet
EndChar

StartChar: ellipsis
Encoding: 304 8230 194
Width: 983
Flags: W
HStem: -8 104<114.17 213.904 441.408 541.92 769.17 868.904>
VStem: 113 102<-7.10484 94.9718> 440 103<-7.10484 94.7441> 768 102<-7.10484 94.9718>
CounterMasks: 1 70
LayerCount: 2
Fore
SplineSet
113 41 m 0
 113 68 139 96 166 96 c 0
 191 96 215 66 215 43 c 0
 215 6 191 -8 158 -8 c 0
 133 -8 113 18 113 41 c 0
440 41 m 0
 440 68 467 96 494 96 c 0
 519 96 543 66 543 43 c 0
 543 6 518 -8 485 -8 c 0
 460 -8 440 18 440 41 c 0
768 41 m 0
 768 68 794 96 821 96 c 0
 846 96 870 66 870 43 c 0
 870 6 846 -8 813 -8 c 0
 788 -8 768 18 768 41 c 0
EndSplineSet
EndChar

StartChar: ae
Encoding: 230 230 195
Width: 923
Flags: W
HStem: -12 69<570.655 839.748> -12 47<549.471 795.345> 621 69<555.576 715> 1292 58<535 737>
VStem: 496 39<43.1769 152.643 242.4 600 682 1235.83>
LayerCount: 2
Fore
SplineSet
489 14 m 1x78
 501 82 506 159 506 229 c 0
 506 354 496 477 496 600 c 1
 485 614 l 1
 454 608 280 605 274 580 c 2
 172 209 l 2
 162 174 137 2 100 2 c 0
 90 2 84 19 84 27 c 0
 86 121 141 336 166 432 c 1
 248 694 336 940 434 1196 c 1
 438 1208 l 2
 438 1210 440 1215 440 1217 c 0
 454 1266 479 1348 528 1348 c 0
 579 1348 633 1350 686 1350 c 0
 706 1350 750 1346 750 1317 c 1
 737 1292 l 1
 635 1292 l 2
 600 1292 568 1292 535 1288 c 1
 535 1188 541 1077 541 975 c 0
 541 873 543 784 543 682 c 1
 553 670 l 1
 608 690 660 690 715 690 c 1
 743 655 l 1
 743 624 666 621 598 621 c 2
 543 621 l 1
 543 465 551 312 551 154 c 0
 551 125 549 99 549 70 c 0
 549 60 549 35 567 35 c 0x78
 645 35 721 57 799 57 c 0xb8
 813 57 844 51 844 31 c 0
 844 -18 600 2 565 -14 c 1
 559 -12 553 -12 549 -12 c 0
 539 -12 532 -14 518 -14 c 1
 489 14 l 1x78
494 1237 m 1
 469 1210 295 692 289 643 c 1
 348 643 439 656 494 668 c 1
 494 948 l 2
 494 993 496 1040 496 1085 c 2
 496 1163 l 2
 496 1188 496 1212 494 1237 c 1
EndSplineSet
EndChar

StartChar: uni0311
Encoding: 307 785 198
Width: 518
Flags: W
HStem: 1071 47<225 312.277>
VStem: 344 68<899.123 959.619>
LayerCount: 2
Fore
SplineSet
109 909 m 1
 109 1003 143 1118 258 1118 c 0
 358 1118 371 1049 406 975 c 1
 401 960 l 1
 403 952 412 936 412 928 c 0
 412 912 395 899 381 899 c 0
 350 899 344 918 344 938 c 0
 344 948 346 957 346 967 c 0
 346 1000 315 1071 276 1071 c 2
 225 1071 l 1
 203 1055 l 2
 144 1012 166 893 131 891 c 1
 109 909 l 1
EndSplineSet
EndChar

StartChar: uni0326
Encoding: 308 806 199
Width: 290
Flags: W
HStem: -440 338<141 154>
VStem: 158 86<-318.389 -216.653>
LayerCount: 2
Fore
SplineSet
47 -424 m 1
 51 -406 l 1
 92 -367 158 -319 158 -256 c 1
 127 -238 98 -203 98 -166 c 0
 98 -127 141 -102 176 -102 c 0
 215 -102 232 -129 244 -162 c 1
 240 -168 l 1
 244 -176 244 -185 244 -193 c 0
 244 -259 154 -438 80 -440 c 1
 47 -424 l 1
EndSplineSet
EndChar

StartChar: uni0111
Encoding: 310 273 201
Width: 653
Flags: W
HStem: -10 59<213 295.511> 638 49<47.8433 303.196> 1336 20<133 154.5>
VStem: 115 63<487.817 1261.88> 123 78<80 527.895> 475 61<618.801 990.734>
LayerCount: 2
Fore
SplineSet
306 652 m 0xe4
 306 644 146 638 89 638 c 0
 71 638 46 649 46 672 c 0
 46 680 209 687 261 687 c 0
 279 687 306 672 306 652 c 0xe4
EndSplineSet
Refer: 64 100 N 1 0 0 1 0 0 2
EndChar

StartChar: uni021A
Encoding: 311 538 202
Width: 542
Flags: W
HStem: -12 21G<301.5 332.5> 1481 65<307.289 464.815>
VStem: 264 58<671.325 1461.97> 274 78<-11.4421 400.705> 283 86<-318.389 -216.653> 291 51<75.2947 603.063>
LayerCount: 2
Fore
SplineSet
274 70 m 0xd0
 276 183 291 293 291 406 c 0xc4
 291 623 262 842 262 1061 c 0
 262 1104 264 1112 264 1253 c 0
 264 1351 258 1464 229 1464 c 0
 190 1464 152 1452 113 1452 c 0
 95 1452 70 1464 70 1487 c 0
 70 1518 338 1546 422 1546 c 0
 440 1546 465 1531 465 1511 c 0
 465 1486 449 1481 426 1481 c 0
 403 1481 373 1487 350 1487 c 0
 330 1487 313 1482 307 1466 c 1
 317 1380 322 1290 322 1200 c 0xe0
 322 1118 319 1034 319 952 c 0
 319 940 319 928 319 915 c 0
 319 817 321 702 348 604 c 1
 344 584 342 565 342 545 c 0xc4
 342 387 352 222 352 68 c 0
 352 37 348 -12 317 -12 c 0
 286 -12 274 45 274 70 c 0xd0
172 -424 m 1
 176 -406 l 1
 217 -367 283 -319 283 -256 c 1
 252 -238 223 -203 223 -166 c 0
 223 -127 266 -102 301 -102 c 0
 340 -102 357 -129 369 -162 c 1
 365 -168 l 1
 369 -176 369 -185 369 -193 c 0xc8
 369 -259 279 -438 205 -440 c 1
 172 -424 l 1
EndSplineSet
EndChar

StartChar: uni021B
Encoding: 312 539 203
Width: 544
Flags: W
HStem: 1298 43<307 462.826>
VStem: 285 86<-318.389 -216.653> 295 2<299 1253> 299 66<29 445.482>
LayerCount: 2
Fore
SplineSet
303 29 m 1xb0
 303 78 299 129 299 178 c 0
 299 203 303 225 303 250 c 0
 303 266 301 283 295 299 c 1
 295 633 248 964 244 1298 c 1
 189 1298 82 1300 72 1337 c 1
 78 1353 95 1360 111 1360 c 0
 205 1360 295 1341 389 1341 c 0
 401 1341 414 1343 426 1343 c 0
 444 1343 463 1340 463 1317 c 0
 463 1297 436 1284 418 1284 c 0
 381 1284 344 1298 307 1298 c 1
 297 1286 l 1
 301 1278 l 1
 297 1270 297 1261 297 1253 c 0
 297 852 365 452 365 51 c 0
 365 31 346 12 326 12 c 1
 303 29 l 1xb0
174 -424 m 1
 178 -406 l 1
 219 -367 285 -319 285 -256 c 1
 254 -238 225 -203 225 -166 c 0
 225 -127 268 -102 303 -102 c 0
 342 -102 359 -129 371 -162 c 1
 367 -168 l 1
 371 -176 371 -185 371 -193 c 0xc0
 371 -259 281 -438 207 -440 c 1
 174 -424 l 1
EndSplineSet
EndChar

StartChar: uni030F
Encoding: 319 783 211
Width: 1222
Flags: W
HStem: 39 287
LayerCount: 2
Fore
SplineSet
961 50 m 1
 952 39 l 1
 892 53 851 104 796 130 c 1
 770 148 625 263 610 275 c 1
 600 281 597 288 597 295 c 0
 597 311 616 326 619 326 c 0
 641 326 954 80 961 50 c 1
654 60 m 0
 654 52 653 45 643 45 c 0
 626 45 505 131 477 146 c 0
 441 165 392 191 367 201 c 1
 260 261 l 1
 264 282 287 311 302 311 c 0
 316 311 403 259 417 251 c 0
 445 233 654 84 654 60 c 0
EndSplineSet
EndChar

StartChar: ogonek
Encoding: 320 731 212
Width: 468
Flags: W
HStem: -479 55<223.426 338.577> -28 20G<244.874 313 313 316>
VStem: 113 86<-412.245 -148.973>
LayerCount: 2
Fore
SplineSet
254 -8 m 1
 313 -16 l 2
 314 -15 315 -15 315 -15 c 0
 316 -16 l 0
 316 -25 205 -146 205 -250 c 0
 205 -264 203 -283 201 -297 c 1
 201 -309 199 -324 199 -340 c 0
 199 -373 233 -424 268 -424 c 0
 293 -424 309 -403 334 -403 c 0
 350 -403 356 -410 356 -424 c 0
 356 -463 299 -479 268 -479 c 0
 178 -479 113 -372 113 -317 c 0
 113 -143 254 -8 254 -8 c 1
EndSplineSet
EndChar

StartChar: oe
Encoding: 321 339 213
Width: 1165
Flags: W
HStem: -39 59<272.78 392.664 595.56 737.737> 717 90<655.387 742.385> 743 60<580 655> 1239 98<584.311 778.209> 1278 72<582 597.621> 1294 82<202.6 269.168>
VStem: 94 64<314.429 1118.12> 477 96<616.09 727 803.02 1047 1073 1215.57> 500 69<44.2991 68 199.838 727 803.02 971.194 1174 1266>
LayerCount: 2
Fore
SplineSet
334 -39 m 0xa280
 98 -39 94 527 94 715 c 0
 94 793 98 1376 225 1376 c 0xa680
 250 1376 252 1358 270 1352 c 0
 393 1307 418 1354 477 1243 c 1
 489 1223 500 1199 510 1174 c 1
 508 1213 506 1251 506 1292 c 0
 506 1329 520 1350 565 1350 c 0x8b
 577 1350 590 1347 598 1337 c 1x93
 633 1327 782 1325 786 1278 c 1x8b
 786 1264 758 1245 748 1239 c 1x93
 699 1255 631 1276 582 1278 c 1
 571 1266 l 1
 573 1237 573 1207 573 1178 c 0
 573 1072 565 966 565 860 c 0
 565 831 569 803 594 803 c 0xab
 617 803 639 807 664 807 c 0
 687 807 741 805 743 770 c 1
 743 745 731 717 702 717 c 0xc3
 688 717 663 723 655 733 c 1
 588 743 l 1
 580 743 l 1
 569 727 l 1xa280
 573 674 573 618 573 565 c 0xa3
 573 469 569 370 569 274 c 0
 569 219 571 166 575 111 c 0
 579 45 603 33 664 33 c 0
 689 33 712 37 739 37 c 0
 757 37 799 37 799 10 c 0
 799 -27 738 -27 711 -27 c 2
 541 -27 l 2
 512 -27 502 -9 500 16 c 1
 500 32 502 52 502 68 c 1
 496 76 l 1
 500 88 504 103 506 117 c 1
 473 27 420 -39 334 -39 c 0xa280
162 555 m 0
 162 475 181 20 326 20 c 0
 492 20 500 436 500 563 c 0xc680
 500 725 477 885 477 1047 c 1
 469 1063 l 1
 473 1073 l 1
 473 1190 399 1294 301 1294 c 2
 215 1294 l 2
 190 1294 180 966 168 909 c 1
 168 846 158 780 158 717 c 0xc7
 158 664 162 608 162 555 c 0
EndSplineSet
EndChar

StartChar: kgreenlandic
Encoding: 335 312 227
Width: 677
Flags: W
HStem: -33 21G<130.5 154 504 566> 1336 20G<172 190>
VStem: 102 64<-32.3416 636.012> 121 55<262.656 653.309> 141 78<900.65 1355.99> 141 60<792.706 1315.46> 279 59<627.794 795>
LayerCount: 2
Fore
SplineSet
279 795 m 1xc6
 274 803 l 1
 229 707 176 629 176 518 c 0xd2
 176 469 166 420 166 371 c 2
 166 109 l 2
 166 70 180 31 180 -8 c 0
 180 -24 161 -33 147 -33 c 0
 114 -33 102 -25 102 10 c 2
 102 395 l 2xe2
 102 481 121 567 121 653 c 0xd2
 121 784 141 918 141 1049 c 2
 141 1333 l 1
 149 1349 164 1356 180 1356 c 0
 200 1356 219 1337 219 1317 c 1xca
 201 1284 201 1254 201 1219 c 0
 201 1076 193 929 193 786 c 1
 232 802 477 1343 506 1343 c 0
 529 1343 559 1336 561 1309 c 1
 469 1174 412 1077 342 930 c 1
 342 887 338 842 338 799 c 0
 338 670 465 236 528 117 c 0
 548 78 592 41 592 -6 c 0
 592 -26 575 -37 557 -37 c 0
 451 -37 285 670 279 795 c 1xc6
EndSplineSet
EndChar

StartChar: gcedilla
Encoding: 352 291 244
Width: 688
Flags: W
HStem: -14 59<282.392 446.777> 543 57<348.662 506.453> 1300 56<292.605 433.928>
VStem: 92 76<369.08 1038.57> 356 86<-320.227 -216.653> 508 78<408.391 540.272> 508 55<141.475 537.315>
LayerCount: 2
Fore
SplineSet
92 623 m 0xfa
 92 719 107 815 113 911 c 0
 125 1087 131 1356 371 1356 c 0
 398 1356 434 1352 434 1327 c 0
 434 1307 409 1296 393 1296 c 0
 381 1296 366 1300 354 1300 c 0
 168 1300 168 758 168 629 c 0
 168 580 168 528 174 479 c 1
 237 383 133 45 385 45 c 0
 503 45 508 269 508 409 c 0
 508 422 508 435 508 446 c 2
 508 522 l 1
 490 540 461 543 436 543 c 0
 428 543 413 541 397 541 c 0
 372 541 348 545 348 565 c 0
 348 594 374 600 397 600 c 0
 426 600 586 598 586 559 c 0xfc
 586 508 563 457 563 406 c 0
 563 302 571 196 571 92 c 1
 516 37 444 -14 362 -14 c 0
 301 -14 217 -2 178 49 c 0
 121 123 92 517 92 623 c 0xfa
246 -424 m 1
 250 -406 l 1
 291 -367 356 -319 356 -256 c 1
 325 -238 297 -203 297 -166 c 0
 297 -127 340 -102 375 -102 c 0
 414 -102 430 -129 442 -162 c 1
 438 -168 l 1
 442 -176 442 -185 442 -193 c 0
 442 -259 353 -438 279 -440 c 1
 246 -424 l 1
EndSplineSet
EndChar

StartChar: germandbls
Encoding: 223 223 250
Width: 616
Flags: W
HStem: -12 21G<144.5 169.5> 1466 70<207.019 319.667>
VStem: 109 63<416.368 1423.12> 113 77<-11.7927 797.094> 375 53<1045.21 1369.82> 436 58<197.25 596.656>
LayerCount: 2
Fore
SplineSet
297 23 m 0xec
 276 23 254 37 254 53 c 0
 254 65 265 78 279 88 c 1
 312 104 398 158 408 197 c 1
 435 248 436 308 436 360 c 2
 436 371 l 2
 436 518 401 745 256 811 c 0
 240 819 223 840 223 858 c 0
 223 883 242 885 254 889 c 0
 315 907 375 1092 375 1190 c 0
 375 1356 325 1466 266 1466 c 0
 182 1466 172 1339 172 1255 c 0xec
 172 1132 180 1010 180 887 c 2
 180 809 l 2
 180 555 190 301 190 49 c 0
 190 20 187 -12 152 -12 c 0
 151 -12 151 -12 150 -12 c 0
 139 -12 113 -11 113 16 c 0xdc
 113 188 123 363 123 535 c 0
 123 783 109 1018 109 1266 c 0
 109 1325 108 1536 264 1536 c 0
 373 1536 428 1394 428 1214 c 0
 428 1079 389 942 297 854 c 1
 426 788 494 647 494 473 c 2
 494 426 l 2
 494 262 483 113 315 27 c 0
 309 25 303 23 297 23 c 0xec
EndSplineSet
EndChar

StartChar: uni00AD
Encoding: 173 173 254
Width: 620
Flags: W
HStem: 721 53<114.707 506.16>
VStem: 113 395<732.213 762.799>
LayerCount: 2
Fore
SplineSet
508 739 m 0
 508 729 248 721 156 721 c 0
 138 721 113 733 113 756 c 0
 113 766 379 774 463 774 c 0
 481 774 508 759 508 739 c 0
EndSplineSet
EndChar

StartChar: minus
Encoding: 361 8722 257
Width: 620
Flags: W
HStem: 721 53<175.566 550.039>
VStem: 113 497<732.839 762.177>
LayerCount: 2
Fore
SplineSet
610 739 m 0
 610 729 279 721 156 721 c 0
 138 721 113 733 113 756 c 0
 113 766 461 774 565 774 c 0
 583 774 610 759 610 739 c 0
EndSplineSet
EndChar

StartChar: plusminus
Encoding: 362 177 258
Width: 620
Flags: W
HStem: 217 53<146.714 539.324> 623 55<100.217 314.668 388.768 626.748>
VStem: 315 86<356.009 549.743> 319 64<391.657 618.06 681.467 889 909 943.742>
LayerCount: 2
Fore
SplineSet
541 236 m 0xc0
 541 226 280 217 188 217 c 0
 170 217 145 229 145 252 c 0
 145 262 412 270 496 270 c 0
 514 270 541 256 541 236 c 0xc0
315 385 m 2xe0
 315 449 l 2xe0
 315 484 319 518 319 555 c 0xd0
 319 606 320 623 250 623 c 0
 219 623 191 612 160 612 c 0
 129 612 100 620 100 655 c 0
 100 673 103 684 123 684 c 0
 160 684 194 678 231 678 c 0
 243 678 315 678 315 694 c 0xe0
 315 762 305 831 305 899 c 0
 305 930 313 944 346 944 c 0
 369 944 383 932 383 909 c 1
 375 889 l 1
 375 836 383 780 383 727 c 0
 383 686 403 678 440 678 c 0
 481 678 522 684 563 684 c 0
 588 684 627 680 627 647 c 0
 627 624 612 614 592 614 c 0
 551 614 510 621 467 621 c 2
 457 621 l 2
 403 621 383 619 383 553 c 0xd0
 383 483 401 446 401 389 c 0
 401 366 378 356 358 356 c 0
 344 356 315 369 315 385 c 2xe0
EndSplineSet
EndChar

StartChar: quotedbl
Encoding: 34 34 260
Width: 636
Flags: W
HStem: 1262 313
VStem: 211 70<1311.33 1571.74> 418 67<1258.66 1573.74>
LayerCount: 2
Fore
SplineSet
207 1262 m 1
 211 1291 211 1335 211 1384 c 2
 211 1401 l 2
 211 1489 213 1575 233 1575 c 0
 262 1575 281 1536 281 1497 c 0
 281 1431 242 1257 215 1257 c 0
 213 1257 209 1260 207 1262 c 1
444 1257 m 0
 421 1292 418 1352 418 1409 c 0
 418 1505 418 1575 459 1575 c 0
 475 1575 485 1536 485 1497 c 0
 485 1436 465 1255 451 1255 c 0
 449 1255 446 1255 444 1257 c 0
EndSplineSet
EndChar

StartChar: quotesingle
Encoding: 39 39 261
Width: 636
Flags: W
HStem: 1257 318<215.746 242.145>
VStem: 211 70<1311.33 1571.74>
LayerCount: 2
Fore
SplineSet
207 1262 m 1
 211 1291 211 1335 211 1384 c 2
 211 1401 l 2
 211 1489 213 1575 233 1575 c 0
 262 1575 281 1536 281 1497 c 0
 281 1431 242 1257 215 1257 c 0
 213 1257 209 1260 207 1262 c 1
EndSplineSet
EndChar

StartChar: multiply
Encoding: 366 215 264
Width: 727
Flags: W
HStem: 584 116<297.367 408.877>
VStem: 297 119<584.902 685.974>
LayerCount: 2
Fore
SplineSet
516 430 m 2
 471 473 l 2
 432 510 379 584 352 584 c 0
 301 584 260 457 201 457 c 0
 187 457 160 473 160 487 c 0
 160 507 227 555 252 580 c 0
 262 590 297 631 297 647 c 1
 248 698 127 780 127 817 c 0
 127 829 148 858 168 858 c 0
 176 858 185 856 193 848 c 1
 203 827 l 1
 246 784 331 700 356 700 c 0
 405 700 471 844 530 844 c 0
 544 844 561 827 561 813 c 0
 561 768 416 684 416 643 c 0
 416 586 582 520 582 471 c 0
 582 451 563 424 530 424 c 0
 524 424 520 426 516 430 c 2
EndSplineSet
EndChar

StartChar: Lslash
Encoding: 369 321 267
Width: 475
Flags: W
HStem: -23 21G<162 183.5> 2 53<198.906 333.525 334.38 392.883> 680 65<41.2091 118.391 184.019 374.322> 1551 20G<118 136.5>
VStem: 98 66<1147.5 1570.61> 119 65<281.168 680.14 756 1147.5> 139 58<56.1799 511.579>
LayerCount: 2
Fore
SplineSet
127 20 m 0xf2
 127 38 139 72 139 113 c 0xf2
 139 302 120 490 119 681 c 1
 106 680 94 680 84 680 c 0
 66 680 41 692 41 715 c 0
 41 726 73 736 119 745 c 1xf4
 117 1013 98 1282 98 1550 c 0
 98 1566 111 1571 125 1571 c 0
 148 1571 164 1557 164 1534 c 0xf8
 164 1348 164 1163 172 977 c 1
 174 907 184 840 184 770 c 0
 184 765 184 761 184 756 c 1xf4
 261 767 349 774 391 774 c 0
 409 774 436 759 436 739 c 0
 436 716 297 696 186 686 c 1
 184 661 182 636 182 610 c 0
 182 454 201 301 205 145 c 1
 197 133 197 118 197 104 c 0
 197 65 207 55 244 55 c 0
 258 55 279 56 289 68 c 1
 365 68 l 1
 377 58 393 49 393 31 c 0
 393 15 383 -4 365 -4 c 0
 357 -4 342 2 334 4 c 1
 324 0 305 0 293 0 c 0
 273 0 249 2 229 2 c 0
 206 2 195 -23 172 -23 c 0
 152 -23 127 -3 127 20 c 0xf2
EndSplineSet
EndChar

StartChar: Hbar
Encoding: 377 294 275
Width: 602
Flags: W
HStem: -33 21G<441.5 465> 760 61<175.5 408> 1206 39<57.7974 98 151 397> 1528 20G<94 151.545 394 421.5>
VStem: 99 61<806.626 877 958 1206 1247 1274.57 1374 1532> 131 41<368.968 754.133 806.079 920.634> 397 56<831.578 1212 1251 1515.78> 426 66<-32.3177 455.634>
LayerCount: 2
Fore
SplineSet
151 1207 m 1xf8
 156 1124 162 1041 162 958 c 0
 162 931 160 904 160 877 c 0
 160 852 162 828 168 805 c 1
 248 805 328 821 408 821 c 1
 410 825 l 1
 410 953 404 1083 399 1212 c 1
 328 1211 225 1208 151 1207 c 1xf8
481 1212 m 2
 481 1212 l 2
455 -33 m 0
 428 -33 426 -6 426 12 c 0
 426 28 428 43 428 59 c 0
 428 292 420 529 408 762 c 1
 404 762 399 760 395 760 c 0
 370 760 342 770 317 770 c 0
 268 770 215 770 172 745 c 1
 172 507 207 275 207 37 c 0
 207 21 206 6 186 6 c 0
 168 6 160 9 154 27 c 0
 134 86 139 494 131 598 c 0xf5
 116 800 105 1003 99 1206 c 0
 98 1206 97 1206 96 1206 c 0
 78 1206 53 1218 53 1241 c 0
 53 1242 70 1244 98 1245 c 1
 95 1341 94 1436 94 1532 c 1
 127 1548 l 1
 154 1526 l 1
 148 1475 145 1425 145 1374 c 0
 145 1331 147 1289 149 1247 c 1
 224 1249 326 1250 397 1251 c 1
 394 1341 391 1430 391 1520 c 0
 391 1530 393 1538 395 1548 c 1
 448 1548 453 1462 453 1382 c 0
 453 1337 453 1294 453 1251 c 1xfa
 466 1249 481 1233 481 1212 c 1
 479 1212 470 1212 454 1212 c 1
 459 667 483 271 483 49 c 1
 487 41 492 30 492 20 c 0xf1
 492 4 475 -33 455 -33 c 0
EndSplineSet
EndChar

StartChar: eth
Encoding: 378 240 276
Width: 516
Flags: W
HStem: -29 41<199.765 304.184> 868 45<275.964 374.731> 1276 37<186.983 340> 1296 37<396.052 483.349> 1549 20G<229 274>
VStem: 119 49<42.8039 553.013> 340 51<1329 1421.23> 377 53<340.668 857.389 897 1200.77>
LayerCount: 2
Fore
SplineSet
483 1313 m 2xee
 483 1311 444 1302 395 1296 c 1xde
 428 1116 430 899 430 815 c 2
 430 807 l 2
 430 660 426 514 420 369 c 1
 404 258 428 -29 260 -29 c 0
 135 -29 119 70 119 170 c 0
 119 334 121 913 332 913 c 0
 346 913 365 905 377 897 c 1
 375 960 367 1141 344 1288 c 1
 287 1282 230 1276 197 1276 c 0
 191 1276 186 1280 186 1284 c 0
 186 1290 186 1313 209 1313 c 0xed
 254 1313 297 1317 340 1323 c 1
 326 1407 306 1474 279 1497 c 0
 261 1513 209 1521 209 1550 c 0
 209 1560 225 1569 233 1569 c 0
 315 1569 362 1462 391 1329 c 1
 418 1331 444 1333 473 1333 c 0xde
 483 1333 485 1329 485 1323 c 0
 485 1319 483 1313 483 1313 c 2xee
377 727 m 2xcd
 377 844 l 1
 377 844 356 860 315 868 c 1
 176 868 168 291 168 174 c 0
 168 123 170 12 244 12 c 0
 340 12 336 100 344 166 c 0
 367 352 377 539 377 727 c 2xcd
EndSplineSet
EndChar

StartChar: Euro
Encoding: 379 8364 277
Width: 696
Flags: W
HStem: -33 80<276.228 532.435> 647 68<-20.0555 104 163 538.014> 804 55<-61.9424 96 153 470.815> 1466 99<240.645 511.047>
VStem: 96 56<457.838 648 717 805 871 1317.59>
LayerCount: 2
Fore
SplineSet
97 805 m 1
 46 804 12 804 -14 804 c 0
 -49 804 -63 823 -63 839 c 0
 -63 848 -59 856 -51 859 c 0
 -47 860 13 866 96 869 c 1
 96 872 96 875 96 877 c 0
 96 950 94 1022 94 1090 c 0
 94 1355 123 1565 406 1565 c 0
 445 1565 524 1536 524 1489 c 0
 524 1471 506 1466 492 1466 c 0
 246 1466 164 1449 164 1153 c 0
 164 1051 157 962 152 871 c 1
 279 875 428 877 473 877 c 0
 491 877 518 842 518 822 c 0
 518 815 311 809 153 806 c 1
 154 773 157 770 160 717 c 1
 291 721 450 723 497 723 c 0
 515 723 542 685 542 665 c 0
 542 658 323 652 163 649 c 1
 178 446 205 175 236 127 c 0
 273 70 347 47 410 47 c 0
 463 47 518 65 553 106 c 1
 569 106 584 109 600 113 c 1
 610 102 l 1
 610 -2 465 -33 383 -33 c 0
 301 -33 205 43 172 115 c 0
 146 171 121 440 107 648 c 1
 67 647 34 647 16 647 c 0
 -2 647 -27 682 -27 705 c 0
 -27 709 29 712 104 715 c 1
 101 767 98 769 97 805 c 1
EndSplineSet
EndChar

StartChar: exclamdown
Encoding: 380 161 278
Width: 329
Flags: W
HStem: -27 21G<185.5 207> 1528 20G<156 176.5>
VStem: 88 123<1423.29 1533.07> 135 90<-22.8724 344.802 355.484 428.466> 145 37<611.582 1188.63>
LayerCount: 2
Fore
SplineSet
88 1483 m 1xe0
 125 1557 152 1523 160 1548 c 1
 193 1546 211 1528 211 1495 c 0
 211 1456 193 1419 150 1419 c 0
 123 1419 88 1456 88 1483 c 1xe0
145 700 m 2xc8
 145 1192 l 2
 145 1194 147 1198 147 1200 c 1
 174 1200 l 1
 168 1190 l 1
 180 1161 184 1114 184 1069 c 0
 184 1036 182 1004 182 979 c 0xc8
 182 651 225 328 225 0 c 0
 225 -16 215 -27 199 -27 c 0
 172 -27 135 0 135 29 c 0xd0
 135 135 150 239 150 350 c 0
 150 467 145 583 145 700 c 2xc8
EndSplineSet
EndChar

StartChar: section
Encoding: 167 167 291
Width: 489
Flags: W
HStem: -57 61<145.696 265.084> 1317 61<202.327 317.304>
VStem: 74 53<648.438 894.486> 90 53<967.997 1232.73> 319 54<76.9249 320.733> 336 53<395.702 644.547>
LayerCount: 2
Fore
SplineSet
389 537 m 0xd4
 389 482 377 411 342 354 c 1
 360 315 373 272 373 223 c 0
 373 133 328 -57 211 -57 c 0
 184 -57 133 -31 133 0 c 0
 133 12 152 16 160 16 c 0
 176 16 187 4 203 4 c 0
 293 4 319 135 319 190 c 0
 319 237 310 287 287 332 c 0
 178 547 74 602 74 784 c 0xe8
 74 835 84 906 119 961 c 1
 101 1002 90 1047 90 1098 c 0
 90 1188 135 1378 252 1378 c 0
 279 1378 330 1352 330 1321 c 0
 330 1309 311 1305 303 1305 c 0
 287 1305 276 1317 260 1317 c 0
 170 1317 143 1158 143 1090 c 0
 143 1043 153 993 178 948 c 0
 284 753 389 703 389 537 c 0xd4
336 520 m 0xe4
 336 674 224 776 152 897 c 1
 132 848 127 793 127 760 c 0
 127 608 235 510 309 391 c 1
 329 438 336 485 336 520 c 0xe4
EndSplineSet
EndChar

StartChar: Scommaaccent
Encoding: 391 536 292
Width: 569
Flags: W
HStem: -45 45<143.791 277.062> 1520 53<254.048 378.689>
VStem: 104 70<1087.46 1441.35> 297 86<-318.389 -216.653> 397 74<146.091 541.341>
LayerCount: 2
Fore
SplineSet
80 6 m 1
 80 20 84 31 102 31 c 0
 143 31 176 0 215 0 c 0
 350 0 397 238 397 340 c 0
 397 721 104 926 104 1288 c 0
 104 1407 168 1573 309 1573 c 0
 334 1573 393 1547 403 1522 c 1
 391 1499 l 1
 364 1499 344 1500 324 1520 c 1
 220 1520 174 1391 174 1305 c 0
 174 1076 289 887 395 692 c 0
 395 690 393 686 393 684 c 0
 393 674 434 546 440 526 c 0
 456 463 471 398 471 330 c 0
 471 183 393 -45 215 -45 c 0
 166 -45 107 -43 80 6 c 1
186 -424 m 1
 190 -406 l 1
 231 -367 297 -319 297 -256 c 1
 266 -238 238 -203 238 -166 c 0
 238 -127 280 -102 315 -102 c 0
 354 -102 371 -129 383 -162 c 1
 379 -168 l 1
 383 -176 383 -185 383 -193 c 0
 383 -259 293 -438 219 -440 c 1
 186 -424 l 1
EndSplineSet
EndChar

StartChar: scommaaccent
Encoding: 392 537 293
Width: 489
Flags: W
HStem: -20 47<166 238.338> 1317 61<202.327 317.347>
VStem: 90 53<942.616 1232.73> 256 86<-318.389 -216.653> 319 11<1311 1313> 336 53<174.402 517.511>
LayerCount: 2
Fore
SplineSet
90 25 m 1xec
 100 41 l 1
 125 39 149 27 174 27 c 0
 307 27 336 258 336 356 c 0
 336 651 90 795 90 1098 c 0
 90 1188 135 1378 252 1378 c 0
 279 1378 330 1352 330 1321 c 0
 330 1309 311 1305 303 1305 c 0
 287 1305 276 1317 260 1317 c 0
 170 1317 143 1158 143 1090 c 0
 143 1022 164 962 182 899 c 1
 197 862 l 1
 308 661 389 578 389 332 c 0
 389 193 340 -20 166 -20 c 1
 156 -25 l 1
 131 -21 94 -4 90 25 c 1xec
317 1313 m 1
 317 1311 l 1
 319 1311 l 1
 319 1313 319 1313 317 1313 c 1
145 -424 m 1
 150 -406 l 1
 191 -367 256 -319 256 -256 c 1
 225 -238 197 -203 197 -166 c 0
 197 -127 239 -102 274 -102 c 0
 313 -102 330 -129 342 -162 c 1
 338 -168 l 1
 342 -176 342 -185 342 -193 c 0xf0
 342 -259 252 -438 178 -440 c 1
 145 -424 l 1
EndSplineSet
EndChar

StartChar: Tbar
Encoding: 397 358 298
Width: 542
Flags: W
HStem: -12 21G<301.5 332.5> 686 64<114.394 275 331.853 446.691> 1481 65<307.289 464.815>
VStem: 262 57<754.874 1461.97> 274 78<-11.4421 400.705> 291 51<75.2947 603.063>
LayerCount: 2
Fore
SplineSet
274 70 m 0xe8
 276 183 291 293 291 406 c 0xe4
 291 502 285 597 279 693 c 1
 230 688 185 686 156 686 c 0
 138 686 113 696 113 715 c 0
 113 728 190 741 275 750 c 1
 268 854 262 957 262 1061 c 0
 262 1104 264 1112 264 1253 c 0
 264 1351 258 1464 229 1464 c 0
 190 1464 152 1452 113 1452 c 0
 95 1452 70 1464 70 1487 c 0
 70 1518 338 1546 422 1546 c 0
 440 1546 465 1531 465 1511 c 0
 465 1486 449 1481 426 1481 c 0
 403 1481 373 1487 350 1487 c 0
 330 1487 313 1482 307 1466 c 1
 317 1380 322 1290 322 1200 c 0
 322 1118 319 1034 319 952 c 0xf0
 319 891 319 822 324 754 c 1
 380 759 433 762 463 762 c 0
 476 762 494 752 494 739 c 0
 494 723 415 709 330 699 c 1
 334 667 340 634 348 604 c 1
 344 584 342 565 342 545 c 0xe4
 342 387 352 222 352 68 c 0
 352 37 348 -12 317 -12 c 0
 286 -12 274 45 274 70 c 0xe8
EndSplineSet
EndChar

StartChar: tbar
Encoding: 398 359 299
Width: 544
Flags: W
HStem: 680 78<114.973 274 328 461.576> 1298 43<307 462.826>
VStem: 244 53<909.875 1277.62> 299 66<29 452.25>
LayerCount: 2
Fore
SplineSet
303 29 m 1
 303 78 299 129 299 178 c 0
 299 203 303 225 303 250 c 0
 303 266 301 283 295 299 c 1
 295 429 288 558 279 687 c 1
 230 682 185 680 156 680 c 0
 138 680 113 692 113 715 c 0
 113 732 190 747 274 758 c 1
 261 938 246 1118 244 1298 c 1
 189 1298 82 1300 72 1337 c 1
 78 1353 95 1360 111 1360 c 0
 205 1360 295 1341 389 1341 c 0
 401 1341 414 1343 426 1343 c 0
 444 1343 463 1340 463 1317 c 0
 463 1297 436 1284 418 1284 c 0
 381 1284 344 1298 307 1298 c 1
 297 1286 l 1
 301 1278 l 1
 297 1270 297 1261 297 1253 c 0
 297 1090 309 927 322 764 c 1
 379 770 433 774 463 774 c 0
 481 774 508 759 508 739 c 0
 508 721 420 704 328 693 c 1
 346 479 365 265 365 51 c 0
 365 31 346 12 326 12 c 1
 303 29 l 1
EndSplineSet
EndChar

StartChar: Thorn
Encoding: 399 222 300
Width: 540
Flags: W
HStem: -12 21G<143.5 176.5> 1317 59<162 237.19> 1526 20G<107 118>
VStem: 96 66<961.733 1317> 96 58<1376 1540> 131 70<-11.004 565.757 612 978.373> 389 57<821.86 1162.2>
LayerCount: 2
Fore
SplineSet
156 -12 m 0xe6
 131 -12 131 45 131 59 c 0xe6
 131 182 133 194 133 317 c 0
 133 428 129 458 129 569 c 0
 129 739 117 932 111 1100 c 0
 107 1186 96 1276 96 1366 c 1
 94 1376 94 1385 94 1395 c 0
 94 1415 97 1483 97 1515 c 0
 97 1523 96 1528 96 1530 c 0
 96 1540 103 1544 111 1546 c 1
 125 1546 145 1538 145 1540 c 1
 149 1485 150 1433 154 1378 c 1
 154 1376 l 1xea
 353 1372 446 1173 446 997 c 0
 446 878 389 674 293 598 c 1
 277 584 256 581 240 569 c 0
 220 555 217 543 190 537 c 1
 190 312 201 276 201 51 c 0
 201 18 197 -12 156 -12 c 0xe6
162 1317 m 1xf2
 162 1299 162 1282 162 1264 c 0
 164 1049 186 831 190 612 c 1
 221 614 236 639 256 659 c 0
 354 757 389 864 389 993 c 0
 389 1186 344 1213 199 1317 c 1
 162 1317 l 1xf2
EndSplineSet
EndChar

StartChar: thorn
Encoding: 400 254 301
Width: 530
Flags: W
HStem: -23 80<174 268.016> 668 71<185.859 275.661> 1313 69<143.155 289.197>
VStem: 102 70<57.9028 247.141 249.362 489.154> 131 51<249.362 668 739.377 1294.08> 340 70<810.122 1139> 359 63<169.161 541.918>
LayerCount: 2
Fore
SplineSet
104 20 m 1xe2
 102 40 102 61 102 84 c 0xf2
 102 227 123 373 123 516 c 0
 123 577 119 639 119 698 c 0
 119 862 131 1024 131 1188 c 0
 131 1227 131 1266 129 1307 c 1
 121 1317 l 1
 121 1329 l 2
 121 1358 127 1382 164 1382 c 0
 191 1382 346 1344 348 1315 c 1
 348 1315 346 1311 346 1309 c 1
 399 1225 410 1149 410 1038 c 0xec
 410 954 404 869 377 795 c 1
 379 795 l 1
 365 762 337 729 319 698 c 1
 405 630 416 495 420 399 c 2
 422 346 l 1
 422 317 l 2
 422 145 336 -23 143 -23 c 0
 118 -23 104 -3 104 20 c 1xe2
184 248 m 1
 174 230 172 191 172 150 c 0
 172 113 174 77 174 57 c 1
 280 57 358 181 358 279 c 0
 358 281 359 299 359 325 c 0
 359 428 343 668 188 668 c 1
 182 576 178 483 178 389 c 0
 178 374 178 358 178 342 c 0
 178 310 179 277 184 248 c 1
182 766 m 1xec
 184 758 188 747 190 739 c 1
 205 739 l 2
 324 739 340 903 340 1012 c 0
 340 1061 336 1096 334 1139 c 1
 330 1143 l 1
 326 1202 307 1313 227 1313 c 0
 188 1313 182 1144 182 1044 c 0
 182 970 184 967 184 934 c 0
 184 887 182 840 182 791 c 2
 182 766 l 1xec
EndSplineSet
EndChar

StartChar: mu
Encoding: 411 181 312
AltUni2: 0003bc.ffffffff.0
Width: 743
Flags: W
HStem: -39 66<378.392 531.456>
VStem: 84 86<1034.16 1530.7> 139 74<150.578 158 264.767 830.082> 154 61<-212.053 158 273.001 546.303> 156 80<-247.517 -34.0858> 520 80<1353.92 1475 1491 1520.52> 539 67<642.764 1030 1043.83 1346.23> 539 47<966.272 1030 1043.83 1473.08> 559 70<197.189 426 438 624.343 627 1029.59>
LayerCount: 2
Fore
SplineSet
444 -39 m 0x8080
 315 -39 252 52 215 158 c 1
 215 45 l 1x9080
 219 35 219 24 219 14 c 0
 219 0 217 -15 217 -31 c 0
 217 -97 236 -152 236 -215 c 0
 236 -238 208 -248 190 -248 c 0
 172 -248 158 -229 158 -213 c 0
 158 -209 156 -205 156 -182 c 0x88
 156 -141 154 -100 154 -59 c 0x90
 154 13 150 73 150 145 c 0
 150 264 139 383 139 502 c 0xa0
 137 817 98 1133 98 1448 c 0
 98 1468 84 1475 84 1491 c 0
 84 1509 99 1532 119 1532 c 0
 170 1532 170 1417 170 1382 c 0xc0
 170 1153 188 919 188 690 c 1
 206 667 197 541 217 459 c 1
 215 447 213 434 213 422 c 0
 213 311 322 27 457 27 c 0
 563 27 553 119 561 197 c 1
 559 201 559 207 559 213 c 0xa080
 559 236 565 258 565 281 c 2
 565 514 l 2
 565 555 551 596 551 637 c 0
 551 760 539 881 539 1004 c 2
 539 1030 l 1
 530 1042 l 1
 536 1081 539 1120 539 1159 c 0x82
 539 1276 520 1390 520 1507 c 0
 520 1530 547 1540 565 1540 c 1
 600 1507 l 1
 594 1491 l 1
 600 1475 l 1x84
 600 1434 586 1393 586 1352 c 0x81
 586 1229 606 1106 606 983 c 0x82
 606 864 616 746 616 627 c 1
 623 625 l 1
 621 611 621 596 621 582 c 0
 621 535 627 485 627 438 c 1
 633 432 l 1
 627 426 l 1
 627 383 629 340 629 297 c 0
 629 170 616 -39 444 -39 c 0x8080
EndSplineSet
EndChar

StartChar: greater
Encoding: 62 62 313
Width: 569
Flags: W
HStem: 0 21G<102 113>
VStem: 158 104<1254.4 1384.55> 414 71<625.173 802.133>
LayerCount: 2
Fore
SplineSet
139 4 m 1
 127 4 117 0 109 0 c 0
 95 0 82 27 80 39 c 1
 98 53 l 1
 135 119 414 675 414 700 c 0
 414 870 189 1202 158 1401 c 1
 184 1421 l 1
 225 1413 250 1284 262 1247 c 0
 295 1149 485 757 485 698 c 0
 485 647 421 598 403 549 c 0
 391 516 372 486 358 455 c 2
 182 90 l 2
 168 61 155 29 139 4 c 1
EndSplineSet
EndChar

StartChar: less
Encoding: 60 60 314
Width: 569
Flags: W
HStem: 0 21G<457 468>
VStem: 84 72<623.502 801.703> 307 105<1254.4 1385.03>
LayerCount: 2
Fore
SplineSet
430 4 m 1
 387 67 352 160 313 242 c 2
 211 455 l 2
 197 486 178 518 166 549 c 0
 148 598 84 645 84 698 c 0
 84 755 274 1149 307 1247 c 0
 319 1282 346 1415 385 1421 c 1
 412 1401 l 1
 381 1202 156 870 156 700 c 0
 156 675 434 116 471 53 c 1
 489 39 l 1
 487 27 475 0 461 0 c 0
 453 0 444 4 434 4 c 2
 430 4 l 1
EndSplineSet
EndChar

StartChar: logicalnot
Encoding: 412 172 315
Width: 497
Flags: W
HStem: 733 49<2 141.774> 739 58<2 374.98>
VStem: 381 61<498.555 738.531>
LayerCount: 2
Fore
SplineSet
440 700 m 1x60
 440 643 440 583 442 530 c 0
 442 505 424 498 416 498 c 0
 402 498 381 514 381 528 c 0
 381 598 375 664 375 727 c 0
 375 737 369 739 324 739 c 2
 291 739 l 2x60
 244 739 211 733 164 733 c 2
 2 733 l 2
 4 733 -6 754 -6 768 c 0
 -6 776 -2 782 8 782 c 0xa0
 18 782 118 791 143 791 c 0
 213 791 264 797 334 797 c 0
 357 797 381 797 401 801 c 1
 419 799 449 789 449 766 c 0
 449 739 442 723 440 700 c 1x60
EndSplineSet
EndChar

StartChar: macron
Encoding: 413 175 316
Width: 620
Flags: W
HStem: 702 50<114.98 506.02>
VStem: 113 395<706.125 748>
LayerCount: 2
Fore
SplineSet
508 719 m 1
 506 705 449 702 377 702 c 2
 262 702 l 2
 180 702 113 702 113 735 c 1
 115 749 172 752 244 752 c 2
 360 752 l 2
 444 752 508 752 508 719 c 1
EndSplineSet
EndChar

StartChar: onesuperior
Encoding: 414 185 317
Width: 606
Flags: W
HStem: 6 49<207 308.137 371 461.548> 1483 47<82.6685 227.777>
VStem: 254 37<1229.02 1449.47> 313 52<72 599.695>
LayerCount: 2
Fore
SplineSet
197 37 m 1
 207 57 l 1
 225 57 244 55 262 55 c 0
 301 55 313 72 313 111 c 0
 313 502 279 893 254 1284 c 1
 254 1307 256 1329 256 1354 c 0
 256 1420 244 1483 162 1483 c 0
 146 1483 131 1479 115 1479 c 0
 101 1479 80 1481 80 1501 c 0
 80 1530 233 1530 260 1530 c 0
 278 1530 293 1515 293 1497 c 1
 297 1497 l 1
 293 1477 291 1454 291 1434 c 0
 291 1305 322 1176 322 1047 c 0
 322 818 356 589 356 360 c 0
 356 352 354 342 352 334 c 1
 360 303 365 143 365 102 c 0
 365 92 362 82 362 72 c 1
 371 66 l 1
 402 66 432 72 463 72 c 0
 481 72 526 72 526 43 c 0
 526 18 499 14 481 14 c 0
 397 14 313 6 229 6 c 0
 211 6 197 19 197 37 c 1
EndSplineSet
EndChar

StartChar: twosuperior
Encoding: 415 178 318
Width: 571
Flags: W
HStem: -16 21G<116.5 179> 2 59<157.1 416> 1544 41<269.18 352.48>
VStem: 422 51<932.426 1362 1366 1456.61>
LayerCount: 2
Fore
SplineSet
78 25 m 1xb0
 137 99 149 190 188 274 c 0
 335 596 422 893 422 1249 c 0
 422 1335 420 1544 295 1544 c 1
 208 1505 243 1366 195 1366 c 0
 168 1366 168 1387 168 1407 c 0
 168 1466 202 1585 276 1585 c 0
 397 1585 467 1477 471 1366 c 1
 467 1362 l 1
 467 1313 473 1261 473 1212 c 0
 473 997 405 617 317 420 c 0
 286 350 156 96 154 41 c 1
 170 39 l 1
 244 53 334 57 416 61 c 1
 446 29 l 1
 428 2 l 1x70
 328 2 229 -16 129 -16 c 0
 104 -16 78 -2 78 25 c 1xb0
EndSplineSet
EndChar

StartChar: threesuperior
Encoding: 416 179 319
Width: 589
Flags: W
HStem: -2 39<270.845 368.687> 1374 21G<103 135.5> 1491 49<184.508 299.823>
VStem: 377 55<1015.03 1358.35> 455 55<132.757 566.016>
LayerCount: 2
Fore
SplineSet
195 74 m 1
 211 84 l 1
 244 82 270 53 299 37 c 1
 438 37 455 191 455 297 c 0
 455 485 450 697 315 844 c 1
 309 844 303 842 295 842 c 0
 283 842 268 844 256 850 c 1
 256 858 l 1
 246 868 l 1
 248 893 377 983 377 1130 c 0
 377 1214 367 1491 246 1491 c 0
 146 1491 160 1374 111 1374 c 0
 95 1374 78 1387 76 1403 c 1
 113 1479 160 1540 252 1540 c 0
 287 1540 324 1518 344 1491 c 1
 350 1489 l 1
 420 1387 432 1223 432 1102 c 0
 432 1061 415 1022 395 987 c 1
 379 975 348 912 328 889 c 1
 469 834 465 631 494 508 c 0
 510 438 510 441 510 367 c 0
 510 236 504 -2 322 -2 c 0
 279 -2 195 21 195 74 c 1
EndSplineSet
EndChar

StartChar: foursuperior
Encoding: 417 8308 320
Width: 526
Flags: W
HStem: -25 21G<301 358.4> 518 45<158.812 280.124> 1539 20G<139 155>
VStem: 100 58<563.018 611.061 653 716.062> 111 47<657.938 1104> 131 51<846 1289.16 1297.08 1557.87> 250 57<905.501 1190> 266 53<630.268 1185.42> 293 47<117.656 528.79> 301 64<0 29 68.4768 495.632>
LayerCount: 2
Fore
SplineSet
301 61 m 1xe040
 299 66 l 1
 305 91 307 114 307 139 c 0xe2
 307 209 293 278 293 348 c 0
 293 379 297 409 297 440 c 0
 297 460 296 520 276 530 c 1
 235 530 197 518 156 518 c 0
 123 518 125 523 100 541 c 1
 100 547 l 2xf080
 100 570 107 592 111 612 c 1
 92 653 l 1
 92 688 111 719 111 754 c 0xe8
 111 887 131 1022 131 1155 c 2
 131 1481 l 2
 131 1497 123 1516 123 1532 c 0
 123 1548 131 1559 147 1559 c 0
 163 1559 184 1550 184 1530 c 0
 184 1475 176 1421 176 1366 c 0
 176 1343 178 1319 182 1296 c 1
 178 1290 l 1
 180 1272 182 1253 182 1233 c 0xe4
 182 1061 158 889 158 717 c 0xe8
 158 697 172 677 172 657 c 0
 172 637 158 622 158 602 c 0
 158 588 158 563 178 563 c 0
 201 563 263 572 281 582 c 1
 281 729 272 877 266 1024 c 0xf1
 264 1079 250 1133 250 1188 c 0
 250 1206 275 1212 289 1212 c 1
 307 1190 l 1xe2
 307 1094 319 997 319 901 c 0xe1
 319 860 326 596 340 582 c 1
 365 582 389 590 416 590 c 0
 430 590 455 587 455 567 c 0
 455 514 340 576 340 498 c 0xe080
 340 451 348 177 358 152 c 1
 356 144 356 131 356 117 c 0
 356 99 359 78 365 68 c 1
 358 43 l 1
 365 29 l 1
 365 0 l 1
 332 -25 l 1
 301 -12 l 1
 301 61 l 1xe040
EndSplineSet
EndChar

StartChar: onehalf
Encoding: 418 189 321
Width: 1736
Flags: W
HStem: -16 31G<707 734.5 1281.5 1344> 6 49<207 308.137 371 461.548 1322.1 1581> 14 58<372.452 525.967> 1483 47<82.6685 227.777> 1544 41<1432.69 1518.14>
VStem: 254 37<1229.02 1449.47> 313 52<72 599.695> 1587 51<932.426 1362 1366 1456.61>
LayerCount: 2
Fore
SplineSet
197 37 m 1x5f
 207 57 l 1
 225 57 244 55 262 55 c 0x5f
 301 55 313 72 313 111 c 0
 313 502 279 893 254 1284 c 1
 254 1307 256 1329 256 1354 c 0
 256 1420 244 1483 162 1483 c 0
 146 1483 131 1479 115 1479 c 0
 101 1479 80 1481 80 1501 c 0
 80 1530 233 1530 260 1530 c 0
 278 1530 293 1515 293 1497 c 1
 297 1497 l 1
 293 1477 291 1454 291 1434 c 0
 291 1305 322 1176 322 1047 c 0
 322 818 356 589 356 360 c 0
 356 352 354 342 352 334 c 1
 360 303 365 143 365 102 c 0
 365 92 362 82 362 72 c 1
 371 66 l 1
 402 66 432 72 463 72 c 0
 481 72 526 72 526 43 c 0
 526 18 499 14 481 14 c 0x3f
 397 14 313 6 229 6 c 0
 211 6 197 19 197 37 c 1x5f
1085 1505 m 0
 1085 1489 1048 1337 1044 1317 c 0
 970 977 891 641 813 299 c 2
 772 121 l 2
 762 78 756 -2 713 -6 c 1
 701 2 692 17 692 31 c 0
 692 129 737 268 764 387 c 0
 844 741 928 1096 1020 1448 c 0
 1024 1460 1039 1532 1055 1532 c 0
 1071 1532 1085 1523 1085 1505 c 0
1243 25 m 1
 1302 99 1315 190 1354 274 c 0
 1501 596 1587 893 1587 1249 c 0
 1587 1335 1585 1544 1460 1544 c 1
 1373 1505 1408 1366 1360 1366 c 0
 1333 1366 1333 1387 1333 1407 c 0
 1333 1466 1368 1585 1442 1585 c 0
 1563 1585 1632 1477 1636 1366 c 1
 1632 1362 l 1
 1632 1313 1638 1261 1638 1212 c 0
 1638 997 1571 617 1483 420 c 0
 1452 350 1321 96 1319 41 c 1
 1335 39 l 1
 1409 53 1499 57 1581 61 c 1
 1612 29 l 1
 1593 2 l 1
 1493 2 1394 -16 1294 -16 c 0x9f
 1269 -16 1243 -2 1243 25 c 1
EndSplineSet
EndChar

StartChar: onequarter
Encoding: 419 188 322
Width: 1691
Flags: W
HStem: -6 21G<707 734.5 1466 1523.4> 6 49<207 308.137 371 461.548> 518 45<1323.81 1445.12> 1483 47<82.6685 227.777> 1539 20G<1305 1321>
VStem: 254 37<1229.02 1449.47> 313 52<72 599.695> 1276 47<657.938 1104> 1296 52<846 1289.16 1297.08 1558.04> 1415 58<905.501 1190> 1446 39<582.838 1077.89> 1458 47<142.281 528.79> 1466 64<0 29 68.4768 344.719 349.452 495.632>
LayerCount: 2
Fore
SplineSet
197 37 m 1x7e
 207 57 l 1
 225 57 244 55 262 55 c 0
 301 55 313 72 313 111 c 0
 313 502 279 893 254 1284 c 1
 254 1307 256 1329 256 1354 c 0
 256 1420 244 1483 162 1483 c 0
 146 1483 131 1479 115 1479 c 0
 101 1479 80 1481 80 1501 c 0
 80 1530 233 1530 260 1530 c 0
 278 1530 293 1515 293 1497 c 1
 297 1497 l 1
 293 1477 291 1454 291 1434 c 0
 291 1305 322 1176 322 1047 c 0
 322 818 356 589 356 360 c 0
 356 352 354 342 352 334 c 1
 360 303 365 143 365 102 c 0
 365 92 362 82 362 72 c 1
 371 66 l 1
 402 66 432 72 463 72 c 0
 481 72 526 72 526 43 c 0
 526 18 499 14 481 14 c 0
 397 14 313 6 229 6 c 0
 211 6 197 19 197 37 c 1x7e
1085 1505 m 0
 1085 1489 1048 1337 1044 1317 c 0
 970 977 891 641 813 299 c 2
 772 121 l 2
 762 78 756 -2 713 -6 c 1xbe
 701 2 692 17 692 31 c 0
 692 129 737 268 764 387 c 0
 844 741 928 1096 1020 1448 c 0
 1024 1460 1039 1532 1055 1532 c 0
 1071 1532 1085 1523 1085 1505 c 0
1466 61 m 1x3e08
 1464 66 l 1
 1470 91 1473 114 1473 139 c 0x3e40
 1473 209 1458 278 1458 348 c 0
 1458 379 1462 409 1462 440 c 0
 1462 460 1462 520 1442 530 c 1
 1401 530 1362 518 1321 518 c 0
 1288 518 1291 523 1266 541 c 1
 1266 547 l 2
 1266 570 1272 592 1276 612 c 1
 1257 653 l 1
 1257 688 1276 719 1276 754 c 0x3f10
 1276 887 1296 1022 1296 1155 c 2
 1296 1481 l 2
 1296 1497 1288 1516 1288 1532 c 0
 1288 1548 1297 1559 1313 1559 c 0
 1329 1559 1350 1550 1350 1530 c 0
 1350 1475 1341 1421 1341 1366 c 0
 1341 1343 1344 1319 1348 1296 c 1
 1343 1290 l 1
 1345 1272 1348 1253 1348 1233 c 0x3e80
 1348 1061 1323 889 1323 717 c 0
 1323 697 1337 677 1337 657 c 0
 1337 637 1323 622 1323 602 c 0
 1323 588 1323 563 1343 563 c 0
 1366 563 1428 572 1446 582 c 1x3f20
 1446 729 1438 877 1432 1024 c 0
 1430 1079 1415 1133 1415 1188 c 0
 1415 1206 1440 1212 1454 1212 c 1
 1473 1190 l 1x3e40
 1473 1094 1485 997 1485 901 c 0x3e20
 1485 860 1491 596 1505 582 c 1
 1530 582 1554 590 1581 590 c 0
 1595 590 1620 587 1620 567 c 0
 1620 514 1505 576 1505 498 c 0x3e10
 1505 451 1514 177 1524 152 c 1
 1522 144 1522 131 1522 117 c 0
 1522 99 1524 78 1530 68 c 1
 1524 43 l 1
 1530 29 l 1
 1530 0 l 1
 1497 -25 l 1
 1466 -12 l 1
 1466 61 l 1x3e08
EndSplineSet
EndChar

StartChar: threequarters
Encoding: 420 190 323
Width: 1675
Flags: W
HStem: -25 21G<1450 1506.6> -2 39<270.845 368.687> 518 45<1307.81 1429.12> 1374 21G<103 135.5> 1491 49<184.508 299.823> 1539 20G<1288 1304>
VStem: 377 55<1015.03 1358.35> 455 55<132.757 566.016> 1249 58<563.018 611.061 653 716.062> 1260 47<657.938 1104> 1280 51<846 1289.16 1297.08 1557.87> 1399 57<905.501 1190> 1415 53<630.268 1185.42> 1442 47<117.656 528.79> 1450 63<0 29 68.4768 495.632>
LayerCount: 2
Fore
SplineSet
195 74 m 1xfb
 211 84 l 1
 244 82 270 53 299 37 c 1
 438 37 455 191 455 297 c 0
 455 485 450 697 315 844 c 1
 309 844 303 842 295 842 c 0
 283 842 268 844 256 850 c 1
 256 858 l 1
 246 868 l 1
 248 893 377 983 377 1130 c 0
 377 1214 367 1491 246 1491 c 0
 146 1491 160 1374 111 1374 c 0
 95 1374 78 1387 76 1403 c 1
 113 1479 160 1540 252 1540 c 0
 287 1540 324 1518 344 1491 c 1
 350 1489 l 1
 420 1387 432 1223 432 1102 c 0
 432 1061 415 1022 395 987 c 1
 379 975 348 912 328 889 c 1
 469 834 465 631 494 508 c 0
 510 438 510 441 510 367 c 0
 510 236 504 -2 322 -2 c 0
 279 -2 195 21 195 74 c 1xfb
1069 1505 m 0
 1069 1489 1032 1337 1028 1317 c 0
 954 977 875 641 797 299 c 2
 756 121 l 2
 746 78 739 -2 696 -6 c 1
 684 2 676 17 676 31 c 0
 676 129 721 268 748 387 c 0
 828 741 912 1096 1004 1448 c 0
 1008 1460 1022 1532 1038 1532 c 0
 1054 1532 1069 1523 1069 1505 c 0
1450 61 m 1xf702
 1448 66 l 1
 1454 91 1456 114 1456 139 c 0xf710
 1456 209 1442 278 1442 348 c 0
 1442 379 1446 409 1446 440 c 0
 1446 460 1445 520 1425 530 c 1
 1384 530 1346 518 1305 518 c 0
 1272 518 1274 523 1249 541 c 1
 1249 547 l 2xf784
 1249 570 1256 592 1260 612 c 1
 1241 653 l 1
 1241 688 1260 719 1260 754 c 0xf740
 1260 887 1280 1022 1280 1155 c 2
 1280 1481 l 2
 1280 1497 1272 1516 1272 1532 c 0
 1272 1548 1280 1559 1296 1559 c 0
 1312 1559 1333 1550 1333 1530 c 0
 1333 1475 1325 1421 1325 1366 c 0
 1325 1343 1327 1319 1331 1296 c 1
 1327 1290 l 1
 1329 1272 1331 1253 1331 1233 c 0xf720
 1331 1061 1307 889 1307 717 c 0xf740
 1307 697 1321 677 1321 657 c 0
 1321 637 1307 622 1307 602 c 0
 1307 588 1307 563 1327 563 c 0
 1350 563 1412 572 1430 582 c 1
 1430 729 1421 877 1415 1024 c 0xf788
 1413 1079 1399 1133 1399 1188 c 0
 1399 1206 1424 1212 1438 1212 c 1
 1456 1190 l 1xf710
 1456 1094 1468 997 1468 901 c 0xf708
 1468 860 1475 596 1489 582 c 1
 1514 582 1538 590 1565 590 c 0
 1579 590 1604 587 1604 567 c 0
 1604 514 1489 576 1489 498 c 0xf704
 1489 451 1497 177 1507 152 c 1
 1505 144 1505 131 1505 117 c 0
 1505 99 1507 78 1513 68 c 1
 1507 43 l 1
 1513 29 l 1
 1513 0 l 1
 1481 -25 l 1
 1450 -12 l 1
 1450 61 l 1xf702
EndSplineSet
EndChar

StartChar: equal
Encoding: 61 61 324
Width: 620
Flags: W
HStem: 608 39<136.071 552.794 553 562.375> 721 41<116.961 563.202>
VStem: 553 12<604.004 606>
LayerCount: 2
Fore
SplineSet
569 727 m 0
 569 721 467 721 354 721 c 2
 156 721 l 2
 136 721 113 733 113 756 c 0
 113 762 201 762 293 762 c 2
 524 762 l 2
 542 762 569 747 569 727 c 0
553 604 m 1
 553 606 269 608 158 608 c 0
 146 608 133 627 133 639 c 0
 133 643 135 647 141 647 c 0
 151 647 449 645 545 645 c 0
 555 645 565 628 565 616 c 0
 565 610 561 604 553 604 c 1
EndSplineSet
EndChar

StartChar: endash
Encoding: 421 8211 325
Width: 620
Flags: W
HStem: 721 41<13.9062 568.926 569 620.046>
VStem: 10 621<727.332 760.227>
LayerCount: 2
Fore
SplineSet
631 727 m 1
 569 727 l 1
 569 721 467 721 354 721 c 2
 53 721 l 2
 33 721 10 733 10 756 c 0
 10 762 150 762 293 762 c 2
 586 762 l 2
 604 762 631 747 631 727 c 1
EndSplineSet
EndChar

StartChar: emdash
Encoding: 422 8212 326
Width: 620
Flags: W
HStem: 721 41<207.779 855.926 856 906.685>
LayerCount: 2
Fore
SplineSet
918 727 m 1
 856 727 l 1
 856 721 754 721 641 721 c 2
 53 721 l 2
 33 721 10 733 10 756 c 0
 10 762 293 762 580 762 c 2
 872 762 l 2
 890 762 918 747 918 727 c 1
EndSplineSet
EndChar

StartChar: divide
Encoding: 423 247 327
Width: 620
Flags: W
HStem: 467 90<287.32 388.635> 721 41<96.4531 505.962> 928 94<285.331 380.557>
VStem: 287 102<467.65 554.89 929.08 1021.23>
LayerCount: 2
Fore
SplineSet
467 725 m 1
 430 723 415 721 354 721 c 2
 135 721 l 2
 115 721 92 733 92 756 c 0
 92 762 191 762 293 762 c 2
 483 762 l 2
 493 762 506 751 506 741 c 0
 506 733 498 725 467 725 c 1
336 928 m 0
 311 928 285 952 285 977 c 0
 285 1000 314 1022 334 1022 c 0
 367 1022 381 1000 381 969 c 0
 381 946 356 928 336 928 c 0
338 467 m 0
 315 467 287 491 287 516 c 0
 287 549 329 557 354 557 c 0
 379 557 389 526 389 506 c 0
 389 481 358 467 338 467 c 0
EndSplineSet
EndChar

StartChar: bar
Encoding: 124 124 328
Width: 514
Flags: W
HStem: 1532 20G<204.5 230>
VStem: 127 66<-87.2893 334.969> 152 47<89.4575 750.973> 184 54<1151.35 1549.88>
LayerCount: 2
Fore
SplineSet
193 2 m 1xc0
 186 -68 l 1
 186 -84 162 -88 152 -88 c 0xa0
 127 -88 127 -84 127 -72 c 0xc0
 127 110 152 289 152 471 c 0xa0
 152 809 184 1143 184 1487 c 0
 184 1514 184 1552 225 1552 c 0
 235 1552 238 1542 238 1530 c 0x90
 238 1149 199 754 199 371 c 0xa0
 199 330 195 82 193 51 c 1
 193 2 l 1xc0
EndSplineSet
EndChar

StartChar: brokenbar
Encoding: 424 166 329
Width: 514
Flags: W
HStem: -47 21G<157.5 175> 1532 20G<204.5 230>
VStem: 145 52<-46.9971 600.327> 160 53<370.901 624.828> 170 51<858.003 1526.52> 184 54<1215.49 1549.88>
LayerCount: 2
Fore
SplineSet
221 948 m 1xc8
 215 879 l 1
 215 859 205 858 195 858 c 0
 170 858 170 862 170 874 c 0xc8
 170 1026 180 1163 180 1315 c 0
 180 1350 184 1475 184 1487 c 0
 184 1514 184 1552 225 1552 c 0
 235 1552 238 1542 238 1530 c 0xc4
 238 1458 227 1243 227 1214 c 0
 227 1183 223 1017 221 997 c 1
 221 948 l 1xc8
197 43 m 1xe0
 190 -27 l 1
 190 -47 180 -47 170 -47 c 0xc8
 145 -47 145 -43 145 -31 c 0xe0
 145 108 156 230 156 369 c 0
 156 408 160 547 160 561 c 0
 160 588 160 627 201 627 c 0
 211 627 213 627 213 604 c 0xd0
 213 528 203 299 203 268 c 0
 203 241 199 108 197 92 c 1
 197 43 l 1xe0
EndSplineSet
EndChar

StartChar: foundryicon
Encoding: 425 -1 330
Width: 1251
Flags: W
LayerCount: 2
Fore
SplineSet
604 375 m 2
 592 375 l 1
 541 332 448 260 397 221 c 0
 372 201 293 115 266 115 c 0
 248 115 231 118 231 141 c 0
 231 159 240 168 246 186 c 1
 271 297 323 418 354 516 c 1
 354 516 356 518 356 520 c 1
 354 522 l 1
 295 604 213 667 137 735 c 0
 104 764 18 791 18 840 c 0
 18 860 32 870 57 870 c 0
 67 870 197 848 279 848 c 1
 469 840 l 1
 563 1075 l 1
 594 1122 609 1235 666 1235 c 0
 684 1235 715 1206 715 1188 c 0
 715 1110 750 971 768 895 c 1
 778 848 l 1
 835 844 909 842 981 842 c 0
 1051 842 1110 848 1171 848 c 0
 1198 848 1225 838 1225 807 c 0
 1225 793 1146 749 1128 735 c 1
 1049 663 978 570 881 522 c 1
 881 510 l 2
 881 457 910 389 922 344 c 1
 930 342 975 135 975 106 c 0
 975 86 962 72 942 72 c 0
 889 72 723 375 604 375 c 2
EndSplineSet
EndChar

StartChar: braceleft
Encoding: 123 123 331
Width: 696
Flags: W
HStem: -51 49<183.846 298.785> 739 37<37.0544 82.2937> 1495 49<183.846 293.24>
VStem: 104 48<35.125 722.471 788.806 1457.88>
LayerCount: 2
Fore
SplineSet
96 403 m 0
 96 512 104 584 104 645 c 0
 104 692 90 735 45 739 c 1
 39 741 37 750 37 760 c 0
 37 768 41 774 53 776 c 1
 90 776 104 823 104 872 c 0
 104 954 90 1147 90 1305 c 0
 90 1463 145 1544 221 1544 c 0
 248 1544 299 1527 299 1509 c 0
 299 1486 280 1487 266 1487 c 0
 256 1487 250 1495 225 1495 c 0
 164 1495 152 1394 152 1296 c 2
 152 1044 l 2
 152 991 158 936 158 887 c 0
 158 832 153 785 104 758 c 1
 153 733 158 686 158 631 c 0
 158 563 152 492 152 420 c 2
 152 197 l 2
 152 99 164 -2 225 -2 c 0
 266 -2 299 -2 299 -29 c 0
 299 -47 248 -51 221 -51 c 0
 145 -51 90 30 90 188 c 0
 90 270 96 321 96 403 c 0
EndSplineSet
EndChar

StartChar: braceright
Encoding: 125 125 332
Width: 696
Flags: W
HStem: -51 49<37.8981 152.154> 717 37<253.437 298.946> 1495 49<37.8981 152.154>
VStem: 184 47<38.33 703.409 771.799 1454.67>
LayerCount: 2
Fore
SplineSet
240 1090 m 0
 240 981 231 909 231 848 c 0
 231 801 246 758 291 754 c 1
 297 752 299 743 299 733 c 0
 299 725 295 719 283 717 c 1
 246 717 231 670 231 621 c 0
 231 539 246 346 246 188 c 0
 246 30 191 -51 115 -51 c 0
 88 -51 37 -41 37 -23 c 0
 37 0 56 0 70 0 c 0
 80 0 86 -2 111 -2 c 0
 172 -2 184 99 184 197 c 2
 184 449 l 2
 184 502 178 557 178 606 c 0
 178 661 182 708 231 735 c 1
 182 760 178 807 178 862 c 0
 178 930 184 1001 184 1073 c 2
 184 1296 l 2
 184 1394 172 1495 111 1495 c 2
 80 1495 l 2
 53 1495 37 1498 37 1516 c 0
 37 1534 88 1544 115 1544 c 0
 191 1544 246 1463 246 1305 c 0
 246 1223 240 1172 240 1090 c 0
EndSplineSet
EndChar

StartChar: degree
Encoding: 426 176 333
Width: 868
Flags: W
HStem: 965 39<362.419 500.07> 1331 47<364.411 504.468>
VStem: 256 45<1064.74 1241.79> 573 39<1082.42 1254.46>
LayerCount: 2
Fore
SplineSet
301 1122 m 0
 301 1081 348 1004 426 1004 c 0
 551 1004 573 1117 573 1174 c 0
 573 1258 518 1331 418 1331 c 0
 340 1331 301 1206 301 1122 c 0
256 1133 m 0
 256 1227 301 1378 412 1378 c 0
 525 1378 612 1294 612 1190 c 0
 612 1110 596 965 422 965 c 0
 324 965 256 1076 256 1133 c 0
EndSplineSet
EndChar

StartChar: bullet
Encoding: 427 8226 334
Width: 868
Flags: W
HStem: 571 287<340.552 532.777>
VStem: 301 272<612.654 820.091>
LayerCount: 2
Fore
SplineSet
301 690 m 0
 301 758 340 858 418 858 c 0
 518 858 573 804 573 741 c 0
 573 684 551 571 426 571 c 0
 348 571 301 649 301 690 c 0
EndSplineSet
EndChar

StartChar: asciitilde
Encoding: 126 126 335
Width: 653
Flags: W
HStem: 1022 53<363.4 450.861> 1151 49<179.891 264.591>
VStem: 111 51<1025.94 1132.23> 487 56<1095.4 1194.67>
LayerCount: 2
Fore
SplineSet
111 1055 m 0
 111 1133 150 1200 236 1200 c 0
 304 1200 355 1075 410 1075 c 0
 416 1075 420 1075 426 1077 c 1
 440 1073 l 1
 450 1100 487 1094 487 1149 c 0
 487 1163 477 1174 475 1188 c 1
 479 1196 488 1200 496 1200 c 0
 531 1200 543 1159 543 1130 c 0
 543 1073 491 1022 434 1022 c 0
 354 1022 299 1088 252 1143 c 1
 244 1149 236 1151 228 1151 c 0
 196 1151 162 1115 162 1094 c 0
 162 1080 172 1066 172 1051 c 1
 164 1040 145 1025 130 1025 c 0
 119 1025 111 1032 111 1055 c 0
EndSplineSet
EndChar

StartChar: ordmasculine
Encoding: 464 186 376
Width: 729
Flags: W
HStem: 431 53<159.078 549.922> 538 60<289.801 464.155> 1294 39<293.241 400.637>
VStem: 136 66<717.638 1165.13> 544 63<692.383 1104.07>
LayerCount: 2
Fore
SplineSet
607 826 m 1
 607 718 558 630 459 563 c 0
 435 547 408 538 378 538 c 0
 217 538 136 654 136 887 c 0
 136 1002 144 1027 178 1220 c 0
 190 1289 244 1333 334 1333 c 0
 364 1333 400 1330 442 1322 c 0
 469 1317 496 1291 521 1243 c 1
 575 1156 604 1018 607 826 c 1
202 954 m 1
 205 717 260 598 369 598 c 0
 485 598 544 679 544 842 c 0
 544 1045 522 1167 480 1210 c 0
 424 1266 380 1294 345 1294 c 0
 261 1294 214 1181 202 954 c 1
507 484 m 0
 526 484 552 468 552 449 c 0
 552 435 227 431 200 431 c 0
 180 431 157 445 157 466 c 0
 157 479 482 484 507 484 c 0
EndSplineSet
EndChar

